<?xml version="1.0" encoding="UTF-8"?>
<svg id="Livello_1" xmlns="http://www.w3.org/2000/svg" version="1.1" viewBox="0 0 193.78 193.88">
  <!-- Generator: Adobe Illustrator 30.2.0, SVG Export Plug-In . SVG Version: 2.1.1 Build 105)  -->
  <defs>
    <style>
      .st0 {
        fill: #fff;
      }
    </style>
  </defs>
  <path class="st0" d="M154.46,27.65c.29-2.08-1.16-4.01-3.23-4.3-2.12-.3-4.01,1.16-4.3,3.23l-1.45,10.3-14.07-3.03v-.02c0-4.74-2.31-8.93-5.84-11.58l7.31-12.25,9.64,5.44c.59.33,1.23.49,1.86.49,1.33,0,2.62-.7,3.31-1.94,1.03-1.83.39-4.14-1.45-5.18l-12.87-7.26c-.21-.12-.42-.14-.65-.21-.25-.09-.5-.22-.75-.24-.22-.03-.43.02-.65.04-.27,0-.55,0-.8.07-.21.05-.37.18-.57.26-.24.12-.51.21-.73.37-.2.15-.32.36-.49.54-.17.19-.36.32-.49.54l-9.87,16.53c-.5-.05-.99-.16-1.51-.16-3.23,0-6.19,1.1-8.61,2.89-.07.05-.15.06-.22.11l-60.23,48.65s-.02.03-.04.04c-5.51,3.2-9.25,9.1-9.25,15.92,0,4.28,1.52,8.17,3.98,11.32.06.1.07.21.14.3l42.32,58.61h0c2.16,3.43,5.1,6.31,8.61,8.36v7.67h-5.72c-5.94,0-10.57,5.74-10.57,13.07v1.16c0,2.1,1.7,3.8,3.81,3.8h50.1c2.1,0,3.8-1.7,3.8-3.8v-1.16c0-7.33-4.65-13.07-10.58-13.07h-5.72v-7.67c7.42-4.34,12.42-12.36,12.42-21.56,0-6.47-2.49-12.34-6.53-16.78,0,0-.02-.04-.04-.05l-.11-.11c-.57-.62-1.18-1.2-1.8-1.75l-39.29-38.41,43.43-42.41s.04-.07.07-.1c.97-.92,1.78-1.99,2.48-3.14l18.54,3.98c.07,0,.12,0,.19.02.03,0,.05.02.08.03.19.03.36.04.54.04.45,0,.88-.09,1.3-.24.15-.05.25-.16.39-.22.25-.13.51-.25.72-.43.14-.12.24-.26.35-.39.18-.19.35-.37.49-.6.1-.17.15-.36.23-.55.08-.2.19-.36.24-.58v-.13s.04-.09.05-.14l2.02-14.32h.02ZM115.53,27.04c4.87-.93,9.08,3.29,8.15,8.16-.52,2.72-2.71,4.92-5.44,5.44-4.87.93-9.08-3.29-8.15-8.16.52-2.72,2.71-4.92,5.44-5.44ZM57.02,76.04c2.98,0,5.67,1.21,7.63,3.14l.09.08c2.34,2.37,3.62,5.8,3.01,9.5-.78,4.7-4.71,8.42-9.45,8.95-6.56.74-12.15-4.39-12.15-10.8,0-6,4.88-10.88,10.87-10.88h0ZM81.6,139.47l-24.61-34.07h.04c9.3,0,16.94-6.92,18.22-15.86l30.16,29.48c-11.9.35-21.72,9.06-23.8,20.47h0ZM126.94,183.61h-41.59c.6-1.75,1.68-2.82,2.52-2.82h36.55c.84,0,1.92,1.08,2.52,2.82h0ZM111.09,173.18h-9.9v-4.75c1.6.32,3.25.5,4.95.5s3.35-.18,4.95-.5v4.75ZM106.14,161.32c-10.21,0-18.4-8.87-17.26-19.29.86-7.97,7.28-14.4,15.23-15.32,5.34-.63,10.21,1.25,13.77,4.54l.89.87c2.92,3.11,4.74,7.26,4.74,11.84,0,9.57-7.79,17.37-17.37,17.37h0ZM70.09,73.86l-.04-.04-.51-.5c-.13-.13-.29-.18-.43-.28-2.02-1.76-4.4-3.08-7.04-3.83l40.54-32.75c.99,5.34,4.9,9.6,10,11.18l-34.69,33.87-7.83-7.65h0Z"/>
</svg>