<?xml version="1.0" encoding="UTF-8"?>
<svg id="Livello_1" xmlns="http://www.w3.org/2000/svg" version="1.1" viewBox="0 0 193.78 193.88">
  <!-- Generator: Adobe Illustrator 30.2.0, SVG Export Plug-In . SVG Version: 2.1.1 Build 105)  -->
  <defs>
    <style>
      .st0 {
        fill: #fff;
      }
    </style>
  </defs>
  <path class="st0" d="M173.44,100.68c-.92-.62-22.69-15.2-41.88-19.42-11.8-2.6-25-5.5-34.35-4.72-.12-9.49-4.34-22.81-7.82-33.79-.07-.23-.17-.46-.23-.69,5.58.17,12.03,1.62,16.02,3.18.51.2,1.04.29,1.55.29,1.68,0,3.28-1.02,3.94-2.68.85-2.17-.22-4.62-2.38-5.48-5.5-2.16-14.75-4.19-22.46-3.71-1.46-3.15-3.06-6.24-4.75-9.16,2.51-.3,5.05-.47,7.63-.47,9.14,0,17.99,1.93,26.28,5.72.57.26,1.17.38,1.76.38,1.6,0,3.13-.92,3.85-2.47.97-2.12.04-4.63-2.09-5.6-9.41-4.31-19.43-6.49-29.79-6.49-4.22,0-8.38.38-12.43,1.1-5.15-7.86-9.69-13.41-10.05-13.84-1.11-1.33-2.9-1.86-4.55-1.33-1.64.53-2.8,2.01-2.93,3.73-.08,1.11-1.83,27.3,4.1,45.96,3.49,10.97,7.73,24.32,13.12,32.12-8,4.72-17.05,14.6-25.1,23.43l-.26.29c-.47.52-.94,1.07-1.42,1.63-2.01-3.68-3.52-7.58-4.44-11.67-.51-2.28-2.77-3.72-5.04-3.2-2.28.51-3.71,2.77-3.2,5.04,1.36,6.1,3.77,11.85,7.15,17.12-1.86,2.71-3.7,5.69-5.52,8.91-6.08-8.12-10.12-17.53-11.74-27.6-.37-2.3-2.54-3.87-4.84-3.51-2.3.37-3.88,2.54-3.51,4.84,2.04,12.73,7.5,24.54,15.77,34.4-3.85,7.8-6.08,13.78-6.18,14.05-.6,1.62-.16,3.44,1.13,4.6.79.72,1.81,1.1,2.84,1.1.63,0,1.26-.14,1.85-.43.29-.15,7.2-3.52,15.65-8.87,6.22-3.94,11.55-7.86,15.99-11.75.03-.03.06-.05.08-.07,2.23-1.96,4.26-3.91,6.02-5.83,2.59-2.84,5.38-5.9,8.12-9.04v66.08h-37.49c-2.33,0-4.23,1.9-4.23,4.23s1.89,4.23,4.23,4.23h97.59c2.33,0,4.23-1.89,4.23-4.23s-1.89-4.23-4.23-4.23h-37.49v-80.44c7.33,2.48,15.95,4.4,23.4,6.04l.35.08c.76.17,1.6.29,2.39.44-1.99,3.61-4.44,6.94-7.39,9.91-1.64,1.65-1.64,4.33.02,5.98.82.82,1.9,1.23,2.99,1.23s2.17-.41,3-1.24c4.3-4.32,7.71-9.3,10.29-14.76,2.81.21,5.73.34,8.83.34.52,0,1.06-.02,1.59-.02-3.14,7.91-7.87,15.19-13.91,21.27-1.64,1.65-1.64,4.33.02,5.97.82.82,1.9,1.23,2.98,1.23s2.17-.41,3-1.24c7.72-7.76,13.56-17.26,17.05-27.58,8.7-.57,15.02-1.62,15.31-1.66,1.7-.28,3.06-1.59,3.43-3.27.36-1.69-.33-3.43-1.76-4.4h0l-.03-.03ZM90.9,83.27s.05.02.07.04c.35.19.67.41.97.73.47.48.81,1.07,1.01,1.69,0,.02.02.05.02.07.59,1.85-.08,3.86-1.64,4.98-.39.28-.85.51-1.26.65-.42.14-.81.21-1.25.21-1.98.11-3.81-1.21-4.41-3.12-.22-.67-.26-1.32-.16-2.04.08-.53.23-.99.51-1.49.39-.72,1.16-1.68,2.57-2.13.44-.14.88-.21,1.32-.21.75,0,1.52.21,2.27.61h0ZM66.91,17.94c5.01,7.28,11.34,17.62,14.43,27.37,2.86,9.01,6.59,20.75,7.31,28.89-1.31,0-2.62.2-3.9.6-1.17.37-2.21.94-3.2,1.59-4.09-7.09-7.82-18.79-10.67-27.77-3.04-9.58-3.85-21.75-3.97-30.67h0ZM64.93,120.08c-4.7,5.14-11.75,10.74-20.37,16.2-1.46.93-2.88,1.79-4.22,2.58.69-1.45,1.44-2.99,2.25-4.56,4.69-9.12,9.48-16.39,14.24-21.6l.26-.29c6.23-6.81,13.64-14.91,19.94-19.68,1.22,2.54,3.21,4.57,5.62,5.84-4.37,6.87-11.92,15.14-17.71,21.49h0ZM87.73,182.82v-76.65c1.58-2.22,2.95-4.41,4.04-6.49.29-.08.58-.12.88-.22.27-.09.52-.23.78-.32v83.69h-5.72,0ZM153.15,101.73c-9.98.51-18.86,0-25.68-1.49l-.34-.08c-8.87-1.97-19.5-4.32-26.81-7.38,1.18-2.43,1.58-5.19,1.09-7.92,8.14.2,19.54,2.7,28.42,4.66,9.8,2.15,20.74,7.53,28.51,11.88-1.63.13-3.37.24-5.19.33h0Z"/>
</svg>