<?xml version="1.0" encoding="UTF-8"?>
<svg id="Livello_1" xmlns="http://www.w3.org/2000/svg" version="1.1" viewBox="0 0 193.78 193.88">
  <!-- Generator: Adobe Illustrator 30.2.0, SVG Export Plug-In . SVG Version: 2.1.1 Build 105)  -->
  <defs>
    <style>
      .st0 {
        fill: #fff;
        fill-rule: evenodd;
      }
    </style>
  </defs>
  <path class="st0" d="M190.27,132.12c-30.81-30.81-56-90.1-56.27-90.73,0-.02-.02-.03-.02-.04-.15-.33-.35-.62-.6-.88-.07-.08-.16-.15-.23-.22-.21-.19-.42-.33-.66-.45-.1-.05-.19-.1-.29-.14-.34-.13-.7-.22-1.09-.22h-.04c-.82-.06-1.58.3-2.16.89-.03.03-.05.04-.08.07-.25.27-.48.57-.64.92,0,0-.02.04-.02.05h0c-.66,1.46-25.66,56.97-56.27,87.58-.8.8-1.11,1.99-.81,3.08.3,1.1,1.17,1.95,2.28,2.22,22.58,5.64,22.91,33.71,22.91,34.9,0,1.75,1.42,3.16,3.16,3.16h0c1.75,0,3.16-1.42,3.16-3.16,0-.32-.27-29.93-22.71-39.38,21.32-22.83,39.14-55.44,48.02-73.21v59.13c-7.21,1.47-12.65,7.86-12.65,15.5,0,8.72,7.1,15.82,15.81,15.82s15.82-7.1,15.82-15.82c0-7.64-5.45-14.02-12.65-15.5v-58.46c8.9,18.68,26.71,52.72,48,75.68-22.41,9.09-22.7,35.96-22.7,36.24,0,1.75,1.42,3.16,3.16,3.16h0c1.75,0,3.16-1.41,3.17-3.16,0-1.07.36-26.1,22.91-31.73,1.11-.27,1.98-1.12,2.28-2.22.3-1.1,0-2.28-.81-3.08h.03ZM140.59,131.19c0,5.23-4.25,9.5-9.5,9.5s-9.5-4.25-9.5-9.5,4.25-9.5,9.5-9.5,9.5,4.25,9.5,9.5ZM172.22,181.8v6.33c0,1.75-1.42,3.17-3.17,3.17s-3.16-1.42-3.16-3.17v-3.16h-69.6v3.16c0,1.75-1.42,3.17-3.17,3.17s-3.16-1.42-3.16-3.17v-6.33c0-1.75,1.42-3.17,3.16-3.17h75.93c1.75,0,3.17,1.42,3.17,3.17h0ZM117.16,20.48l11.7,11.7c.62.62,1.43.93,2.24.93s1.62-.31,2.24-.93l12.65-12.65c1.23-1.24,1.23-3.24,0-4.47l-12.65-12.65c-1.24-1.24-3.24-1.24-4.47,0l-11.73,11.73H19.78c-1.31-3.68-4.79-6.33-8.91-6.33C5.64,7.8,1.38,12.05,1.38,17.29s4.25,9.5,9.5,9.5c4.12,0,7.6-2.65,8.91-6.33h62.85C43.05,34.96,14.64,72.78,14.07,117.19l-11.76,11.76c-1.24,1.23-1.24,3.24,0,4.47l12.65,12.65c.62.62,1.43.93,2.24.93s1.62-.31,2.24-.93l12.65-12.65c1.23-1.24,1.23-3.24,0-4.47l-11.7-11.7c.68-53.06,43.7-96.08,96.77-96.77h0ZM131.1,9.11l8.19,8.19-8.19,8.19-8.19-8.19,8.19-8.19ZM10.88,20.45c-1.74,0-3.17-1.42-3.17-3.17s1.42-3.16,3.17-3.16,3.16,1.42,3.16,3.16-1.42,3.17-3.16,3.17ZM17.21,139.36l-8.19-8.19,8.19-8.19,8.19,8.19-8.19,8.19Z"/>
</svg>