<?xml version="1.0" encoding="UTF-8"?>
<svg id="Livello_1" xmlns="http://www.w3.org/2000/svg" version="1.1" viewBox="0 0 676.06 128.51">
  <!-- Generator: Adobe Illustrator 30.2.0, SVG Export Plug-In . SVG Version: 2.1.1 Build 105)  -->
  <defs>
    <style>
      .st0 {
        fill: #fff;
      }
    </style>
  </defs>
  <g>
    <path class="st0" d="M3.71,82.53c.33,1.47,1.31,2.33,3.12,2.33,2.02,0,2.79-1.01,2.79-2.21s-.55-2.02-2.98-2.62c-2.33-.58-3.34-1.34-3.34-2.93,0-1.45,1.06-2.81,3.42-2.81s3.45,1.48,3.59,2.82h-.88c-.25-1.18-1.02-2.03-2.76-2.03-1.59,0-2.46.74-2.46,1.97s.73,1.69,2.76,2.19c3.11.77,3.56,2.02,3.56,3.34,0,1.62-1.18,3.03-3.74,3.03-2.76,0-3.77-1.61-3.97-3.09h.88Z"/>
    <path class="st0" d="M12.87,81.65c.02,2.03,1.04,3.29,2.55,3.29s1.99-.83,2.27-1.48h.8c-.33,1.04-1.17,2.22-3.11,2.22-2.4,0-3.33-2.07-3.33-4.07,0-2.25,1.12-4.19,3.42-4.19,2.43,0,3.2,2.1,3.2,3.58,0,.22,0,.44-.02.65h-5.8ZM17.87,80.95c-.02-1.56-.87-2.79-2.41-2.79-1.62,0-2.36,1.13-2.54,2.79h4.95Z"/>
    <path class="st0" d="M19.56,77.61h1.47v-2.46h.79v2.46h1.88v.74h-1.88v5.12c0,.88.19,1.39.95,1.39.24,0,.57-.02.82-.09v.69c-.27.11-.65.14-.98.14-1.01,0-1.58-.5-1.58-1.77v-5.49h-1.47v-.74Z"/>
    <path class="st0" d="M24.18,77.61h1.47v-2.46h.79v2.46h1.88v.74h-1.88v5.12c0,.88.19,1.39.95,1.39.24,0,.57-.02.82-.09v.69c-.27.11-.65.14-.98.14-1.01,0-1.58-.5-1.58-1.77v-5.49h-1.47v-.74Z"/>
    <path class="st0" d="M36.21,81.54c0,2.19-1.21,4.15-3.56,4.15-2.13,0-3.45-1.75-3.45-4.13,0-2.25,1.25-4.13,3.53-4.13,2.1,0,3.48,1.64,3.48,4.11ZM30.03,81.55c0,1.88,1.01,3.39,2.68,3.39s2.66-1.4,2.66-3.39c0-1.86-.95-3.39-2.7-3.39s-2.65,1.5-2.65,3.39Z"/>
    <path class="st0" d="M38.16,79.76c0-1.32-.02-1.89-.02-2.14h.77c.02.25.03.76.03,1.76.46-1.18,1.47-1.89,2.74-1.95v.85c-1.64.11-2.74,1.25-2.74,3.12v4.1h-.79v-5.74Z"/>
    <path class="st0" d="M43.32,81.65c.02,2.03,1.04,3.29,2.55,3.29s1.99-.83,2.27-1.48h.8c-.33,1.04-1.17,2.22-3.11,2.22-2.4,0-3.33-2.07-3.33-4.07,0-2.25,1.12-4.19,3.42-4.19,2.43,0,3.2,2.1,3.2,3.58,0,.22,0,.44-.02.65h-5.8ZM48.31,80.95c-.02-1.56-.87-2.79-2.41-2.79-1.62,0-2.36,1.13-2.54,2.79h4.95Z"/>
    <path class="st0" d="M53.98,77.61h1.47v-2.46h.79v2.46h1.88v.74h-1.88v5.12c0,.88.19,1.39.95,1.39.24,0,.57-.02.82-.09v.69c-.27.11-.65.14-.98.14-1.01,0-1.58-.5-1.58-1.77v-5.49h-1.47v-.74Z"/>
    <path class="st0" d="M59.79,81.65c.02,2.03,1.04,3.29,2.55,3.29s1.99-.83,2.27-1.48h.8c-.33,1.04-1.17,2.22-3.11,2.22-2.4,0-3.33-2.07-3.33-4.07,0-2.25,1.12-4.19,3.42-4.19,2.43,0,3.2,2.1,3.2,3.58,0,.22,0,.44-.02.65h-5.8ZM64.79,80.95c-.02-1.56-.87-2.79-2.41-2.79-1.62,0-2.36,1.13-2.54,2.79h4.95Z"/>
    <path class="st0" d="M73.42,83.17c-.38,1.39-1.29,2.51-3.06,2.51-1.97,0-3.37-1.47-3.37-4.1,0-2.16,1.15-4.16,3.47-4.16,2,0,2.82,1.42,2.96,2.52h-.8c-.24-.91-.83-1.78-2.17-1.78-1.67,0-2.62,1.42-2.62,3.39s.88,3.39,2.54,3.39c1.15,0,1.84-.58,2.25-1.77h.8Z"/>
    <path class="st0" d="M75.25,79.6c0-.69,0-1.36-.02-1.99h.77c.03.25.05,1.28.03,1.5.35-.8.99-1.69,2.62-1.69,1.4,0,2.65.79,2.65,2.96v5.11h-.79v-4.98c0-1.4-.58-2.32-1.95-2.32-1.88,0-2.52,1.56-2.52,3.28v4.02h-.79v-5.9Z"/>
    <path class="st0" d="M90.27,81.54c0,2.19-1.21,4.15-3.56,4.15-2.13,0-3.45-1.75-3.45-4.13,0-2.25,1.25-4.13,3.53-4.13,2.1,0,3.48,1.64,3.48,4.11ZM84.09,81.55c0,1.88,1.01,3.39,2.68,3.39s2.66-1.4,2.66-3.39c0-1.86-.95-3.39-2.7-3.39s-2.65,1.5-2.65,3.39Z"/>
    <path class="st0" d="M92.23,85.49v-11.62h.79v11.62h-.79Z"/>
    <path class="st0" d="M101.99,81.54c0,2.19-1.21,4.15-3.56,4.15-2.13,0-3.45-1.75-3.45-4.13,0-2.25,1.25-4.13,3.53-4.13,2.1,0,3.48,1.64,3.48,4.11ZM95.81,81.55c0,1.88,1.01,3.39,2.68,3.39s2.66-1.4,2.66-3.39c0-1.86-.95-3.39-2.7-3.39s-2.65,1.5-2.65,3.39Z"/>
    <path class="st0" d="M110.07,84.96c0,2.52-1.12,3.85-3.41,3.85-2.05,0-2.9-1.15-3.09-2.35h.8c.28,1.09,1.18,1.61,2.32,1.61,2.05,0,2.62-1.32,2.62-3.33v-.82c-.43,1.02-1.2,1.58-2.63,1.58-1.84,0-3.26-1.5-3.26-3.94,0-2.65,1.51-4.13,3.37-4.13,1.61,0,2.3.76,2.52,1.39.02-.46.03-1.01.05-1.2h.74c0,.28-.03,1.53-.03,2.29v5.06ZM104.26,81.52c0,1.88.99,3.23,2.51,3.23,1.97,0,2.57-1.31,2.57-3.36s-.63-3.23-2.52-3.23-2.55,1.56-2.55,3.36Z"/>
    <path class="st0" d="M112.66,73.88h.79v1.53h-.79v-1.53ZM112.66,77.61h.79v7.88h-.79v-7.88Z"/>
    <path class="st0" d="M121.84,83.17c-.38,1.39-1.29,2.51-3.06,2.51-1.97,0-3.37-1.47-3.37-4.1,0-2.16,1.15-4.16,3.47-4.16,2,0,2.82,1.42,2.96,2.52h-.8c-.24-.91-.84-1.78-2.18-1.78-1.67,0-2.62,1.42-2.62,3.39s.88,3.39,2.54,3.39c1.15,0,1.84-.58,2.25-1.77h.8Z"/>
    <path class="st0" d="M130.13,81.54c0,2.19-1.21,4.15-3.56,4.15-2.13,0-3.45-1.75-3.45-4.13,0-2.25,1.25-4.13,3.53-4.13,2.1,0,3.48,1.64,3.48,4.11ZM123.95,81.55c0,1.88,1.01,3.39,2.68,3.39s2.66-1.4,2.66-3.39c0-1.86-.95-3.39-2.7-3.39s-2.65,1.5-2.65,3.39Z"/>
    <path class="st0" d="M132.35,79.64v-2.03h.76v2.03h-.76ZM132.35,85.49v-2.05h.76v2.05h-.76Z"/>
    <path class="st0" d="M149.16,80.93c0-2,.02-4.07.07-5.24h-.06c-.48,1.86-2.12,6.36-3.34,9.8h-1.44c-.92-2.84-2.62-7.9-3.11-9.82h-.05c.09,1.27.12,3.67.12,5.54v4.28h-1.52v-10.95h2.42c1.17,3.3,2.58,7.53,2.95,8.97h.02c.26-1.13,1.94-5.75,3.16-8.97h2.35v10.95h-1.58v-4.56Z"/>
    <path class="st0" d="M154.19,81.78c0,1.51.77,2.63,2.08,2.63,1.2,0,1.58-.6,1.83-1.17h1.56c-.31,1.02-1.17,2.44-3.43,2.44-2.55,0-3.6-2.04-3.6-4.11,0-2.41,1.22-4.29,3.69-4.29,2.62,0,3.49,2.06,3.49,3.83,0,.25,0,.45-.02.67h-5.59ZM158.24,80.72c-.02-1.25-.62-2.25-1.94-2.25s-1.93.93-2.06,2.25h4Z"/>
    <path class="st0" d="M168.08,83.01c-.33,1.37-1.26,2.67-3.37,2.67-2.26,0-3.62-1.62-3.62-4.16,0-2.29,1.32-4.25,3.72-4.25s3.18,1.71,3.27,2.72h-1.53c-.19-.79-.67-1.44-1.77-1.44-1.34,0-2.1,1.15-2.1,2.92s.75,2.95,2.06,2.95c.96,0,1.51-.52,1.81-1.41h1.53Z"/>
    <path class="st0" d="M176.24,83.01c-.33,1.37-1.26,2.67-3.37,2.67-2.26,0-3.62-1.62-3.62-4.16,0-2.29,1.32-4.25,3.72-4.25s3.18,1.71,3.27,2.72h-1.53c-.19-.79-.67-1.44-1.77-1.44-1.34,0-2.1,1.15-2.1,2.92s.75,2.95,2.06,2.95c.96,0,1.51-.52,1.81-1.41h1.53Z"/>
    <path class="st0" d="M184,83.68c0,.74.06,1.59.11,1.81h-1.48c-.06-.17-.11-.56-.13-1-.28.52-.9,1.19-2.43,1.19-1.9,0-2.71-1.24-2.71-2.46,0-1.8,1.42-2.62,3.8-2.62h1.33v-.65c0-.68-.22-1.49-1.63-1.49-1.26,0-1.49.61-1.62,1.23h-1.49c.11-1.17.83-2.42,3.16-2.42,2,0,3.1.81,3.1,2.66v3.75ZM182.49,81.63h-1.22c-1.55,0-2.34.44-2.34,1.5,0,.79.53,1.37,1.48,1.37,1.83,0,2.08-1.24,2.08-2.62v-.25Z"/>
    <path class="st0" d="M186.31,79.49c0-.69,0-1.41-.02-2.02h1.5c.04.23.06,1.02.06,1.26.31-.65.96-1.45,2.49-1.45s2.68.95,2.68,3.06v5.15h-1.55v-4.96c0-1.15-.44-1.94-1.62-1.94-1.4,0-2,1.03-2,2.6v4.29h-1.55v-6Z"/>
    <path class="st0" d="M195.31,73.93h1.55v1.78h-1.55v-1.78ZM195.31,77.47h1.55v8.02h-1.55v-8.02Z"/>
    <path class="st0" d="M205.61,83.01c-.33,1.37-1.26,2.67-3.37,2.67-2.26,0-3.62-1.62-3.62-4.16,0-2.29,1.32-4.25,3.72-4.25s3.18,1.71,3.27,2.72h-1.53c-.19-.79-.67-1.44-1.77-1.44-1.34,0-2.1,1.15-2.1,2.92s.75,2.95,2.06,2.95c.96,0,1.51-.52,1.81-1.41h1.53Z"/>
    <path class="st0" d="M213.37,83.68c0,.74.06,1.59.11,1.81h-1.48c-.06-.17-.11-.56-.13-1-.28.52-.9,1.19-2.43,1.19-1.9,0-2.71-1.24-2.71-2.46,0-1.8,1.42-2.62,3.8-2.62h1.33v-.65c0-.68-.22-1.49-1.63-1.49-1.26,0-1.49.61-1.62,1.23h-1.49c.11-1.17.83-2.42,3.16-2.42,2,0,3.1.81,3.1,2.66v3.75ZM211.86,81.63h-1.22c-1.55,0-2.34.44-2.34,1.5,0,.79.53,1.37,1.48,1.37,1.83,0,2.08-1.24,2.08-2.62v-.25Z"/>
    <path class="st0" d="M214.46,87.3c.84-1.82,1.06-3.2,1.13-4.22h1.58c-.14,1.44-.65,3.09-1.46,4.22h-1.25Z"/>
    <path class="st0" d="M232.59,80.93c0-2,.02-4.07.07-5.24h-.06c-.48,1.86-2.12,6.36-3.34,9.8h-1.44c-.92-2.84-2.62-7.9-3.11-9.82h-.05c.09,1.27.12,3.67.12,5.54v4.28h-1.52v-10.95h2.42c1.17,3.3,2.58,7.53,2.95,8.97h.02c.26-1.13,1.94-5.75,3.16-8.97h2.35v10.95h-1.58v-4.56Z"/>
    <path class="st0" d="M237.62,81.78c0,1.51.77,2.63,2.08,2.63,1.2,0,1.58-.6,1.83-1.17h1.56c-.31,1.02-1.17,2.44-3.43,2.44-2.55,0-3.6-2.04-3.6-4.11,0-2.41,1.22-4.29,3.69-4.29,2.62,0,3.49,2.06,3.49,3.83,0,.25,0,.45-.02.67h-5.59ZM241.66,80.72c-.02-1.25-.62-2.25-1.94-2.25s-1.93.93-2.06,2.25h4Z"/>
    <path class="st0" d="M251.51,83.01c-.33,1.37-1.26,2.67-3.37,2.67-2.26,0-3.62-1.62-3.62-4.16,0-2.29,1.32-4.25,3.72-4.25s3.18,1.71,3.27,2.72h-1.53c-.19-.79-.67-1.44-1.77-1.44-1.34,0-2.1,1.15-2.1,2.92s.75,2.95,2.06,2.95c.96,0,1.51-.52,1.81-1.41h1.54Z"/>
    <path class="st0" d="M259.66,83.01c-.33,1.37-1.26,2.67-3.37,2.67-2.26,0-3.62-1.62-3.62-4.16,0-2.29,1.32-4.25,3.72-4.25s3.18,1.71,3.27,2.72h-1.53c-.19-.79-.67-1.44-1.77-1.44-1.34,0-2.1,1.15-2.1,2.92s.75,2.95,2.06,2.95c.96,0,1.51-.52,1.81-1.41h1.54Z"/>
    <path class="st0" d="M267.42,83.68c0,.74.06,1.59.11,1.81h-1.48c-.06-.17-.11-.56-.13-1-.28.52-.9,1.19-2.43,1.19-1.9,0-2.71-1.24-2.71-2.46,0-1.8,1.42-2.62,3.8-2.62h1.33v-.65c0-.68-.22-1.49-1.63-1.49-1.26,0-1.48.61-1.62,1.23h-1.49c.11-1.17.83-2.42,3.16-2.42,2,0,3.1.81,3.1,2.66v3.75ZM265.91,81.63h-1.22c-1.55,0-2.34.44-2.34,1.5,0,.79.53,1.37,1.48,1.37,1.83,0,2.08-1.24,2.08-2.62v-.25Z"/>
    <path class="st0" d="M268.62,77.47h1.36v-2.33h1.55v2.33h1.73v1.24h-1.73v4.56c0,.75.19,1.12.9,1.12.18,0,.45,0,.66-.06v1.14c-.36.13-.86.15-1.26.15-1.31,0-1.86-.68-1.86-2.03v-4.87h-1.36v-1.24Z"/>
    <path class="st0" d="M274.65,79.65c0-1.06,0-1.71-.02-2.18h1.52c.02.22.05.88.05,1.59.41-1.05,1.34-1.75,2.68-1.78v1.52c-1.64.03-2.68.81-2.68,2.87v3.82h-1.55v-5.84Z"/>
    <path class="st0" d="M287.21,81.46c0,2.33-1.35,4.22-3.82,4.22-2.34,0-3.74-1.78-3.74-4.19s1.39-4.22,3.83-4.22c2.25,0,3.73,1.67,3.73,4.19ZM281.24,81.48c0,1.72.84,2.93,2.21,2.93s2.18-1.16,2.18-2.92-.78-2.94-2.21-2.94-2.17,1.12-2.17,2.93Z"/>
    <path class="st0" d="M288.96,79.49c0-.69,0-1.41-.02-2.02h1.5c.04.23.06,1.02.06,1.26.31-.65.96-1.45,2.49-1.45s2.68.95,2.68,3.06v5.15h-1.55v-4.96c0-1.15-.44-1.94-1.62-1.94-1.4,0-2,1.03-2,2.6v4.29h-1.55v-6Z"/>
    <path class="st0" d="M297.95,73.93h1.55v1.78h-1.55v-1.78ZM297.95,77.47h1.55v8.02h-1.55v-8.02Z"/>
    <path class="st0" d="M308.25,83.01c-.33,1.37-1.26,2.67-3.37,2.67-2.26,0-3.62-1.62-3.62-4.16,0-2.29,1.32-4.25,3.72-4.25s3.18,1.71,3.27,2.72h-1.53c-.19-.79-.67-1.44-1.77-1.44-1.34,0-2.1,1.15-2.1,2.92s.75,2.95,2.06,2.95c.96,0,1.51-.52,1.81-1.41h1.53Z"/>
    <path class="st0" d="M316.01,83.68c0,.74.06,1.59.11,1.81h-1.48c-.06-.17-.11-.56-.13-1-.28.52-.9,1.19-2.43,1.19-1.9,0-2.71-1.24-2.71-2.46,0-1.8,1.42-2.62,3.8-2.62h1.33v-.65c0-.68-.22-1.49-1.63-1.49-1.26,0-1.48.61-1.62,1.23h-1.49c.11-1.17.83-2.42,3.16-2.42,2,0,3.1.81,3.1,2.66v3.75ZM314.5,81.63h-1.22c-1.55,0-2.34.44-2.34,1.5,0,.79.53,1.37,1.48,1.37,1.83,0,2.07-1.24,2.07-2.62v-.25Z"/>
    <path class="st0" d="M323.29,81.78c0,1.51.77,2.63,2.08,2.63,1.2,0,1.58-.6,1.83-1.17h1.56c-.31,1.02-1.17,2.44-3.43,2.44-2.55,0-3.6-2.04-3.6-4.11,0-2.41,1.22-4.29,3.69-4.29,2.62,0,3.49,2.06,3.49,3.83,0,.25,0,.45-.02.67h-5.58ZM327.34,80.72c-.02-1.25-.62-2.25-1.94-2.25s-1.93.93-2.06,2.25h4Z"/>
    <path class="st0" d="M337.54,73.93v9.3c0,.75,0,1.49.02,2.26h-1.49c-.04-.22-.07-.79-.08-1.08-.39.8-1.18,1.27-2.48,1.27-2.06,0-3.33-1.66-3.33-4.12s1.37-4.28,3.6-4.28c1.37,0,2,.54,2.21.97v-4.32h1.55ZM331.79,81.51c0,1.87.86,2.87,2.09,2.87,1.81,0,2.17-1.36,2.17-3s-.34-2.81-2.08-2.81c-1.37,0-2.19,1.08-2.19,2.94Z"/>
    <path class="st0" d="M351.05,80.45h-5.41v3.67h5.94l-.2,1.38h-7.33v-10.95h7.25v1.38h-5.66v3.15h5.41v1.38Z"/>
    <path class="st0" d="M353.18,79.49c0-.69,0-1.41-.02-2.02h1.5c.04.23.06,1.02.06,1.26.31-.65.96-1.45,2.49-1.45s2.68.95,2.68,3.06v5.15h-1.55v-4.96c0-1.15-.44-1.94-1.62-1.94-1.4,0-2,1.03-2,2.6v4.29h-1.55v-6Z"/>
    <path class="st0" d="M363.19,81.78c0,1.51.77,2.63,2.08,2.63,1.2,0,1.58-.6,1.83-1.17h1.56c-.31,1.02-1.17,2.44-3.43,2.44-2.55,0-3.6-2.04-3.6-4.11,0-2.41,1.22-4.29,3.69-4.29,2.62,0,3.49,2.06,3.49,3.83,0,.25,0,.45-.02.67h-5.58ZM367.23,80.72c-.02-1.25-.62-2.25-1.94-2.25s-1.93.93-2.06,2.25h4Z"/>
    <path class="st0" d="M370.53,79.65c0-1.06,0-1.71-.02-2.18h1.52c.02.22.05.88.05,1.59.41-1.05,1.34-1.75,2.68-1.78v1.52c-1.64.03-2.68.81-2.68,2.87v3.82h-1.55v-5.84Z"/>
    <path class="st0" d="M382.76,84.72c0,2.57-1.04,4.07-3.74,4.07-2.53,0-3.24-1.42-3.38-2.47h1.58c.22.82.87,1.26,1.87,1.26,1.75,0,2.17-1.1,2.17-2.9v-.6c-.42.86-1.15,1.35-2.46,1.35-2,0-3.32-1.63-3.32-3.95,0-2.6,1.52-4.22,3.47-4.22,1.5,0,2.14.71,2.31,1.21.02-.33.05-.86.07-1.02h1.46c0,.51-.02,1.54-.02,2.31v4.94ZM377.07,81.43c0,1.63.84,2.72,2.09,2.72,1.66,0,2.13-1.12,2.13-2.81s-.43-2.76-2.08-2.76c-1.38,0-2.14,1.14-2.14,2.86Z"/>
    <path class="st0" d="M385.05,73.93h1.55v1.78h-1.55v-1.78ZM385.05,77.47h1.55v8.02h-1.55v-8.02Z"/>
    <path class="st0" d="M394.91,83.68c0,.74.06,1.59.11,1.81h-1.48c-.06-.17-.11-.56-.13-1-.28.52-.9,1.19-2.43,1.19-1.9,0-2.71-1.24-2.71-2.46,0-1.8,1.42-2.62,3.8-2.62h1.33v-.65c0-.68-.22-1.49-1.63-1.49-1.26,0-1.48.61-1.62,1.23h-1.49c.11-1.17.83-2.42,3.16-2.42,2,0,3.1.81,3.1,2.66v3.75ZM393.4,81.63h-1.22c-1.55,0-2.34.44-2.34,1.5,0,.79.53,1.37,1.48,1.37,1.83,0,2.07-1.24,2.07-2.62v-.25Z"/>
    <path class="st0" d="M10.5,99.37h-5.41v3.67h5.94l-.21,1.38H3.5v-10.95h7.25v1.38h-5.66v3.15h5.41v1.38Z"/>
    <path class="st0" d="M12.57,104.41v-11.56h1.55v11.56h-1.55Z"/>
    <path class="st0" d="M17.43,100.7c0,1.51.77,2.63,2.08,2.63,1.2,0,1.58-.6,1.83-1.17h1.56c-.31,1.02-1.17,2.44-3.43,2.44-2.55,0-3.6-2.04-3.6-4.11,0-2.41,1.22-4.29,3.69-4.29,2.62,0,3.49,2.06,3.49,3.83,0,.25,0,.45-.02.67h-5.59ZM21.47,99.64c-.02-1.25-.62-2.25-1.94-2.25s-1.93.93-2.06,2.25h4Z"/>
    <path class="st0" d="M23.84,96.39h1.36v-2.33h1.55v2.33h1.73v1.24h-1.73v4.56c0,.75.19,1.12.9,1.12.18,0,.45,0,.66-.06v1.14c-.36.13-.86.15-1.26.15-1.31,0-1.86-.68-1.86-2.03v-4.87h-1.36v-1.24Z"/>
    <path class="st0" d="M28.68,96.39h1.36v-2.33h1.55v2.33h1.73v1.24h-1.73v4.56c0,.75.19,1.12.9,1.12.18,0,.45,0,.66-.06v1.14c-.36.13-.86.15-1.26.15-1.31,0-1.86-.68-1.86-2.03v-4.87h-1.36v-1.24Z"/>
    <path class="st0" d="M34.71,98.57c0-1.06,0-1.71-.02-2.18h1.52c.02.22.05.88.05,1.59.41-1.05,1.34-1.75,2.68-1.78v1.52c-1.64.03-2.68.81-2.68,2.87v3.82h-1.55v-5.84Z"/>
    <path class="st0" d="M47.26,100.38c0,2.33-1.35,4.22-3.82,4.22-2.33,0-3.74-1.78-3.74-4.19s1.39-4.22,3.83-4.22c2.25,0,3.73,1.67,3.73,4.19ZM41.29,100.4c0,1.72.84,2.93,2.21,2.93s2.18-1.16,2.18-2.92-.78-2.94-2.21-2.94-2.17,1.12-2.17,2.93Z"/>
    <path class="st0" d="M49.02,98.41c0-.69,0-1.41-.02-2.02h1.5c.04.23.06,1.02.06,1.26.31-.65.96-1.45,2.49-1.45s2.68.95,2.68,3.06v5.15h-1.55v-4.96c0-1.15-.44-1.94-1.62-1.94-1.4,0-2,1.03-2,2.6v4.29h-1.55v-6Z"/>
    <path class="st0" d="M58.01,92.85h1.55v1.78h-1.55v-1.78ZM58.01,96.39h1.55v8.02h-1.55v-8.02Z"/>
    <path class="st0" d="M68.31,101.93c-.33,1.37-1.26,2.67-3.37,2.67-2.26,0-3.62-1.62-3.62-4.16,0-2.29,1.32-4.25,3.72-4.25s3.18,1.71,3.27,2.72h-1.53c-.19-.79-.67-1.44-1.77-1.44-1.34,0-2.1,1.15-2.1,2.92s.75,2.95,2.06,2.95c.96,0,1.51-.52,1.81-1.41h1.54Z"/>
    <path class="st0" d="M76.07,102.6c0,.74.06,1.59.11,1.81h-1.48c-.06-.17-.11-.56-.13-1-.28.52-.9,1.19-2.43,1.19-1.9,0-2.71-1.24-2.71-2.46,0-1.8,1.42-2.62,3.8-2.62h1.33v-.65c0-.68-.22-1.49-1.63-1.49-1.26,0-1.49.61-1.62,1.23h-1.49c.11-1.17.83-2.42,3.16-2.42,2,0,3.1.81,3.1,2.66v3.75ZM74.56,100.55h-1.22c-1.55,0-2.34.44-2.34,1.5,0,.79.53,1.37,1.48,1.37,1.83,0,2.08-1.24,2.08-2.62v-.25Z"/>
    <path class="st0" d="M83.35,100.7c0,1.51.77,2.63,2.08,2.63,1.2,0,1.58-.6,1.83-1.17h1.56c-.31,1.02-1.17,2.44-3.43,2.44-2.55,0-3.6-2.04-3.6-4.11,0-2.41,1.22-4.29,3.69-4.29,2.62,0,3.49,2.06,3.49,3.83,0,.25,0,.45-.02.67h-5.59ZM87.4,99.64c-.02-1.25-.62-2.25-1.94-2.25s-1.93.93-2.06,2.25h4Z"/>
    <path class="st0" d="M97.6,92.85v9.3c0,.75,0,1.49.02,2.26h-1.49c-.04-.22-.07-.79-.08-1.08-.39.8-1.18,1.27-2.48,1.27-2.06,0-3.33-1.66-3.33-4.12s1.37-4.28,3.6-4.28c1.37,0,2,.54,2.21.97v-4.32h1.55ZM91.85,100.44c0,1.87.86,2.87,2.09,2.87,1.81,0,2.17-1.36,2.17-3s-.34-2.81-2.08-2.81c-1.37,0-2.19,1.08-2.19,2.94Z"/>
    <path class="st0" d="M111.11,99.37h-5.4v3.67h5.94l-.21,1.38h-7.32v-10.95h7.25v1.38h-5.66v3.15h5.4v1.38Z"/>
    <path class="st0" d="M113.18,104.41v-11.56h1.55v11.56h-1.55Z"/>
    <path class="st0" d="M118.04,100.7c0,1.51.77,2.63,2.08,2.63,1.2,0,1.58-.6,1.83-1.17h1.56c-.31,1.02-1.17,2.44-3.43,2.44-2.55,0-3.6-2.04-3.6-4.11,0-2.41,1.22-4.29,3.69-4.29,2.62,0,3.49,2.06,3.49,3.83,0,.25,0,.45-.02.67h-5.59ZM122.08,99.64c-.02-1.25-.62-2.25-1.94-2.25s-1.93.93-2.06,2.25h4Z"/>
    <path class="st0" d="M124.45,96.39h1.36v-2.33h1.55v2.33h1.73v1.24h-1.73v4.56c0,.75.19,1.12.9,1.12.18,0,.45,0,.66-.06v1.14c-.36.13-.86.15-1.26.15-1.31,0-1.86-.68-1.86-2.03v-4.87h-1.36v-1.24Z"/>
    <path class="st0" d="M129.29,96.39h1.36v-2.33h1.55v2.33h1.73v1.24h-1.73v4.56c0,.75.19,1.12.9,1.12.18,0,.45,0,.66-.06v1.14c-.36.13-.86.15-1.26.15-1.31,0-1.86-.68-1.86-2.03v-4.87h-1.36v-1.24Z"/>
    <path class="st0" d="M135.32,98.57c0-1.06,0-1.71-.02-2.18h1.52c.02.22.05.88.05,1.59.41-1.05,1.34-1.75,2.68-1.78v1.52c-1.64.03-2.68.81-2.68,2.87v3.82h-1.55v-5.84Z"/>
    <path class="st0" d="M147.88,100.38c0,2.33-1.35,4.22-3.82,4.22-2.34,0-3.74-1.78-3.74-4.19s1.39-4.22,3.83-4.22c2.25,0,3.73,1.67,3.73,4.19ZM141.9,100.4c0,1.72.84,2.93,2.21,2.93s2.18-1.16,2.18-2.92-.78-2.94-2.21-2.94-2.18,1.12-2.18,2.93Z"/>
    <path class="st0" d="M148.62,96.39h1.36v-2.33h1.55v2.33h1.73v1.24h-1.73v4.56c0,.75.19,1.12.9,1.12.18,0,.45,0,.66-.06v1.14c-.36.13-.86.15-1.26.15-1.31,0-1.86-.68-1.86-2.03v-4.87h-1.36v-1.24Z"/>
    <path class="st0" d="M155.64,100.7c0,1.51.77,2.63,2.08,2.63,1.2,0,1.58-.6,1.83-1.17h1.56c-.31,1.02-1.17,2.44-3.43,2.44-2.55,0-3.6-2.04-3.6-4.11,0-2.41,1.22-4.29,3.69-4.29,2.62,0,3.49,2.06,3.49,3.83,0,.25,0,.45-.02.67h-5.59ZM159.69,99.64c-.02-1.25-.62-2.25-1.94-2.25s-1.93.93-2.06,2.25h4Z"/>
    <path class="st0" d="M169.54,101.93c-.33,1.37-1.26,2.67-3.37,2.67-2.26,0-3.62-1.62-3.62-4.16,0-2.29,1.32-4.25,3.72-4.25s3.18,1.71,3.27,2.72h-1.53c-.19-.79-.67-1.44-1.77-1.44-1.34,0-2.1,1.15-2.1,2.92s.75,2.95,2.06,2.95c.96,0,1.51-.52,1.81-1.41h1.54Z"/>
    <path class="st0" d="M171.16,98.41c0-.69,0-1.41-.02-2.02h1.5c.04.23.06,1.02.06,1.26.31-.65.96-1.45,2.49-1.45s2.68.95,2.68,3.06v5.15h-1.55v-4.96c0-1.15-.44-1.94-1.62-1.94-1.4,0-2,1.03-2,2.6v4.29h-1.55v-6Z"/>
    <path class="st0" d="M180.16,92.85h1.55v1.78h-1.55v-1.78ZM180.16,96.39h1.55v8.02h-1.55v-8.02Z"/>
    <path class="st0" d="M190.46,101.93c-.33,1.37-1.26,2.67-3.37,2.67-2.26,0-3.62-1.62-3.62-4.16,0-2.29,1.32-4.25,3.72-4.25s3.18,1.71,3.27,2.72h-1.53c-.19-.79-.67-1.44-1.77-1.44-1.34,0-2.1,1.15-2.1,2.92s.75,2.95,2.06,2.95c.96,0,1.51-.52,1.81-1.41h1.54Z"/>
    <path class="st0" d="M198.22,102.6c0,.74.06,1.59.11,1.81h-1.48c-.06-.17-.11-.56-.13-1-.28.52-.9,1.19-2.43,1.19-1.9,0-2.71-1.24-2.71-2.46,0-1.8,1.42-2.62,3.8-2.62h1.33v-.65c0-.68-.22-1.49-1.63-1.49-1.26,0-1.48.61-1.62,1.23h-1.49c.11-1.17.83-2.42,3.16-2.42,2,0,3.1.81,3.1,2.66v3.75ZM196.71,100.55h-1.22c-1.55,0-2.34.44-2.34,1.5,0,.79.53,1.37,1.48,1.37,1.83,0,2.08-1.24,2.08-2.62v-.25Z"/>
    <path class="st0" d="M208.42,99.68v1.39h-4.19v-1.39h4.19Z"/>
    <path class="st0" d="M216.31,93.47v10.95h-1.62v-10.95h1.62Z"/>
    <path class="st0" d="M218.7,98.41c0-.69,0-1.41-.02-2.02h1.5c.04.23.06,1.02.06,1.26.31-.65.96-1.45,2.49-1.45s2.68.95,2.68,3.06v5.15h-1.55v-4.96c0-1.15-.44-1.94-1.62-1.94-1.4,0-2,1.03-2,2.6v4.29h-1.55v-6Z"/>
    <path class="st0" d="M227.95,104.41v-6.79h-1.27v-1.24h1.27v-.91c0-1.51.62-2.78,2.38-2.78.31,0,.72.04.92.1v1.29c-.18-.04-.45-.07-.66-.07-.79,0-1.09.45-1.09,1.56v.81h1.57v1.24h-1.57v6.79h-1.55Z"/>
    <path class="st0" d="M239.21,100.38c0,2.33-1.35,4.22-3.82,4.22-2.34,0-3.74-1.78-3.74-4.19s1.39-4.22,3.83-4.22c2.25,0,3.73,1.67,3.73,4.19ZM233.24,100.4c0,1.72.84,2.93,2.21,2.93s2.18-1.16,2.18-2.92-.78-2.94-2.21-2.94-2.18,1.12-2.18,2.93Z"/>
    <path class="st0" d="M240.96,98.57c0-1.06,0-1.71-.02-2.18h1.52c.02.22.05.88.05,1.59.41-1.05,1.34-1.75,2.68-1.78v1.52c-1.64.03-2.68.81-2.68,2.87v3.82h-1.55v-5.84Z"/>
    <path class="st0" d="M246.48,98.46c0-.69,0-1.41-.02-2.07h1.49c.02.23.06.79.06,1.18.37-.7,1.06-1.37,2.31-1.37,1.14,0,1.89.58,2.19,1.4.44-.74,1.18-1.4,2.54-1.4s2.53.79,2.53,2.94v5.27h-1.52v-5.08c0-.89-.32-1.82-1.51-1.82s-1.76.92-1.76,2.3v4.6h-1.52v-5.03c0-.99-.28-1.86-1.47-1.86s-1.8.95-1.8,2.45v4.45h-1.53v-5.96Z"/>
    <path class="st0" d="M265.91,102.6c0,.74.06,1.59.11,1.81h-1.48c-.06-.17-.11-.56-.13-1-.28.52-.9,1.19-2.43,1.19-1.9,0-2.71-1.24-2.71-2.46,0-1.8,1.42-2.62,3.8-2.62h1.33v-.65c0-.68-.22-1.49-1.63-1.49-1.26,0-1.49.61-1.62,1.23h-1.49c.11-1.17.83-2.42,3.16-2.42,2,0,3.1.81,3.1,2.66v3.75ZM264.4,100.55h-1.22c-1.55,0-2.34.44-2.34,1.5,0,.79.53,1.37,1.48,1.37,1.83,0,2.08-1.24,2.08-2.62v-.25Z"/>
    <path class="st0" d="M267.11,96.39h1.36v-2.33h1.55v2.33h1.73v1.24h-1.73v4.56c0,.75.19,1.12.9,1.12.18,0,.45,0,.66-.06v1.14c-.36.13-.86.15-1.26.15-1.31,0-1.86-.68-1.86-2.03v-4.87h-1.36v-1.24Z"/>
    <path class="st0" d="M273.17,92.85h1.55v1.78h-1.55v-1.78ZM273.17,96.39h1.55v8.02h-1.55v-8.02Z"/>
    <path class="st0" d="M283.47,101.93c-.33,1.37-1.26,2.67-3.37,2.67-2.26,0-3.62-1.62-3.62-4.16,0-2.29,1.32-4.25,3.72-4.25s3.18,1.71,3.27,2.72h-1.53c-.19-.79-.67-1.44-1.77-1.44-1.34,0-2.1,1.15-2.1,2.92s.75,2.95,2.06,2.95c.96,0,1.51-.52,1.81-1.41h1.53Z"/>
    <path class="st0" d="M291.23,102.6c0,.74.06,1.59.11,1.81h-1.48c-.06-.17-.11-.56-.13-1-.28.52-.9,1.19-2.43,1.19-1.9,0-2.71-1.24-2.71-2.46,0-1.8,1.42-2.62,3.8-2.62h1.33v-.65c0-.68-.22-1.49-1.63-1.49-1.26,0-1.48.61-1.62,1.23h-1.49c.11-1.17.83-2.42,3.16-2.42,2,0,3.1.81,3.1,2.66v3.75ZM289.72,100.55h-1.22c-1.55,0-2.34.44-2.34,1.5,0,.79.53,1.37,1.48,1.37,1.83,0,2.07-1.24,2.07-2.62v-.25Z"/>
    <path class="st0" d="M298.51,100.7c0,1.51.77,2.63,2.08,2.63,1.2,0,1.58-.6,1.83-1.17h1.56c-.31,1.02-1.17,2.44-3.43,2.44-2.55,0-3.6-2.04-3.6-4.11,0-2.41,1.22-4.29,3.69-4.29,2.62,0,3.49,2.06,3.49,3.83,0,.25,0,.45-.02.67h-5.58ZM302.55,99.64c-.02-1.25-.62-2.25-1.94-2.25s-1.93.93-2.06,2.25h4Z"/>
    <path class="st0" d="M312.2,94.84h-3.5v-1.38h8.63v1.38h-3.5v9.57h-1.63v-9.57Z"/>
    <path class="st0" d="M318.08,100.7c0,1.51.77,2.63,2.08,2.63,1.2,0,1.58-.6,1.83-1.17h1.56c-.31,1.02-1.17,2.44-3.43,2.44-2.55,0-3.6-2.04-3.6-4.11,0-2.41,1.22-4.29,3.69-4.29,2.62,0,3.49,2.06,3.49,3.83,0,.25,0,.45-.02.67h-5.58ZM322.12,99.64c-.02-1.25-.62-2.25-1.94-2.25s-1.93.93-2.06,2.25h4Z"/>
    <path class="st0" d="M325.44,104.41v-11.56h1.55v11.56h-1.55Z"/>
    <path class="st0" d="M330.3,100.7c0,1.51.77,2.63,2.08,2.63,1.2,0,1.58-.6,1.83-1.17h1.56c-.31,1.02-1.17,2.44-3.43,2.44-2.55,0-3.6-2.04-3.6-4.11,0-2.41,1.22-4.29,3.69-4.29,2.62,0,3.49,2.06,3.49,3.83,0,.25,0,.45-.02.67h-5.58ZM334.34,99.64c-.02-1.25-.62-2.25-1.94-2.25s-1.93.93-2.06,2.25h4Z"/>
    <path class="st0" d="M344.19,101.93c-.33,1.37-1.26,2.67-3.37,2.67-2.26,0-3.62-1.62-3.62-4.16,0-2.29,1.32-4.25,3.72-4.25s3.18,1.71,3.27,2.72h-1.53c-.19-.79-.67-1.44-1.77-1.44-1.34,0-2.1,1.15-2.1,2.92s.75,2.95,2.06,2.95c.96,0,1.51-.52,1.81-1.41h1.53Z"/>
    <path class="st0" d="M352.89,100.38c0,2.33-1.35,4.22-3.82,4.22-2.34,0-3.74-1.78-3.74-4.19s1.39-4.22,3.83-4.22c2.25,0,3.73,1.67,3.73,4.19ZM346.92,100.4c0,1.72.84,2.93,2.21,2.93s2.18-1.16,2.18-2.92-.78-2.94-2.21-2.94-2.17,1.12-2.17,2.93Z"/>
    <path class="st0" d="M354.64,98.46c0-.69,0-1.41-.02-2.07h1.49c.02.23.06.79.06,1.18.37-.7,1.06-1.37,2.31-1.37,1.14,0,1.89.58,2.19,1.4.44-.74,1.18-1.4,2.54-1.4s2.53.79,2.53,2.94v5.27h-1.52v-5.08c0-.89-.32-1.82-1.51-1.82s-1.76.92-1.76,2.3v4.6h-1.52v-5.03c0-.99-.28-1.86-1.47-1.86s-1.8.95-1.8,2.45v4.45h-1.53v-5.96Z"/>
    <path class="st0" d="M374.55,102.08c0,.78,0,1.82.02,2.34h-1.51c-.03-.21-.05-.69-.05-1.15-.41.87-1.17,1.34-2.39,1.34-1.41,0-2.66-.74-2.66-2.95v-5.27h1.54v4.94c0,1.02.32,1.95,1.58,1.95,1.39,0,1.93-.76,1.93-2.69v-4.2h1.55v5.69Z"/>
    <path class="st0" d="M376.86,98.41c0-.69,0-1.41-.02-2.02h1.5c.04.23.06,1.02.06,1.26.31-.65.96-1.45,2.49-1.45s2.68.95,2.68,3.06v5.15h-1.55v-4.96c0-1.15-.44-1.94-1.62-1.94-1.4,0-2,1.03-2,2.6v4.29h-1.55v-6Z"/>
    <path class="st0" d="M385.86,92.85h1.55v1.78h-1.55v-1.78ZM385.86,96.39h1.55v8.02h-1.55v-8.02Z"/>
    <path class="st0" d="M396.16,101.93c-.33,1.37-1.26,2.67-3.37,2.67-2.26,0-3.62-1.62-3.62-4.16,0-2.29,1.32-4.25,3.72-4.25s3.18,1.71,3.27,2.72h-1.53c-.19-.79-.67-1.44-1.77-1.44-1.34,0-2.1,1.15-2.1,2.92s.75,2.95,2.06,2.95c.96,0,1.51-.52,1.81-1.41h1.53Z"/>
    <path class="st0" d="M403.92,102.6c0,.74.06,1.59.11,1.81h-1.48c-.06-.17-.11-.56-.13-1-.28.52-.9,1.19-2.43,1.19-1.9,0-2.71-1.24-2.71-2.46,0-1.8,1.42-2.62,3.8-2.62h1.33v-.65c0-.68-.22-1.49-1.63-1.49-1.26,0-1.48.61-1.62,1.23h-1.49c.11-1.17.83-2.42,3.16-2.42,2,0,3.1.81,3.1,2.66v3.75ZM402.41,100.55h-1.22c-1.55,0-2.34.44-2.34,1.5,0,.79.53,1.37,1.48,1.37,1.83,0,2.07-1.24,2.07-2.62v-.25Z"/>
    <path class="st0" d="M405.43,103.19l4.49-5.52h-4.27v-1.28h6.03v1.27l-4.42,5.47h4.65l-.23,1.28h-6.25v-1.23Z"/>
    <path class="st0" d="M413.36,92.85h1.55v1.78h-1.55v-1.78ZM413.36,96.39h1.55v8.02h-1.55v-8.02Z"/>
    <path class="st0" d="M424.21,100.38c0,2.33-1.35,4.22-3.82,4.22-2.34,0-3.74-1.78-3.74-4.19s1.39-4.22,3.83-4.22c2.25,0,3.73,1.67,3.73,4.19ZM418.24,100.4c0,1.72.84,2.93,2.21,2.93s2.18-1.16,2.18-2.92-.78-2.94-2.21-2.94-2.17,1.12-2.17,2.93Z"/>
    <path class="st0" d="M425.96,98.41c0-.69,0-1.41-.02-2.02h1.5c.04.23.06,1.02.06,1.26.31-.65.96-1.45,2.49-1.45s2.68.95,2.68,3.06v5.15h-1.55v-4.96c0-1.15-.44-1.94-1.62-1.94-1.4,0-2,1.03-2,2.6v4.29h-1.55v-6Z"/>
    <path class="st0" d="M434.96,92.85h1.55v1.78h-1.55v-1.78ZM434.96,96.39h1.55v8.02h-1.55v-8.02Z"/>
    <path class="st0" d="M446.69,99.68v1.39h-4.19v-1.39h4.19Z"/>
    <path class="st0" d="M461.96,104.41h-1.23c-.08-.23-.12-.7-.15-1.41-.5.79-1.47,1.56-3.36,1.56-3.16,0-4.86-2.4-4.86-5.51,0-3.28,1.82-5.75,5.15-5.75,2.59,0,4.21,1.42,4.51,3.36h-1.62c-.34-1.13-1.17-2.02-2.92-2.02-2.49,0-3.42,2-3.42,4.34,0,2.19.96,4.24,3.38,4.24s2.94-1.59,2.94-3.27v-.11h-2.95v-1.38h4.54v5.95Z"/>
    <path class="st0" d="M464.27,98.57c0-1.06,0-1.71-.02-2.18h1.52c.02.22.05.88.05,1.59.41-1.05,1.34-1.75,2.68-1.78v1.52c-1.64.03-2.68.81-2.68,2.87v3.82h-1.55v-5.84Z"/>
    <path class="st0" d="M475.78,102.6c0,.74.06,1.59.11,1.81h-1.48c-.06-.17-.11-.56-.13-1-.28.52-.9,1.19-2.43,1.19-1.9,0-2.71-1.24-2.71-2.46,0-1.8,1.42-2.62,3.8-2.62h1.33v-.65c0-.68-.22-1.49-1.63-1.49-1.26,0-1.48.61-1.62,1.23h-1.49c.11-1.17.83-2.42,3.16-2.42,2,0,3.1.81,3.1,2.66v3.75ZM474.27,100.55h-1.22c-1.55,0-2.34.44-2.34,1.5,0,.79.53,1.37,1.48,1.37,1.83,0,2.07-1.24,2.07-2.62v-.25Z"/>
    <path class="st0" d="M478.27,104.41v-6.79h-1.27v-1.24h1.27v-.91c0-1.51.61-2.78,2.38-2.78.31,0,.72.04.92.1v1.29c-.18-.04-.45-.07-.66-.07-.79,0-1.09.45-1.09,1.56v.81h1.57v1.24h-1.57v6.79h-1.55Z"/>
    <path class="st0" d="M482.68,92.85h1.55v1.78h-1.55v-1.78ZM482.68,96.39h1.55v8.02h-1.55v-8.02Z"/>
    <path class="st0" d="M492.98,101.93c-.33,1.37-1.26,2.67-3.37,2.67-2.26,0-3.62-1.62-3.62-4.16,0-2.29,1.32-4.25,3.72-4.25s3.18,1.71,3.27,2.72h-1.53c-.19-.79-.67-1.44-1.77-1.44-1.34,0-2.1,1.15-2.1,2.92s.75,2.95,2.06,2.95c.96,0,1.51-.52,1.81-1.41h1.53Z"/>
    <path class="st0" d="M500.74,102.6c0,.74.06,1.59.11,1.81h-1.48c-.06-.17-.11-.56-.13-1-.28.52-.9,1.19-2.43,1.19-1.9,0-2.71-1.24-2.71-2.46,0-1.8,1.42-2.62,3.8-2.62h1.33v-.65c0-.68-.22-1.49-1.63-1.49-1.26,0-1.48.61-1.62,1.23h-1.49c.11-1.17.83-2.42,3.16-2.42,2,0,3.1.81,3.1,2.66v3.75ZM499.23,100.55h-1.22c-1.55,0-2.34.44-2.34,1.5,0,.79.53,1.37,1.48,1.37,1.83,0,2.07-1.24,2.07-2.62v-.25Z"/>
    <path class="st0" d="M508.02,100.7c0,1.51.77,2.63,2.08,2.63,1.2,0,1.58-.6,1.83-1.17h1.56c-.31,1.02-1.17,2.44-3.43,2.44-2.55,0-3.6-2.04-3.6-4.11,0-2.41,1.22-4.29,3.69-4.29,2.62,0,3.49,2.06,3.49,3.83,0,.25,0,.45-.02.67h-5.58ZM512.07,99.64c-.02-1.25-.62-2.25-1.94-2.25s-1.93.93-2.06,2.25h4Z"/>
    <path class="st0" d="M528.29,101.26c-.48,1.89-1.89,3.3-4.42,3.3-3.31,0-4.96-2.48-4.96-5.58s1.66-5.67,5.03-5.67c2.65,0,4.05,1.52,4.36,3.35h-1.62c-.36-1.13-1.11-2.01-2.8-2.01-2.33,0-3.27,2.11-3.27,4.28s.88,4.3,3.33,4.3c1.66,0,2.35-.98,2.73-1.96h1.63Z"/>
    <path class="st0" d="M537.15,100.38c0,2.33-1.35,4.22-3.82,4.22-2.34,0-3.74-1.78-3.74-4.19s1.39-4.22,3.83-4.22c2.25,0,3.73,1.67,3.73,4.19ZM531.18,100.4c0,1.72.84,2.93,2.21,2.93s2.18-1.16,2.18-2.92-.78-2.94-2.21-2.94-2.17,1.12-2.17,2.93Z"/>
    <path class="st0" d="M538.89,98.46c0-.69,0-1.41-.02-2.07h1.49c.02.23.06.79.06,1.18.37-.7,1.06-1.37,2.31-1.37,1.14,0,1.89.58,2.19,1.4.44-.74,1.18-1.4,2.54-1.4s2.53.79,2.53,2.94v5.27h-1.52v-5.08c0-.89-.32-1.82-1.51-1.82s-1.76.92-1.76,2.3v4.6h-1.52v-5.03c0-.99-.28-1.86-1.47-1.86s-1.8.95-1.8,2.45v4.45h-1.53v-5.96Z"/>
    <path class="st0" d="M558.81,102.08c0,.78,0,1.82.02,2.34h-1.51c-.03-.21-.05-.69-.05-1.15-.41.87-1.17,1.34-2.39,1.34-1.41,0-2.66-.74-2.66-2.95v-5.27h1.54v4.94c0,1.02.32,1.95,1.58,1.95,1.39,0,1.93-.76,1.93-2.69v-4.2h1.55v5.69Z"/>
    <path class="st0" d="M561.12,98.41c0-.69,0-1.41-.02-2.02h1.5c.04.23.06,1.02.06,1.26.31-.65.96-1.45,2.49-1.45s2.68.95,2.68,3.06v5.15h-1.55v-4.96c0-1.15-.44-1.94-1.62-1.94-1.4,0-2,1.03-2,2.6v4.29h-1.55v-6Z"/>
    <path class="st0" d="M570.11,92.85h1.55v1.78h-1.55v-1.78ZM570.11,96.39h1.55v8.02h-1.55v-8.02Z"/>
    <path class="st0" d="M580.41,101.93c-.33,1.37-1.26,2.67-3.37,2.67-2.26,0-3.62-1.62-3.62-4.16,0-2.29,1.32-4.25,3.72-4.25s3.18,1.71,3.27,2.72h-1.53c-.19-.79-.67-1.44-1.77-1.44-1.34,0-2.1,1.15-2.1,2.92s.75,2.95,2.06,2.95c.96,0,1.51-.52,1.81-1.41h1.53Z"/>
    <path class="st0" d="M588.17,102.6c0,.74.06,1.59.11,1.81h-1.48c-.06-.17-.11-.56-.13-1-.28.52-.9,1.19-2.43,1.19-1.9,0-2.71-1.24-2.71-2.46,0-1.8,1.42-2.62,3.8-2.62h1.33v-.65c0-.68-.22-1.49-1.63-1.49-1.26,0-1.48.61-1.62,1.23h-1.49c.11-1.17.83-2.42,3.16-2.42,2,0,3.1.81,3.1,2.66v3.75ZM586.66,100.55h-1.22c-1.55,0-2.34.44-2.34,1.5,0,.79.53,1.37,1.48,1.37,1.83,0,2.07-1.24,2.07-2.62v-.25Z"/>
    <path class="st0" d="M589.68,103.19l4.49-5.52h-4.27v-1.28h6.03v1.27l-4.42,5.47h4.65l-.23,1.28h-6.25v-1.23Z"/>
    <path class="st0" d="M597.61,92.85h1.55v1.78h-1.55v-1.78ZM597.61,96.39h1.55v8.02h-1.55v-8.02Z"/>
    <path class="st0" d="M608.46,100.38c0,2.33-1.35,4.22-3.82,4.22-2.34,0-3.74-1.78-3.74-4.19s1.39-4.22,3.83-4.22c2.25,0,3.73,1.67,3.73,4.19ZM602.49,100.4c0,1.72.84,2.93,2.21,2.93s2.18-1.16,2.18-2.92-.78-2.94-2.21-2.94-2.17,1.12-2.17,2.93Z"/>
    <path class="st0" d="M610.21,98.41c0-.69,0-1.41-.02-2.02h1.5c.04.23.06,1.02.06,1.26.31-.65.96-1.45,2.49-1.45s2.68.95,2.68,3.06v5.15h-1.55v-4.96c0-1.15-.44-1.94-1.62-1.94-1.4,0-2,1.03-2,2.6v4.29h-1.55v-6Z"/>
    <path class="st0" d="M620.22,100.7c0,1.51.77,2.63,2.08,2.63,1.2,0,1.58-.6,1.83-1.17h1.56c-.31,1.02-1.17,2.44-3.43,2.44-2.55,0-3.6-2.04-3.6-4.11,0-2.41,1.22-4.29,3.69-4.29,2.62,0,3.49,2.06,3.49,3.83,0,.25,0,.45-.02.67h-5.58ZM624.27,99.64c-.02-1.25-.62-2.25-1.94-2.25s-1.93.93-2.06,2.25h4Z"/>
    <path class="st0" d="M3.71,120.37c.33,1.47,1.31,2.33,3.12,2.33,2.02,0,2.79-1.01,2.79-2.21s-.55-2.02-2.98-2.62c-2.33-.58-3.34-1.34-3.34-2.93,0-1.45,1.06-2.81,3.42-2.81s3.45,1.48,3.59,2.82h-.88c-.25-1.18-1.02-2.03-2.76-2.03-1.59,0-2.46.74-2.46,1.97s.73,1.69,2.76,2.19c3.11.77,3.56,2.02,3.56,3.34,0,1.62-1.18,3.03-3.74,3.03-2.76,0-3.77-1.61-3.97-3.09h.88Z"/>
    <path class="st0" d="M12.87,119.49c.02,2.03,1.04,3.29,2.55,3.29s1.99-.83,2.27-1.48h.8c-.33,1.04-1.17,2.22-3.11,2.22-2.4,0-3.33-2.07-3.33-4.07,0-2.25,1.12-4.19,3.42-4.19,2.43,0,3.2,2.1,3.2,3.58,0,.22,0,.44-.02.65h-5.8ZM17.87,118.8c-.02-1.56-.87-2.79-2.41-2.79-1.62,0-2.36,1.13-2.54,2.79h4.95Z"/>
    <path class="st0" d="M19.56,115.45h1.47v-2.46h.79v2.46h1.88v.74h-1.88v5.12c0,.88.19,1.39.95,1.39.24,0,.57-.02.82-.09v.69c-.27.11-.65.14-.98.14-1.01,0-1.58-.5-1.58-1.77v-5.49h-1.47v-.74Z"/>
    <path class="st0" d="M24.18,115.45h1.47v-2.46h.79v2.46h1.88v.74h-1.88v5.12c0,.88.19,1.39.95,1.39.24,0,.57-.02.82-.09v.69c-.27.11-.65.14-.98.14-1.01,0-1.58-.5-1.58-1.77v-5.49h-1.47v-.74Z"/>
    <path class="st0" d="M36.21,119.38c0,2.19-1.21,4.15-3.56,4.15-2.13,0-3.45-1.75-3.45-4.13,0-2.25,1.25-4.13,3.53-4.13,2.1,0,3.48,1.64,3.48,4.11ZM30.03,119.39c0,1.88,1.01,3.39,2.68,3.39s2.66-1.4,2.66-3.39c0-1.86-.95-3.39-2.7-3.39s-2.65,1.5-2.65,3.39Z"/>
    <path class="st0" d="M38.16,117.6c0-1.32-.02-1.89-.02-2.14h.77c.02.25.03.76.03,1.76.46-1.18,1.47-1.89,2.74-1.95v.85c-1.64.11-2.74,1.25-2.74,3.12v4.1h-.79v-5.74Z"/>
    <path class="st0" d="M43.32,119.49c.02,2.03,1.04,3.29,2.55,3.29s1.99-.83,2.27-1.48h.8c-.33,1.04-1.17,2.22-3.11,2.22-2.4,0-3.33-2.07-3.33-4.07,0-2.25,1.12-4.19,3.42-4.19,2.43,0,3.2,2.1,3.2,3.58,0,.22,0,.44-.02.65h-5.8ZM48.31,118.8c-.02-1.56-.87-2.79-2.41-2.79-1.62,0-2.36,1.13-2.54,2.79h4.95Z"/>
    <path class="st0" d="M55.16,123.33v-11.62h.79v11.62h-.79Z"/>
    <path class="st0" d="M58.53,111.72h.79v1.53h-.79v-1.53ZM58.53,115.45h.79v7.88h-.79v-7.88Z"/>
    <path class="st0" d="M67.71,121.02c-.38,1.39-1.29,2.51-3.06,2.51-1.97,0-3.37-1.47-3.37-4.1,0-2.16,1.15-4.16,3.47-4.16,2,0,2.82,1.42,2.96,2.52h-.8c-.24-.91-.83-1.78-2.17-1.78-1.67,0-2.62,1.42-2.62,3.39s.88,3.39,2.54,3.39c1.15,0,1.84-.58,2.25-1.77h.8Z"/>
    <path class="st0" d="M69.79,119.49c.02,2.03,1.04,3.29,2.55,3.29s1.99-.83,2.27-1.48h.8c-.33,1.04-1.17,2.22-3.11,2.22-2.4,0-3.33-2.07-3.33-4.07,0-2.25,1.12-4.19,3.42-4.19,2.43,0,3.2,2.1,3.2,3.58,0,.22,0,.44-.02.65h-5.8ZM74.79,118.8c-.02-1.56-.87-2.79-2.41-2.79-1.62,0-2.36,1.13-2.54,2.79h4.95Z"/>
    <path class="st0" d="M82.94,121.84c0,.69.06,1.25.11,1.5h-.76c-.06-.19-.11-.54-.14-1.21-.27.58-.96,1.4-2.58,1.4-1.83,0-2.62-1.18-2.62-2.36,0-1.73,1.34-2.52,3.7-2.52h1.5v-.8c0-.79-.24-1.84-2.03-1.84-1.59,0-1.83.84-2,1.48h-.79c.09-.87.63-2.21,2.81-2.21,1.8,0,2.81.76,2.81,2.49v4.08ZM82.17,119.31h-1.54c-1.75,0-2.84.46-2.84,1.81,0,.99.71,1.67,1.81,1.67,2.25,0,2.57-1.5,2.57-3.2v-.28Z"/>
    <path class="st0" d="M85.54,123.33v-11.62h.79v11.62h-.79Z"/>
    <path class="st0" d="M89.09,119.49c.02,2.03,1.04,3.29,2.55,3.29s1.99-.83,2.27-1.48h.8c-.33,1.04-1.17,2.22-3.11,2.22-2.4,0-3.33-2.07-3.33-4.07,0-2.25,1.12-4.19,3.42-4.19,2.43,0,3.2,2.1,3.2,3.58,0,.22,0,.44-.02.65h-5.8ZM94.09,118.8c-.02-1.56-.87-2.79-2.41-2.79-1.62,0-2.36,1.13-2.54,2.79h4.95Z"/>
    <path class="st0" d="M97.24,117.49v-2.03h.76v2.03h-.76ZM97.24,123.33v-2.05h.76v2.05h-.76Z"/>
    <path class="st0" d="M104.73,112.39h1.62v9.57h5.66l-.21,1.38h-7.07v-10.95Z"/>
    <path class="st0" d="M113.62,111.77h1.55v1.78h-1.55v-1.78ZM113.62,115.31h1.55v8.02h-1.55v-8.02Z"/>
    <path class="st0" d="M123.92,120.85c-.33,1.37-1.26,2.67-3.37,2.67-2.26,0-3.62-1.62-3.62-4.16,0-2.29,1.32-4.25,3.72-4.25s3.18,1.71,3.27,2.72h-1.53c-.19-.79-.67-1.44-1.77-1.44-1.34,0-2.1,1.15-2.1,2.92s.75,2.95,2.06,2.95c.96,0,1.51-.52,1.81-1.41h1.53Z"/>
    <path class="st0" d="M126.63,119.62c0,1.51.77,2.63,2.08,2.63,1.2,0,1.58-.6,1.83-1.17h1.56c-.31,1.02-1.17,2.44-3.43,2.44-2.55,0-3.6-2.04-3.6-4.11,0-2.41,1.22-4.29,3.69-4.29,2.62,0,3.49,2.06,3.49,3.83,0,.25,0,.45-.02.67h-5.59ZM130.68,118.57c-.02-1.25-.62-2.25-1.94-2.25s-1.93.93-2.06,2.25h4Z"/>
    <path class="st0" d="M141.08,119.31c0,2.33-1.35,4.22-3.82,4.22-2.34,0-3.74-1.78-3.74-4.19s1.39-4.22,3.83-4.22c2.25,0,3.73,1.67,3.73,4.19ZM135.11,119.32c0,1.72.84,2.93,2.21,2.93s2.18-1.16,2.18-2.92-.78-2.94-2.21-2.94-2.18,1.12-2.18,2.93Z"/>
    <path class="st0" d="M147.91,120.26c.29,1.27,1.17,1.94,2.69,1.94,1.62,0,2.27-.74,2.27-1.73,0-1.06-.54-1.63-2.67-2.14-2.66-.64-3.52-1.56-3.52-3.09,0-1.68,1.24-3,3.71-3,2.66,0,3.75,1.52,3.9,2.99h-1.65c-.18-.92-.75-1.7-2.31-1.7-1.26,0-1.98.56-1.98,1.55s.59,1.36,2.48,1.82c3.13.76,3.71,1.97,3.71,3.4,0,1.81-1.35,3.19-4.07,3.19s-4-1.48-4.23-3.22h1.65Z"/>
    <path class="st0" d="M162.94,120.85c-.33,1.37-1.26,2.67-3.37,2.67-2.26,0-3.62-1.62-3.62-4.16,0-2.29,1.32-4.25,3.72-4.25s3.18,1.71,3.27,2.72h-1.53c-.19-.79-.67-1.44-1.77-1.44-1.34,0-2.1,1.15-2.1,2.92s.75,2.95,2.06,2.95c.96,0,1.51-.52,1.81-1.41h1.54Z"/>
    <path class="st0" d="M164.67,111.77h1.55v1.78h-1.55v-1.78ZM164.67,115.31h1.55v8.02h-1.55v-8.02Z"/>
    <path class="st0" d="M169.53,119.62c0,1.51.77,2.63,2.08,2.63,1.2,0,1.58-.6,1.83-1.17h1.56c-.31,1.02-1.17,2.44-3.43,2.44-2.55,0-3.6-2.04-3.6-4.11,0-2.41,1.22-4.29,3.69-4.29,2.62,0,3.49,2.06,3.49,3.83,0,.25,0,.45-.02.67h-5.59ZM173.58,118.57c-.02-1.25-.62-2.25-1.94-2.25s-1.93.93-2.06,2.25h4Z"/>
    <path class="st0" d="M176.89,117.33c0-.69,0-1.41-.02-2.02h1.5c.04.23.06,1.02.06,1.26.31-.65.96-1.45,2.49-1.45s2.68.95,2.68,3.06v5.15h-1.55v-4.96c0-1.15-.44-1.94-1.62-1.94-1.4,0-2,1.03-2,2.6v4.29h-1.55v-6Z"/>
    <path class="st0" d="M184.79,115.31h1.36v-2.33h1.55v2.33h1.73v1.24h-1.73v4.56c0,.75.19,1.12.9,1.12.18,0,.45,0,.66-.06v1.14c-.36.13-.86.15-1.26.15-1.31,0-1.86-.68-1.86-2.03v-4.87h-1.36v-1.24Z"/>
    <path class="st0" d="M190.85,111.77h1.55v1.78h-1.55v-1.78ZM190.85,115.31h1.55v8.02h-1.55v-8.02Z"/>
    <path class="st0" d="M195.11,123.33v-6.79h-1.27v-1.24h1.27v-.91c0-1.51.61-2.78,2.38-2.78.31,0,.72.04.92.1v1.29c-.18-.04-.45-.07-.66-.07-.79,0-1.09.45-1.09,1.56v.81h1.57v1.24h-1.57v6.79h-1.55Z"/>
    <path class="st0" d="M199.52,111.77h1.55v1.78h-1.55v-1.78ZM199.52,115.31h1.55v8.02h-1.55v-8.02Z"/>
    <path class="st0" d="M209.82,120.85c-.33,1.37-1.26,2.67-3.37,2.67-2.26,0-3.62-1.62-3.62-4.16,0-2.29,1.32-4.25,3.72-4.25s3.18,1.71,3.27,2.72h-1.53c-.19-.79-.67-1.44-1.77-1.44-1.34,0-2.1,1.15-2.1,2.92s.75,2.95,2.06,2.95c.96,0,1.51-.52,1.81-1.41h1.54Z"/>
    <path class="st0" d="M218.53,119.31c0,2.33-1.35,4.22-3.82,4.22-2.34,0-3.74-1.78-3.74-4.19s1.39-4.22,3.83-4.22c2.25,0,3.73,1.67,3.73,4.19ZM212.55,119.32c0,1.72.84,2.93,2.21,2.93s2.18-1.16,2.18-2.92-.78-2.94-2.21-2.94-2.18,1.12-2.18,2.93Z"/>
    <path class="st0" d="M231.03,118.49c0,2.07-1.18,5-4.32,5-2,0-3.06-1.25-3.06-3.25,0-2.21,1.36-5.09,4.29-5.09,1.85,0,3.1,1.17,3.1,3.34ZM225.16,120.24c0,1.29.6,2.05,1.71,2.05,1.85,0,2.65-2.25,2.65-3.88,0-1.29-.56-2.06-1.71-2.06-1.78,0-2.64,2.24-2.64,3.88Z"/>
    <path class="st0" d="M233.6,122.33l-.88,4.14h-1.47l1.87-8.81c.24-1.09.39-1.85.47-2.36h1.45c0,.17-.14.87-.23,1.33.54-.82,1.38-1.48,2.67-1.48,1.62,0,2.55,1.21,2.55,3.06,0,2.6-1.51,5.28-4.26,5.28-1.25,0-1.91-.58-2.18-1.16ZM238.5,118.36c0-1.3-.61-1.95-1.6-1.95-1.43,0-2.41,1.41-2.73,2.95-.36,1.68.04,2.88,1.61,2.88,1.87,0,2.72-2.2,2.72-3.88Z"/>
    <path class="st0" d="M240.58,122.19l5.23-5.68h-4.05l.27-1.2h5.77l-.26,1.22-5.14,5.61h4.4l-.45,1.2h-6.02l.24-1.15Z"/>
    <path class="st0" d="M249.73,115.31h1.46l-1.7,8.02h-1.46l1.7-8.02ZM250.48,111.77h1.46l-.37,1.78h-1.46l.37-1.78Z"/>
    <path class="st0" d="M259.46,118.49c0,2.07-1.18,5-4.32,5-2,0-3.06-1.25-3.06-3.25,0-2.21,1.36-5.09,4.29-5.09,1.85,0,3.1,1.17,3.1,3.34ZM253.59,120.24c0,1.29.6,2.05,1.71,2.05,1.85,0,2.65-2.25,2.65-3.88,0-1.29-.56-2.06-1.71-2.06-1.78,0-2.64,2.24-2.64,3.88Z"/>
    <path class="st0" d="M261.61,117.35c.14-.69.28-1.37.4-2.04h1.43c-.02.25-.17,1.08-.23,1.3.44-.68,1.2-1.46,2.64-1.46,1.54,0,2.49.9,1.99,3.2l-1.05,4.99h-1.46l1.04-4.96c.25-1.15,0-1.95-1.17-1.95-1.4,0-2.21,1.25-2.56,2.87l-.85,4.04h-1.46l1.27-5.99Z"/>
    <path class="st0" d="M270.91,119.57c-.04.29-.06.46-.06.71,0,1.25.58,2.01,1.67,2.01s1.62-.61,1.96-1.26h1.52c-.51,1.23-1.5,2.45-3.64,2.45s-3-1.33-3-3.21c0-2.23,1.22-5.13,4.23-5.13,2.19,0,2.93,1.41,2.93,2.91,0,.53-.06.99-.2,1.51h-5.41ZM275.06,118.5c.04-.19.05-.37.05-.54,0-1.02-.47-1.64-1.59-1.64-1.17,0-2,.8-2.38,2.18h3.92Z"/>
    <path class="st0" d="M282.88,120.12c.12,1.4.99,2.14,2.51,2.14,1.39,0,2.3-.62,2.3-1.89,0-.97-.49-1.55-2.21-2.2-2.06-.77-2.81-1.56-2.81-2.86,0-1.63,1.15-3.09,3.67-3.09s3.57,1.38,3.58,3.08h-1.54c-.11-1.03-.6-1.83-2.14-1.83-1.29,0-1.99.74-1.99,1.67,0,.73.35,1.19,1.95,1.78,2.25.83,3.1,1.77,3.1,3.24,0,1.72-1.08,3.32-4.08,3.32-2.56,0-3.85-1.39-3.9-3.38h1.56Z"/>
    <path class="st0" d="M297.44,120.89c-.53,1.53-1.63,2.6-3.63,2.6s-2.95-1.27-2.95-3.13c0-2.4,1.35-5.21,4.18-5.21,2.33,0,2.97,1.67,2.87,2.75h-1.44c-.03-.85-.39-1.57-1.52-1.57-1.79,0-2.58,2.29-2.58,3.93,0,1.44.64,2.05,1.64,2.05.88,0,1.53-.53,1.95-1.43h1.47Z"/>
    <path class="st0" d="M300.3,115.31h1.46l-1.7,8.02h-1.46l1.7-8.02ZM301.04,111.77h1.46l-.37,1.78h-1.46l.37-1.78Z"/>
    <path class="st0" d="M304.16,119.57c-.04.29-.06.46-.06.71,0,1.25.58,2.01,1.67,2.01s1.61-.61,1.96-1.26h1.53c-.51,1.23-1.5,2.45-3.64,2.45s-3-1.33-3-3.21c0-2.23,1.22-5.13,4.23-5.13,2.19,0,2.93,1.41,2.93,2.91,0,.53-.06.99-.2,1.51h-5.41ZM308.31,118.5c.04-.19.05-.37.05-.54,0-1.02-.47-1.64-1.59-1.64-1.17,0-2,.8-2.38,2.18h3.92Z"/>
    <path class="st0" d="M311.93,117.35c.14-.69.28-1.37.4-2.04h1.43c-.02.25-.17,1.08-.23,1.3.44-.68,1.2-1.46,2.64-1.46,1.54,0,2.49.9,1.99,3.2l-1.05,4.99h-1.46l1.04-4.96c.25-1.15,0-1.95-1.17-1.95-1.4,0-2.21,1.25-2.56,2.87l-.86,4.04h-1.46l1.27-5.99Z"/>
    <path class="st0" d="M319.01,122.19l5.23-5.68h-4.05l.27-1.2h5.77l-.26,1.22-5.14,5.61h4.4l-.45,1.2h-6.02l.24-1.15Z"/>
    <path class="st0" d="M328.03,119.57c-.04.29-.06.46-.06.71,0,1.25.58,2.01,1.67,2.01s1.61-.61,1.96-1.26h1.53c-.51,1.23-1.5,2.45-3.64,2.45s-3-1.33-3-3.21c0-2.23,1.22-5.13,4.23-5.13,2.19,0,2.93,1.41,2.93,2.91,0,.53-.06.99-.2,1.51h-5.41ZM332.18,118.5c.04-.19.05-.37.05-.54,0-1.02-.47-1.64-1.59-1.64-1.17,0-2,.8-2.38,2.18h3.92Z"/>
    <path class="st0" d="M340.92,120.13l-1.73,3.2h-1.63l6.03-10.95h1.88l1.61,10.95h-1.54l-.47-3.2h-4.15ZM344.96,118.84c-.36-2.53-.59-4.25-.66-5.16h-.02c-.49,1.01-1.47,2.87-2.71,5.16h3.39Z"/>
    <path class="st0" d="M350.26,122.33l-.88,4.14h-1.47l1.87-8.81c.24-1.09.39-1.85.47-2.36h1.45c0,.17-.14.87-.23,1.33.54-.82,1.38-1.48,2.67-1.48,1.62,0,2.56,1.21,2.56,3.06,0,2.6-1.51,5.28-4.26,5.28-1.25,0-1.91-.58-2.18-1.16ZM355.16,118.36c0-1.3-.61-1.95-1.6-1.95-1.43,0-2.41,1.41-2.73,2.95-.36,1.68.04,2.88,1.61,2.88,1.87,0,2.72-2.2,2.72-3.88Z"/>
    <path class="st0" d="M359.26,122.33l-.88,4.14h-1.47l1.87-8.81c.24-1.09.39-1.85.46-2.36h1.45c0,.17-.14.87-.23,1.33.54-.82,1.38-1.48,2.67-1.48,1.62,0,2.56,1.21,2.56,3.06,0,2.6-1.51,5.28-4.26,5.28-1.25,0-1.91-.58-2.18-1.16ZM364.16,118.36c0-1.3-.61-1.95-1.6-1.95-1.43,0-2.41,1.41-2.73,2.95-.36,1.68.04,2.88,1.61,2.88,1.87,0,2.72-2.2,2.72-3.88Z"/>
    <path class="st0" d="M366.59,123.33l2.44-11.56h1.46l-2.45,11.56h-1.46Z"/>
    <path class="st0" d="M372.1,115.31h1.46l-1.7,8.02h-1.46l1.7-8.02ZM372.85,111.77h1.46l-.37,1.78h-1.46l.37-1.78Z"/>
    <path class="st0" d="M381.01,120.89c-.53,1.53-1.63,2.6-3.63,2.6s-2.95-1.27-2.95-3.13c0-2.4,1.35-5.21,4.18-5.21,2.33,0,2.97,1.67,2.87,2.75h-1.44c-.03-.85-.39-1.57-1.52-1.57-1.79,0-2.58,2.29-2.58,3.93,0,1.44.64,2.05,1.64,2.05.88,0,1.53-.53,1.95-1.43h1.47Z"/>
    <path class="st0" d="M388.66,121.35c-.15.7-.34,1.68-.37,1.98h-1.44c.02-.28.11-.76.19-1.17-.4.62-1.05,1.33-2.66,1.33s-2.22-1.07-2.22-2.03c0-2.28,2.11-2.8,3.75-2.96.8-.07,1.49-.07,1.92-.09l.1-.51c.15-.72.1-1.66-1.36-1.66-1.28,0-1.62.67-1.85,1.25h-1.49c.28-1.21,1.17-2.35,3.47-2.35,1.86,0,3.1.83,2.69,2.79l-.73,3.41ZM387.61,119.47c-.45,0-.97.02-1.6.09-1.28.15-2.31.5-2.31,1.68,0,.58.39,1.06,1.23,1.06,1.69,0,2.32-1.33,2.64-2.7l.03-.13Z"/>
    <path class="st0" d="M391.14,115.31h1.3l.49-2.29h1.46l-.48,2.29h1.67l-.27,1.18h-1.67l-.98,4.7c-.15.69-.11,1.04.58,1.04.23,0,.53-.02.77-.06l-.25,1.13c-.39.13-.81.14-1.18.14-1.34,0-1.72-.68-1.43-2.02l1.03-4.92h-1.3l.27-1.18Z"/>
    <path class="st0" d="M397.05,119.57c-.04.29-.06.46-.06.71,0,1.25.58,2.01,1.67,2.01s1.61-.61,1.96-1.26h1.53c-.51,1.23-1.5,2.45-3.64,2.45s-3-1.33-3-3.21c0-2.23,1.22-5.13,4.23-5.13,2.19,0,2.93,1.41,2.93,2.91,0,.53-.06.99-.2,1.51h-5.41ZM401.2,118.5c.04-.19.05-.37.05-.54,0-1.02-.47-1.64-1.59-1.64-1.17,0-2,.8-2.38,2.18h3.92Z"/>
  </g>
  <g>
    <g>
      <path class="st0" d="M5.73,3.44v10.87h-2.35V3.44h2.35Z"/>
      <path class="st0" d="M9.84,11.12c.25,1.09,1.03,1.57,2.29,1.57s1.79-.5,1.79-1.29c0-.88-.52-1.27-2.38-1.7-2.96-.69-3.69-1.77-3.69-3.24,0-1.89,1.42-3.18,3.99-3.18,2.89,0,4.04,1.55,4.19,3.14h-2.37c-.11-.67-.48-1.4-1.88-1.4-.95,0-1.53.39-1.53,1.17s.46,1.06,2.22,1.47c3.16.75,3.85,1.92,3.85,3.45,0,1.98-1.5,3.35-4.37,3.35s-4.21-1.36-4.47-3.34h2.37Z"/>
      <path class="st0" d="M20.34,5.36h-3.3v-1.93h8.94v1.93h-3.29v8.94h-2.35V5.36Z"/>
      <path class="st0" d="M29.79,3.44v10.87h-2.35V3.44h2.35Z"/>
      <path class="st0" d="M34.7,5.36h-3.3v-1.93h8.94v1.93h-3.29v8.94h-2.35V5.36Z"/>
      <path class="st0" d="M44.34,3.44v6.48c0,2.08,1.07,2.7,2.25,2.7,1.34,0,2.19-.73,2.19-2.7V3.44h2.35v6.36c0,3.72-2.18,4.66-4.57,4.66s-4.57-.99-4.57-4.62V3.44h2.35Z"/>
      <path class="st0" d="M55.99,5.36h-3.3v-1.93h8.94v1.93h-3.29v8.94h-2.35V5.36Z"/>
      <path class="st0" d="M72.75,8.83c0,3.02-1.82,5.63-5.35,5.63s-5.2-2.48-5.2-5.59,1.97-5.59,5.35-5.59c3.18,0,5.19,2.23,5.19,5.55ZM64.63,8.82c0,2.12.93,3.73,2.86,3.73,2.09,0,2.83-1.75,2.83-3.69,0-2.06-.84-3.67-2.87-3.67s-2.82,1.52-2.82,3.63Z"/>
      <path class="st0" d="M80.79,5.36h-3.3v-1.93h8.94v1.93h-3.29v8.94h-2.35V5.36Z"/>
      <path class="st0" d="M95.37,9.62h-5.2v2.76h5.73l-.28,1.93h-7.73V3.44h7.71v1.93h-5.43v2.33h5.2v1.93Z"/>
      <path class="st0" d="M106.99,10.95c-.44,2.03-1.96,3.5-4.69,3.5-3.45,0-5.08-2.44-5.08-5.53s1.68-5.65,5.19-5.65c2.89,0,4.3,1.7,4.56,3.51h-2.35c-.23-.84-.81-1.67-2.29-1.67-1.94,0-2.69,1.74-2.69,3.72,0,1.84.65,3.77,2.75,3.77,1.53,0,2.02-1.03,2.22-1.66h2.36Z"/>
      <path class="st0" d="M108.8,14.3V3.44h2.91c1.36,2.44,3.87,6.84,4.37,8.02h.03c-.12-1.13-.12-3.02-.12-4.8v-3.22h2.13v10.87h-2.76c-1.17-2.12-3.95-7.18-4.49-8.43h-.03c.08.95.1,3.18.1,5.13v3.3h-2.14Z"/>
      <path class="st0" d="M123.07,3.44v10.87h-2.35V3.44h2.35Z"/>
      <path class="st0" d="M134.88,10.95c-.44,2.03-1.97,3.5-4.69,3.5-3.45,0-5.07-2.44-5.07-5.53s1.68-5.65,5.19-5.65c2.89,0,4.3,1.7,4.56,3.51h-2.35c-.23-.84-.81-1.67-2.29-1.67-1.94,0-2.69,1.74-2.69,3.72,0,1.84.65,3.77,2.75,3.77,1.53,0,2.02-1.03,2.22-1.66h2.36Z"/>
      <path class="st0" d="M146.85,8.83c0,3.02-1.82,5.63-5.35,5.63s-5.2-2.48-5.2-5.59,1.97-5.59,5.35-5.59c3.18,0,5.19,2.23,5.19,5.55ZM138.74,8.82c0,2.12.93,3.73,2.86,3.73,2.09,0,2.83-1.75,2.83-3.69,0-2.06-.84-3.67-2.87-3.67s-2.82,1.52-2.82,3.63Z"/>
      <path class="st0" d="M155.08,3.44v10.87h-2.35V3.44h2.35Z"/>
      <path class="st0" d="M157.68,14.3V3.44h2.91c1.36,2.44,3.87,6.84,4.37,8.02h.03c-.12-1.13-.12-3.02-.12-4.8v-3.22h2.13v10.87h-2.76c-1.17-2.12-3.95-7.18-4.49-8.43h-.03c.08.95.1,3.18.1,5.13v3.3h-2.14Z"/>
      <path class="st0" d="M169.6,3.44h4.31c3.17,0,5.23,2.08,5.23,5.3s-2.01,5.57-5.33,5.57h-4.21V3.44ZM171.95,12.41h1.76c2.08,0,3-1.55,3-3.67,0-1.77-.86-3.4-2.99-3.4h-1.78v7.07Z"/>
      <path class="st0" d="M183.43,3.44v6.48c0,2.08,1.07,2.7,2.24,2.7,1.34,0,2.19-.73,2.19-2.7V3.44h2.35v6.36c0,3.72-2.17,4.66-4.57,4.66s-4.57-.99-4.57-4.62V3.44h2.35Z"/>
      <path class="st0" d="M194.16,11.12c.25,1.09,1.03,1.57,2.29,1.57s1.79-.5,1.79-1.29c0-.88-.52-1.27-2.38-1.7-2.96-.69-3.69-1.77-3.69-3.24,0-1.89,1.42-3.18,3.99-3.18,2.88,0,4.03,1.55,4.19,3.14h-2.37c-.11-.67-.48-1.4-1.88-1.4-.95,0-1.53.39-1.53,1.17s.46,1.06,2.22,1.47c3.16.75,3.85,1.92,3.85,3.45,0,1.98-1.5,3.35-4.37,3.35s-4.21-1.36-4.47-3.34h2.37Z"/>
      <path class="st0" d="M204.66,5.36h-3.3v-1.93h8.94v1.93h-3.29v8.94h-2.35V5.36Z"/>
      <path class="st0" d="M214.06,9.95v4.35h-2.3V3.44h4.78c2.37,0,3.64,1.31,3.64,2.98,0,1.46-.79,2.25-1.58,2.57.54.2,1.35.76,1.35,2.7v.54c0,.73,0,1.56.16,2.07h-2.23c-.19-.47-.23-1.29-.23-2.44v-.16c0-1.19-.3-1.75-2.05-1.75h-1.54ZM214.06,8.08h1.97c1.29,0,1.78-.49,1.78-1.4s-.58-1.38-1.73-1.38h-2.03v2.78Z"/>
      <path class="st0" d="M224.63,3.44v10.87h-2.35V3.44h2.35Z"/>
      <path class="st0" d="M229.25,11.79l-.85,2.51h-2.31l3.69-10.87h2.95l3.85,10.87h-2.47l-.89-2.51h-3.97ZM232.71,9.87c-.77-2.29-1.26-3.76-1.53-4.74h-.02c-.27,1.07-.81,2.78-1.43,4.74h2.97Z"/>
      <path class="st0" d="M237.98,3.44h2.35v8.94h5.41l-.27,1.93h-7.5V3.44Z"/>
      <path class="st0" d="M254.62,9.62h-5.2v2.76h5.73l-.28,1.93h-7.73V3.44h7.71v1.93h-5.43v2.33h5.2v1.93Z"/>
      <path class="st0" d="M262.29,11.12c.25,1.09,1.03,1.57,2.29,1.57s1.79-.5,1.79-1.29c0-.88-.52-1.27-2.38-1.7-2.96-.69-3.69-1.77-3.69-3.24,0-1.89,1.42-3.18,3.99-3.18,2.89,0,4.04,1.55,4.19,3.14h-2.37c-.11-.67-.48-1.4-1.88-1.4-.95,0-1.53.39-1.53,1.17s.46,1.06,2.22,1.47c3.16.75,3.85,1.92,3.85,3.45,0,1.98-1.5,3.35-4.37,3.35s-4.21-1.36-4.47-3.34h2.37Z"/>
      <path class="st0" d="M272.79,5.36h-3.3v-1.93h8.94v1.93h-3.29v8.94h-2.35V5.36Z"/>
      <path class="st0" d="M280.75,11.79l-.85,2.51h-2.31l3.69-10.87h2.95l3.85,10.87h-2.47l-.89-2.51h-3.97ZM284.21,9.87c-.77-2.29-1.26-3.76-1.53-4.74h-.02c-.27,1.07-.81,2.78-1.43,4.74h2.97Z"/>
      <path class="st0" d="M290.51,5.36h-3.3v-1.93h8.94v1.93h-3.29v8.94h-2.35V5.36Z"/>
      <path class="st0" d="M298.47,11.79l-.85,2.51h-2.31l3.69-10.87h2.95l3.85,10.87h-2.47l-.89-2.51h-3.97ZM301.93,9.87c-.77-2.29-1.26-3.76-1.53-4.74h-.02c-.27,1.07-.81,2.78-1.43,4.74h2.97Z"/>
      <path class="st0" d="M307.2,3.44h2.35v8.94h5.41l-.27,1.93h-7.49V3.44Z"/>
      <path class="st0" d="M323.84,9.62h-5.2v2.76h5.73l-.28,1.93h-7.73V3.44h7.71v1.93h-5.43v2.33h5.2v1.93Z"/>
      <path class="st0" d="M332.26,2.82c-.41,1.56-.69,3.46-.72,4.67h-2.29c.09-1.44.66-3.42,1.31-4.67h1.7ZM335.66,2.82c-.46,1.59-.69,3.32-.72,4.67h-2.29c.1-1.73.76-3.6,1.32-4.67h1.69Z"/>
      <path class="st0" d="M346.69,14.3h-1.72c-.09-.33-.15-.71-.18-1.07-.6.81-1.66,1.25-3.17,1.25-3.15,0-4.92-2.38-4.92-5.48,0-3.27,1.9-5.73,5.33-5.73,2.8,0,4.44,1.58,4.71,3.43h-2.35c-.22-.73-.8-1.59-2.39-1.59-2.23,0-2.87,1.87-2.87,3.78s.73,3.71,2.88,3.71c2.01,0,2.38-1.39,2.38-2.37v-.1h-2.38v-1.93h4.69v6.08Z"/>
      <path class="st0" d="M348.63,14.3v-2.77h2.42v2.77h-2.42Z"/>
      <path class="st0" d="M362.22,10.23c0-1.85.03-3.93.08-5.16h-.08c-.51,2.22-1.6,5.84-2.64,9.24h-2c-.79-2.97-1.92-7.1-2.39-9.27h-.07c.09,1.28.14,3.51.14,5.38v3.89h-2.14V3.44h3.5c.85,2.84,1.8,6.4,2.12,8.02h.02c.27-1.43,1.46-5.24,2.37-8.02h3.37v10.87h-2.27v-4.08Z"/>
      <path class="st0" d="M369.12,11.79l-.85,2.51h-2.31l3.69-10.87h2.95l3.85,10.87h-2.47l-.89-2.51h-3.97ZM372.58,9.87c-.77-2.29-1.26-3.76-1.53-4.74h-.02c-.27,1.07-.81,2.78-1.43,4.74h2.97Z"/>
      <path class="st0" d="M380.15,9.95v4.35h-2.3V3.44h4.78c2.37,0,3.64,1.31,3.64,2.98,0,1.46-.79,2.25-1.58,2.57.54.2,1.35.76,1.35,2.7v.54c0,.73,0,1.56.16,2.07h-2.23c-.19-.47-.23-1.29-.23-2.44v-.16c0-1.19-.3-1.75-2.05-1.75h-1.55ZM380.15,8.08h1.97c1.29,0,1.78-.49,1.78-1.4s-.58-1.38-1.73-1.38h-2.03v2.78Z"/>
      <path class="st0" d="M397.58,10.95c-.44,2.03-1.97,3.5-4.69,3.5-3.45,0-5.08-2.44-5.08-5.53s1.68-5.65,5.19-5.65c2.89,0,4.3,1.7,4.56,3.51h-2.35c-.23-.84-.81-1.67-2.29-1.67-1.94,0-2.69,1.74-2.69,3.72,0,1.84.65,3.77,2.75,3.77,1.53,0,2.02-1.03,2.22-1.66h2.36Z"/>
      <path class="st0" d="M409.55,8.83c0,3.02-1.82,5.63-5.35,5.63s-5.2-2.48-5.2-5.59,1.97-5.59,5.35-5.59c3.18,0,5.19,2.23,5.19,5.55ZM401.44,8.82c0,2.12.93,3.73,2.86,3.73,2.09,0,2.83-1.75,2.83-3.69,0-2.06-.84-3.67-2.87-3.67s-2.82,1.52-2.82,3.63Z"/>
      <path class="st0" d="M411.61,14.3V3.44h2.91c1.36,2.44,3.87,6.84,4.37,8.02h.03c-.12-1.13-.12-3.02-.12-4.8v-3.22h2.13v10.87h-2.76c-1.17-2.12-3.95-7.18-4.49-8.43h-.03c.08.95.1,3.18.1,5.13v3.3h-2.14Z"/>
      <path class="st0" d="M425.88,3.44v10.87h-2.35V3.44h2.35Z"/>
      <path class="st0" d="M427.7,7.47c.46-1.59.69-3.32.72-4.67h2.29c-.1,1.73-.76,3.6-1.32,4.67h-1.69ZM431.1,7.47c.41-1.56.69-3.46.72-4.67h2.29c-.09,1.44-.66,3.42-1.31,4.67h-1.7Z"/>
    </g>
    <g>
      <path class="st0" d="M5.82,34l-3.63-10.04h1.6l1.72,4.93c.5,1.46.99,2.89,1.21,3.83h.03c.21-.84.75-2.33,1.26-3.78l1.79-4.98h1.53l-3.75,10.04h-1.76Z"/>
      <path class="st0" d="M12.39,23.4h1.42v1.63h-1.42v-1.63ZM12.39,26.64h1.42v7.36h-1.42v-7.36Z"/>
      <path class="st0" d="M21.43,32.34c0,.68.06,1.46.1,1.66h-1.36c-.06-.16-.1-.52-.12-.92-.26.48-.83,1.09-2.23,1.09-1.74,0-2.48-1.14-2.48-2.26,0-1.65,1.3-2.4,3.48-2.4h1.21v-.59c0-.62-.2-1.36-1.5-1.36-1.16,0-1.36.56-1.49,1.13h-1.37c.1-1.07.76-2.22,2.9-2.21,1.83,0,2.84.75,2.84,2.43v3.43ZM20.05,30.46h-1.12c-1.42,0-2.14.4-2.14,1.37,0,.72.49,1.26,1.36,1.26,1.68,0,1.9-1.14,1.9-2.4v-.23Z"/>
      <path class="st0" d="M35.97,29.82c0-1.84.02-3.74.06-4.81h-.06c-.44,1.71-1.94,5.83-3.06,8.99h-1.32c-.84-2.6-2.4-7.24-2.85-9.01h-.05c.08,1.16.11,3.36.11,5.08v3.92h-1.39v-10.04h2.22c1.07,3.02,2.37,6.9,2.7,8.22h.02c.24-1.03,1.78-5.27,2.9-8.22h2.15v10.04h-1.45v-4.18Z"/>
      <path class="st0" d="M39.69,23.4h1.42v1.63h-1.42v-1.63ZM39.69,26.64h1.42v7.36h-1.42v-7.36Z"/>
      <path class="st0" d="M43.22,34v-10.6h1.42v10.6h-1.42Z"/>
      <path class="st0" d="M52.26,32.34c0,.68.06,1.46.1,1.66h-1.36c-.06-.16-.1-.52-.12-.92-.26.48-.83,1.09-2.23,1.09-1.74,0-2.48-1.14-2.48-2.26,0-1.65,1.3-2.4,3.48-2.4h1.22v-.59c0-.62-.2-1.36-1.5-1.36-1.16,0-1.36.56-1.49,1.13h-1.37c.1-1.07.76-2.22,2.9-2.21,1.83,0,2.84.75,2.84,2.43v3.43ZM50.88,30.46h-1.12c-1.42,0-2.14.4-2.14,1.37,0,.72.49,1.26,1.36,1.26,1.68,0,1.9-1.14,1.9-2.4v-.23Z"/>
      <path class="st0" d="M54.38,28.5c0-.64,0-1.29-.01-1.85h1.38c.04.21.06.93.05,1.16.29-.6.88-1.33,2.28-1.33s2.45.87,2.45,2.81v4.72h-1.42v-4.55c0-1.06-.4-1.78-1.48-1.78-1.29,0-1.83.94-1.83,2.39v3.93h-1.42v-5.5Z"/>
      <path class="st0" d="M69.05,30.31c0,2.14-1.24,3.87-3.5,3.87-2.14,0-3.43-1.63-3.43-3.84s1.27-3.87,3.51-3.87c2.07,0,3.42,1.53,3.42,3.84ZM63.58,30.32c0,1.57.77,2.69,2.02,2.69s2-1.06,2-2.68-.72-2.69-2.02-2.69-1.99,1.03-1.99,2.69Z"/>
      <path class="st0" d="M69.57,35.66c.77-1.67.97-2.93,1.04-3.86h1.44c-.13,1.32-.6,2.83-1.34,3.86h-1.14Z"/>
      <path class="st0" d="M83.16,25.71h-3.94c-.08.72-.3,2.05-.39,2.54.39-.42,1-.72,1.94-.72,1.77,0,2.88,1.24,2.88,3.16s-.98,3.49-3.33,3.49c-1.73,0-2.99-.95-3.23-2.58h1.44c.21.83.81,1.42,1.84,1.42,1.23,0,1.84-.88,1.84-2.22,0-1.18-.48-2.08-1.76-2.08-1.1,0-1.55.46-1.86,1.19l-1.31-.22c.28-1.24.65-3.97.79-5.19h5.32l-.2,1.21Z"/>
      <path class="st0" d="M86.71,34v-7.83c-.46.32-1.4.67-1.92.75v-1.13c.77-.19,1.68-.73,2.31-1.34h1.05v9.55h-1.45Z"/>
      <path class="st0" d="M94.22,29.66v1.27h-3.84v-1.27h3.84Z"/>
      <path class="st0" d="M101.86,25.71h-3.94c-.08.72-.3,2.05-.39,2.54.39-.42,1-.72,1.94-.72,1.77,0,2.88,1.24,2.88,3.16s-.98,3.49-3.33,3.49c-1.73,0-2.99-.95-3.23-2.58h1.44c.21.83.81,1.42,1.84,1.42,1.23,0,1.84-.88,1.84-2.22,0-1.18-.48-2.08-1.76-2.08-1.1,0-1.55.46-1.86,1.19l-1.31-.22c.28-1.24.65-3.97.79-5.19h5.32l-.2,1.21Z"/>
      <path class="st0" d="M108.8,26.61c-.17-.65-.58-1.15-1.53-1.15-1.54,0-2.02,1.44-2.07,3.31.39-.64,1.09-1.24,2.36-1.24,1.82,0,2.93,1.33,2.93,3.17s-1.14,3.48-3.26,3.48c-2.65,0-3.44-2.12-3.44-4.8s.86-5.05,3.55-5.05c1.96,0,2.75,1.27,2.87,2.29h-1.4ZM109.03,30.81c0-1.03-.4-2.11-1.8-2.11-1.13,0-1.9.71-1.9,2.08,0,.78.39,2.21,1.87,2.21,1.3,0,1.83-1.04,1.83-2.19Z"/>
      <path class="st0" d="M118.66,29.18c0,2.41-.7,4.99-3.39,4.99s-3.38-2.44-3.38-4.93.82-4.93,3.42-4.93,3.35,2.38,3.35,4.86ZM113.38,29.24c0,1.8.29,3.75,1.9,3.75s1.88-1.85,1.88-3.8c0-1.83-.3-3.68-1.85-3.68s-1.94,1.65-1.94,3.74Z"/>
      <path class="st0" d="M120.03,34v-.09c0-1.43.87-2.84,2.85-4.32,1.49-1.13,1.9-1.49,1.9-2.5,0-.93-.49-1.6-1.56-1.6s-1.61.59-1.8,1.69h-1.39c.16-1.62,1.2-2.86,3.19-2.86,2.19,0,3.02,1.39,3.02,2.74,0,1.43-.61,2.01-2.36,3.34-1.28.98-1.94,1.7-2.16,2.37h4.9l-.2,1.23h-6.39Z"/>
      <path class="st0" d="M133.77,25.71h-3.94c-.08.72-.3,2.05-.39,2.54.39-.42,1-.72,1.94-.72,1.77,0,2.88,1.24,2.88,3.16s-.98,3.49-3.33,3.49c-1.73,0-2.99-.95-3.23-2.58h1.44c.21.83.81,1.42,1.84,1.42,1.23,0,1.84-.88,1.84-2.22,0-1.18-.48-2.08-1.76-2.08-1.1,0-1.55.46-1.86,1.19l-1.31-.22c.28-1.24.65-3.97.79-5.19h5.32l-.2,1.21Z"/>
      <path class="st0" d="M139.82,23.96h3.88c1.99,0,3.34,1.11,3.34,2.96,0,2-1.45,3.03-3.42,3.03h-2.3v4.05h-1.5v-10.04ZM141.32,28.71h2.2c1.3,0,2-.62,2-1.76s-.82-1.76-1.95-1.76h-2.25v3.51Z"/>
      <path class="st0" d="M154.77,30.31c0,2.14-1.24,3.87-3.5,3.87-2.14,0-3.43-1.63-3.43-3.84s1.27-3.87,3.51-3.87c2.07,0,3.42,1.53,3.42,3.84ZM149.3,30.32c0,1.57.77,2.69,2.02,2.69s2-1.06,2-2.68-.72-2.69-2.02-2.69-1.99,1.03-1.99,2.69Z"/>
      <path class="st0" d="M156.38,28.5c0-.64,0-1.29-.01-1.85h1.38c.04.21.06.93.05,1.16.29-.6.88-1.33,2.28-1.33s2.45.87,2.45,2.81v4.72h-1.42v-4.55c0-1.06-.4-1.78-1.48-1.78-1.29,0-1.83.94-1.83,2.39v3.93h-1.42v-5.5Z"/>
      <path class="st0" d="M163.63,26.64h1.25v-2.14h1.42v2.14h1.59v1.13h-1.59v4.18c0,.68.17,1.02.83,1.02.16,0,.42,0,.61-.05v1.04c-.33.12-.79.14-1.15.14-1.2,0-1.7-.63-1.7-1.86v-4.46h-1.25v-1.13Z"/>
      <path class="st0" d="M170.06,30.59c0,1.38.7,2.42,1.91,2.42,1.1,0,1.45-.55,1.68-1.07h1.43c-.28.93-1.08,2.24-3.15,2.24-2.33,0-3.3-1.87-3.3-3.77,0-2.21,1.12-3.94,3.38-3.94,2.4,0,3.2,1.89,3.2,3.51,0,.23,0,.41-.02.61h-5.12ZM173.77,29.63c-.01-1.14-.57-2.06-1.78-2.06s-1.77.86-1.89,2.06h3.66Z"/>
      <path class="st0" d="M183.12,23.4v8.53c0,.69,0,1.36.01,2.07h-1.36c-.04-.2-.06-.73-.07-.99-.36.73-1.08,1.16-2.27,1.16-1.89,0-3.05-1.53-3.05-3.78s1.25-3.93,3.3-3.93c1.25,0,1.83.5,2.02.89v-3.96h1.42ZM177.85,30.35c0,1.71.79,2.63,1.91,2.63,1.66,0,1.99-1.25,1.99-2.75s-.31-2.58-1.9-2.58c-1.25,0-2,.99-2,2.7Z"/>
      <path class="st0" d="M186.15,30.59c0,1.38.7,2.42,1.91,2.42,1.1,0,1.45-.55,1.68-1.07h1.43c-.28.93-1.08,2.24-3.15,2.24-2.33,0-3.3-1.87-3.3-3.77,0-2.21,1.12-3.94,3.38-3.94,2.4,0,3.2,1.89,3.2,3.51,0,.23,0,.41-.02.61h-5.12ZM189.86,29.63c-.01-1.14-.57-2.06-1.78-2.06s-1.77.86-1.89,2.06h3.66Z"/>
      <path class="st0" d="M192.88,28.64c0-.97,0-1.56-.01-2h1.39c.02.2.04.81.04,1.46.37-.97,1.23-1.6,2.46-1.63v1.4c-1.5.03-2.46.74-2.46,2.63v3.5h-1.42v-5.36Z"/>
      <path class="st0" d="M203.44,32.34c0,.68.06,1.46.1,1.66h-1.36c-.06-.16-.1-.52-.12-.92-.26.48-.83,1.09-2.23,1.09-1.74,0-2.48-1.14-2.48-2.26,0-1.65,1.3-2.4,3.48-2.4h1.22v-.59c0-.62-.2-1.36-1.5-1.36-1.16,0-1.36.56-1.49,1.13h-1.37c.1-1.07.76-2.22,2.9-2.21,1.83,0,2.84.75,2.84,2.43v3.43ZM202.05,30.46h-1.12c-1.42,0-2.14.4-2.14,1.37,0,.72.49,1.26,1.36,1.26,1.68,0,1.9-1.14,1.9-2.4v-.23Z"/>
      <path class="st0" d="M212.54,23.41c-1.24,1.63-2.28,3.8-2.28,6.46,0,2.44.84,4.71,2.28,6.63h-1.42c-1.11-1.49-2.17-3.74-2.17-6.64s1.09-5,2.17-6.45h1.42Z"/>
      <path class="st0" d="M214.4,23.96h3.88c1.99,0,3.34,1.11,3.34,2.96,0,2-1.45,3.03-3.42,3.03h-2.3v4.05h-1.5v-10.04ZM215.9,28.71h2.2c1.3,0,2-.62,2-1.76s-.82-1.76-1.95-1.76h-2.25v3.51Z"/>
      <path class="st0" d="M224.94,23.96v10.04h-1.49v-10.04h1.49Z"/>
      <path class="st0" d="M226.8,36.5c1.24-1.63,2.28-3.8,2.28-6.46,0-2.44-.84-4.71-2.28-6.63h1.42c1.11,1.49,2.17,3.74,2.17,6.64s-1.09,5-2.17,6.45h-1.42Z"/>
      <path class="st0" d="M238.32,24.61h-3.4v-.72h7.6v.72h-3.41v9.39h-.79v-9.39Z"/>
      <path class="st0" d="M242.4,30.48c.01,1.86.95,3.02,2.34,3.02s1.82-.77,2.08-1.36h.74c-.3.95-1.07,2.04-2.85,2.04-2.2,0-3.05-1.89-3.05-3.73,0-2.07,1.03-3.84,3.14-3.84,2.23,0,2.93,1.92,2.93,3.28,0,.2,0,.4-.01.59h-5.32ZM246.98,29.84c-.01-1.43-.79-2.56-2.21-2.56-1.49,0-2.17,1.04-2.33,2.56h4.54Z"/>
      <path class="st0" d="M249.55,34v-10.65h.72v10.65h-.72Z"/>
      <path class="st0" d="M252.18,34v-1.86h.72v1.86h-.72Z"/>
      <path class="st0" d="M265,29.18c0,2.41-.7,4.99-3.39,4.99s-3.38-2.44-3.38-4.93.82-4.93,3.42-4.93,3.35,2.38,3.35,4.86ZM259.72,29.24c0,1.8.29,3.75,1.9,3.75s1.89-1.85,1.89-3.8c0-1.83-.3-3.68-1.85-3.68s-1.94,1.65-1.94,3.74Z"/>
      <path class="st0" d="M272.64,25.71h-3.94c-.08.72-.3,2.05-.39,2.54.39-.42,1-.72,1.94-.72,1.77,0,2.88,1.24,2.88,3.16s-.98,3.49-3.33,3.49c-1.73,0-2.99-.95-3.23-2.58h1.44c.21.83.81,1.42,1.84,1.42,1.23,0,1.84-.88,1.84-2.22,0-1.18-.48-2.08-1.76-2.08-1.1,0-1.55.46-1.86,1.19l-1.31-.22c.28-1.24.65-3.97.79-5.19h5.32l-.2,1.21Z"/>
      <path class="st0" d="M274.56,31.3c0-1.32.89-2.09,1.69-2.41-.81-.42-1.29-1.06-1.29-2.01,0-1.5,1.06-2.57,3.06-2.57,1.82,0,2.95,1.04,2.95,2.55,0,1.03-.56,1.67-1.3,1.96.86.29,1.67,1.16,1.67,2.42,0,1.84-1.44,2.92-3.45,2.92-1.86,0-3.32-1.08-3.32-2.87ZM279.89,31.24c0-1.16-.75-1.75-1.94-1.75-1.32,0-1.94.75-1.94,1.75s.72,1.78,1.95,1.78c1.13,0,1.93-.6,1.93-1.77ZM276.35,26.9c0,.77.5,1.4,1.64,1.4,1.08,0,1.58-.5,1.58-1.37,0-.81-.52-1.46-1.61-1.46s-1.62.57-1.62,1.43Z"/>
      <path class="st0" d="M288.61,24.49v1.13c-1.62,2.21-3.15,5.58-3.62,8.37h-1.47c.42-2.72,2.12-6.33,3.61-8.29h-4.83v-1.22h6.31Z"/>
      <path class="st0" d="M289.56,34.74l4.04-10.92h1.24l-4.03,10.92h-1.25Z"/>
      <path class="st0" d="M302.28,25.71h-3.94c-.08.72-.31,2.05-.39,2.54.39-.42,1-.72,1.94-.72,1.77,0,2.88,1.24,2.88,3.16s-.98,3.49-3.33,3.49c-1.73,0-2.99-.95-3.23-2.58h1.44c.21.83.81,1.42,1.84,1.42,1.23,0,1.84-.88,1.84-2.22,0-1.18-.48-2.08-1.76-2.08-1.1,0-1.55.46-1.86,1.19l-1.31-.22c.28-1.24.65-3.97.79-5.19h5.32l-.2,1.21Z"/>
      <path class="st0" d="M304.35,26.79c.15-1.17.98-2.47,3.07-2.47s2.93,1.21,2.93,2.49c0,1.16-.68,1.74-1.25,1.96v.04c.81.26,1.65.95,1.65,2.38s-.92,2.99-3.35,2.99c-2.25,0-3.17-1.4-3.3-2.67h1.4c.18.8.78,1.51,1.96,1.51,1.28,0,1.83-.85,1.83-1.84,0-1.19-.71-1.76-1.96-1.76h-.71v-1.14h.61c1.19,0,1.7-.46,1.7-1.41,0-.82-.54-1.38-1.55-1.38-1.11,0-1.49.6-1.66,1.3h-1.37Z"/>
      <path class="st0" d="M318.32,25.71h-3.94c-.08.72-.31,2.05-.39,2.54.39-.42,1-.72,1.94-.72,1.77,0,2.88,1.24,2.88,3.16s-.98,3.49-3.33,3.49c-1.73,0-2.99-.95-3.23-2.58h1.44c.21.83.81,1.42,1.84,1.42,1.23,0,1.84-.88,1.84-2.22,0-1.18-.48-2.08-1.76-2.08-1.1,0-1.55.46-1.86,1.19l-1.31-.22c.28-1.24.65-3.97.79-5.19h5.32l-.2,1.21Z"/>
      <path class="st0" d="M325.26,26.61c-.17-.65-.58-1.15-1.53-1.15-1.54,0-2.02,1.44-2.07,3.31.39-.64,1.09-1.24,2.36-1.24,1.82,0,2.93,1.33,2.93,3.17s-1.14,3.48-3.26,3.48c-2.65,0-3.44-2.12-3.44-4.8s.86-5.05,3.55-5.05c1.96,0,2.75,1.27,2.87,2.29h-1.4ZM325.5,30.81c0-1.03-.4-2.11-1.8-2.11-1.13,0-1.9.71-1.9,2.08,0,.78.39,2.21,1.87,2.21,1.3,0,1.83-1.04,1.83-2.19Z"/>
      <path class="st0" d="M333.41,26.61c-.17-.65-.58-1.15-1.53-1.15-1.54,0-2.02,1.44-2.07,3.31.39-.64,1.09-1.24,2.36-1.24,1.82,0,2.93,1.33,2.93,3.17s-1.14,3.48-3.26,3.48c-2.65,0-3.44-2.12-3.44-4.8s.86-5.05,3.55-5.05c1.96,0,2.75,1.27,2.87,2.29h-1.4ZM333.65,30.81c0-1.03-.4-2.11-1.8-2.11-1.13,0-1.9.71-1.9,2.08,0,.78.39,2.21,1.87,2.21,1.3,0,1.83-1.04,1.83-2.19Z"/>
      <path class="st0" d="M344.01,29.66v1.27h-3.84v-1.27h3.84Z"/>
      <path class="st0" d="M355.28,25.71h-3.94c-.08.72-.31,2.05-.39,2.54.39-.42,1-.72,1.94-.72,1.77,0,2.88,1.24,2.88,3.16s-.98,3.49-3.33,3.49c-1.73,0-2.99-.95-3.23-2.58h1.44c.21.83.81,1.42,1.84,1.42,1.23,0,1.84-.88,1.84-2.22,0-1.18-.48-2.08-1.76-2.08-1.1,0-1.55.46-1.86,1.19l-1.31-.22c.28-1.24.65-3.97.79-5.19h5.32l-.2,1.21Z"/>
      <path class="st0" d="M363.29,25.71h-3.94c-.08.72-.31,2.05-.39,2.54.39-.42,1-.72,1.94-.72,1.77,0,2.88,1.24,2.88,3.16s-.98,3.49-3.33,3.49c-1.73,0-2.99-.95-3.23-2.58h1.44c.21.83.81,1.42,1.84,1.42,1.23,0,1.84-.88,1.84-2.22,0-1.18-.48-2.08-1.76-2.08-1.1,0-1.55.46-1.86,1.19l-1.31-.22c.28-1.24.65-3.97.79-5.19h5.32l-.2,1.21Z"/>
      <path class="st0" d="M365.36,26.79c.15-1.17.98-2.47,3.07-2.47s2.93,1.21,2.93,2.49c0,1.16-.68,1.74-1.25,1.96v.04c.81.26,1.65.95,1.65,2.38s-.92,2.99-3.35,2.99c-2.25,0-3.17-1.4-3.3-2.67h1.4c.18.8.78,1.51,1.96,1.51,1.28,0,1.83-.85,1.83-1.84,0-1.19-.71-1.76-1.96-1.76h-.71v-1.14h.61c1.19,0,1.7-.46,1.7-1.41,0-.82-.54-1.38-1.55-1.38-1.11,0-1.49.6-1.66,1.3h-1.37Z"/>
      <path class="st0" d="M374.6,31.86c.25.73.71,1.14,1.62,1.14,1.75,0,1.9-2.34,1.95-3.5-.44.75-1.25,1.07-2.22,1.07-1.82,0-2.94-1.29-2.94-3.03s1.19-3.21,3.25-3.21c2.43,0,3.32,1.9,3.32,4.39s-.56,5.44-3.43,5.44c-1.97,0-2.79-1.17-3.01-2.29h1.45ZM374.47,27.47c0,1.17.67,1.92,1.75,1.92,1.24,0,1.82-.65,1.82-1.87,0-.59-.23-2.03-1.79-2.03-1.23,0-1.78.87-1.78,1.98Z"/>
      <path class="st0" d="M387.82,29.18c0,2.41-.7,4.99-3.39,4.99s-3.38-2.44-3.38-4.93.82-4.93,3.42-4.93,3.35,2.38,3.35,4.86ZM382.54,29.24c0,1.8.29,3.75,1.9,3.75s1.89-1.85,1.89-3.8c0-1.83-.3-3.68-1.85-3.68s-1.94,1.65-1.94,3.74Z"/>
      <path class="st0" d="M396.81,29.66v1.27h-3.84v-1.27h3.84Z"/>
      <path class="st0" d="M408.72,29.18c0,2.41-.7,4.99-3.39,4.99s-3.38-2.44-3.38-4.93.82-4.93,3.42-4.93,3.35,2.38,3.35,4.86ZM403.44,29.24c0,1.8.29,3.75,1.9,3.75s1.89-1.85,1.89-3.8c0-1.83-.3-3.68-1.85-3.68s-1.94,1.65-1.94,3.74Z"/>
      <path class="st0" d="M411.69,31.86c.25.73.71,1.14,1.62,1.14,1.75,0,1.9-2.34,1.95-3.5-.44.75-1.25,1.07-2.22,1.07-1.82,0-2.94-1.29-2.94-3.03s1.19-3.21,3.25-3.21c2.43,0,3.32,1.9,3.32,4.39s-.56,5.44-3.43,5.44c-1.97,0-2.79-1.17-3.01-2.29h1.45ZM411.56,27.47c0,1.17.67,1.92,1.75,1.92,1.24,0,1.82-.65,1.82-1.87,0-.59-.23-2.03-1.79-2.03-1.23,0-1.78.87-1.78,1.98Z"/>
      <path class="st0" d="M417.98,34v-.09c0-1.43.87-2.84,2.85-4.32,1.49-1.13,1.9-1.49,1.9-2.5,0-.93-.49-1.6-1.56-1.6s-1.61.59-1.8,1.69h-1.39c.16-1.62,1.2-2.86,3.19-2.86,2.19,0,3.02,1.39,3.02,2.74,0,1.43-.61,2.01-2.36,3.34-1.28.98-1.94,1.7-2.16,2.37h4.9l-.2,1.23h-6.39Z"/>
      <path class="st0" d="M425.83,26.79c.15-1.17.98-2.47,3.07-2.47s2.93,1.21,2.93,2.49c0,1.16-.68,1.74-1.25,1.96v.04c.81.26,1.65.95,1.65,2.38s-.92,2.99-3.35,2.99c-2.25,0-3.17-1.4-3.3-2.67h1.4c.18.8.78,1.51,1.96,1.51,1.28,0,1.83-.85,1.83-1.84,0-1.19-.71-1.76-1.96-1.76h-.71v-1.14h.61c1.19,0,1.7-.46,1.7-1.41,0-.82-.54-1.38-1.55-1.38-1.11,0-1.49.6-1.66,1.3h-1.37Z"/>
      <path class="st0" d="M433.72,26.79c.15-1.17.98-2.47,3.07-2.47s2.93,1.21,2.93,2.49c0,1.16-.68,1.74-1.25,1.96v.04c.81.26,1.65.95,1.65,2.38s-.92,2.99-3.35,2.99c-2.25,0-3.17-1.4-3.3-2.67h1.4c.18.8.78,1.51,1.96,1.51,1.28,0,1.83-.85,1.83-1.84,0-1.19-.71-1.76-1.96-1.76h-.71v-1.14h.61c1.19,0,1.7-.46,1.7-1.41,0-.82-.54-1.38-1.55-1.38-1.11,0-1.49.6-1.66,1.3h-1.37Z"/>
      <path class="st0" d="M448.29,29.18c0,2.41-.7,4.99-3.39,4.99s-3.38-2.44-3.38-4.93.82-4.93,3.42-4.93,3.35,2.38,3.35,4.86ZM443.01,29.24c0,1.8.29,3.75,1.9,3.75s1.89-1.85,1.89-3.8c0-1.83-.3-3.68-1.85-3.68s-1.94,1.65-1.94,3.74Z"/>
      <path class="st0" d="M453.95,26.78c1.07,3.73,1.69,5.87,1.81,6.5h.01c.12-.58.84-2.85,1.96-6.5h.78c1.34,4.46,1.75,5.75,1.88,6.31h.01c.2-.79.54-1.88,1.86-6.31h.77l-2.28,7.22h-.79c-.78-2.56-1.72-5.69-1.86-6.36h-.01c-.14.71-.97,3.29-1.91,6.36h-.87l-2.12-7.22h.77Z"/>
      <path class="st0" d="M464.69,30.48c.01,1.86.95,3.02,2.34,3.02s1.82-.77,2.08-1.36h.74c-.3.95-1.07,2.04-2.85,2.04-2.2,0-3.05-1.89-3.05-3.73,0-2.07,1.03-3.84,3.14-3.84,2.23,0,2.93,1.92,2.93,3.28,0,.2,0,.4-.01.59h-5.32ZM469.27,29.84c-.01-1.43-.79-2.56-2.21-2.56-1.49,0-2.17,1.04-2.33,2.56h4.54Z"/>
      <path class="st0" d="M471.84,23.35h.72v4.64c.35-.72,1.05-1.39,2.47-1.39,1.71,0,2.96,1.4,2.96,3.63s-1.13,3.95-3.15,3.95c-1.21,0-1.91-.49-2.28-1.32,0,.46-.01.94-.03,1.14h-.71c.01-.82.01-1.65.01-2.47v-8.18ZM477.23,30.24c0-1.81-.9-2.96-2.27-2.96-1.81,0-2.44,1.23-2.44,3.12,0,1.71.56,3.09,2.36,3.09,1.46,0,2.36-1.21,2.36-3.25Z"/>
      <path class="st0" d="M484.2,26.64c.87,3.35,1.36,5.27,1.49,6.06h.02c.14-.71.59-2.41,1.61-6.06h1.37c1.09,4.06,1.41,5.24,1.53,5.93h.01c.18-.78.46-1.89,1.55-5.93h1.43l-2.25,7.36h-1.53c-.7-2.7-1.33-4.99-1.49-5.82h-.01c-.13.83-.74,2.95-1.53,5.82h-1.57l-2.12-7.36h1.5Z"/>
      <path class="st0" d="M495.24,26.64c.87,3.35,1.36,5.27,1.49,6.06h.02c.14-.71.59-2.41,1.61-6.06h1.37c1.09,4.06,1.41,5.24,1.53,5.93h.01c.18-.78.46-1.89,1.55-5.93h1.43l-2.25,7.36h-1.53c-.7-2.7-1.33-4.99-1.49-5.82h-.01c-.13.83-.74,2.95-1.53,5.82h-1.57l-2.12-7.36h1.5Z"/>
      <path class="st0" d="M506.28,26.64c.87,3.35,1.36,5.27,1.49,6.06h.02c.14-.71.59-2.41,1.61-6.06h1.37c1.09,4.06,1.41,5.24,1.53,5.93h.01c.18-.78.46-1.89,1.55-5.93h1.43l-2.25,7.36h-1.53c-.7-2.7-1.33-4.99-1.49-5.82h-.01c-.13.83-.74,2.95-1.53,5.82h-1.57l-2.12-7.36h1.5Z"/>
      <path class="st0" d="M515.69,34v-2.21h1.5v2.21h-1.5Z"/>
      <path class="st0" d="M518.99,28.54c0-.63,0-1.29-.01-1.9h1.37c.02.21.06.73.05,1.08.34-.64.97-1.26,2.12-1.26,1.04,0,1.73.53,2.01,1.28.4-.68,1.08-1.28,2.33-1.28s2.32.72,2.32,2.7v4.83h-1.39v-4.66c0-.82-.29-1.67-1.38-1.67s-1.62.84-1.62,2.11v4.22h-1.39v-4.61c0-.91-.25-1.71-1.35-1.71s-1.65.87-1.65,2.24v4.08h-1.41v-5.46Z"/>
      <path class="st0" d="M536.8,32.34c0,.68.06,1.46.1,1.66h-1.36c-.06-.16-.1-.52-.12-.92-.26.48-.83,1.09-2.23,1.09-1.74,0-2.48-1.14-2.48-2.26,0-1.65,1.3-2.4,3.48-2.4h1.21v-.59c0-.62-.2-1.36-1.5-1.36-1.16,0-1.36.56-1.49,1.13h-1.37c.1-1.07.76-2.22,2.9-2.21,1.83,0,2.84.75,2.84,2.43v3.43ZM535.42,30.46h-1.12c-1.42,0-2.14.4-2.14,1.37,0,.72.49,1.26,1.36,1.26,1.68,0,1.9-1.14,1.9-2.4v-.23Z"/>
      <path class="st0" d="M538.92,28.64c0-.97,0-1.56-.01-2h1.39c.02.2.04.81.04,1.46.37-.97,1.23-1.6,2.46-1.63v1.4c-1.5.03-2.46.74-2.46,2.63v3.5h-1.42v-5.36Z"/>
      <path class="st0" d="M549.92,31.73c-.3,1.26-1.16,2.45-3.09,2.45-2.08,0-3.32-1.48-3.32-3.81,0-2.1,1.21-3.89,3.41-3.89s2.92,1.56,3,2.49h-1.4c-.17-.72-.61-1.32-1.63-1.32-1.23,0-1.93,1.06-1.93,2.68s.68,2.7,1.89,2.7c.88,0,1.38-.48,1.66-1.29h1.41Z"/>
      <path class="st0" d="M557.9,30.31c0,2.14-1.24,3.87-3.5,3.87-2.14,0-3.43-1.63-3.43-3.84s1.27-3.87,3.51-3.87c2.07,0,3.42,1.53,3.42,3.84ZM552.43,30.32c0,1.57.77,2.69,2.02,2.69s2-1.06,2-2.68-.72-2.69-2.02-2.69-1.99,1.03-1.99,2.69Z"/>
      <path class="st0" d="M559.51,28.5c0-.64,0-1.29-.01-1.85h1.38c.04.21.06.93.05,1.16.29-.6.88-1.33,2.28-1.33s2.45.87,2.45,2.81v4.72h-1.42v-4.55c0-1.06-.4-1.78-1.48-1.78-1.29,0-1.83.94-1.83,2.39v3.93h-1.42v-5.5Z"/>
      <path class="st0" d="M567.75,23.4h1.42v1.63h-1.42v-1.63ZM567.75,26.64h1.42v7.36h-1.42v-7.36Z"/>
      <path class="st0" d="M572.69,33.14v3.74h-1.41v-8.44c0-.6,0-1.22-.01-1.79h1.38c.03.24.05.68.05,1.11.38-.7,1.11-1.28,2.35-1.28,1.69,0,2.94,1.42,2.94,3.66,0,2.62-1.42,4.04-3.2,4.04-1.16,0-1.77-.48-2.09-1.03ZM576.52,30.19c0-1.52-.68-2.53-1.88-2.53-1.45,0-2.02.92-2.02,2.65s.47,2.68,1.92,2.68c1.29,0,1.97-1.05,1.97-2.81Z"/>
      <path class="st0" d="M586.1,30.31c0,2.14-1.24,3.87-3.5,3.87-2.14,0-3.43-1.63-3.43-3.84s1.27-3.87,3.51-3.87c2.07,0,3.42,1.53,3.42,3.84ZM580.63,30.32c0,1.57.77,2.69,2.02,2.69s2-1.06,2-2.68-.72-2.69-2.02-2.69-1.99,1.03-1.99,2.69Z"/>
      <path class="st0" d="M587.7,28.5c0-.64,0-1.29-.01-1.85h1.38c.04.21.06.93.05,1.16.29-.6.88-1.33,2.28-1.33s2.45.87,2.45,2.81v4.72h-1.42v-4.55c0-1.06-.4-1.78-1.48-1.78-1.29,0-1.83.94-1.83,2.39v3.93h-1.42v-5.5Z"/>
      <path class="st0" d="M594.95,26.64h1.25v-2.14h1.42v2.14h1.59v1.13h-1.59v4.18c0,.68.17,1.02.83,1.02.16,0,.42,0,.61-.05v1.04c-.33.12-.79.14-1.15.14-1.2,0-1.7-.63-1.7-1.86v-4.46h-1.25v-1.13Z"/>
      <path class="st0" d="M601.39,30.59c0,1.38.7,2.42,1.91,2.42,1.1,0,1.45-.55,1.68-1.07h1.43c-.28.93-1.08,2.24-3.15,2.24-2.33,0-3.3-1.87-3.3-3.77,0-2.21,1.12-3.94,3.38-3.94,2.4,0,3.2,1.89,3.2,3.51,0,.23,0,.41-.02.61h-5.12ZM605.09,29.63c-.01-1.14-.57-2.06-1.78-2.06s-1.77.86-1.89,2.06h3.66Z"/>
      <path class="st0" d="M614.45,23.4v8.53c0,.69,0,1.36.01,2.07h-1.36c-.04-.2-.06-.73-.07-.99-.36.73-1.08,1.16-2.27,1.16-1.89,0-3.05-1.53-3.05-3.78s1.25-3.93,3.3-3.93c1.25,0,1.83.5,2.02.89v-3.96h1.42ZM609.18,30.35c0,1.71.79,2.63,1.91,2.63,1.66,0,1.99-1.25,1.99-2.75s-.31-2.58-1.9-2.58c-1.25,0-2,.99-2,2.7Z"/>
      <path class="st0" d="M617.47,30.59c0,1.38.7,2.42,1.91,2.42,1.1,0,1.45-.55,1.68-1.07h1.43c-.28.93-1.08,2.24-3.15,2.24-2.33,0-3.3-1.87-3.3-3.77,0-2.21,1.12-3.94,3.38-3.94,2.4,0,3.2,1.89,3.2,3.51,0,.23,0,.41-.02.61h-5.12ZM621.18,29.63c-.01-1.14-.57-2.06-1.78-2.06s-1.77.86-1.89,2.06h3.66Z"/>
      <path class="st0" d="M624.21,28.64c0-.97,0-1.56-.01-2h1.39c.02.2.04.81.04,1.46.37-.97,1.23-1.6,2.46-1.63v1.4c-1.5.03-2.46.74-2.46,2.63v3.5h-1.42v-5.36Z"/>
      <path class="st0" d="M634.76,32.34c0,.68.06,1.46.1,1.66h-1.36c-.06-.16-.1-.52-.12-.92-.26.48-.83,1.09-2.23,1.09-1.74,0-2.48-1.14-2.48-2.26,0-1.65,1.3-2.4,3.48-2.4h1.21v-.59c0-.62-.2-1.36-1.5-1.36-1.16,0-1.36.56-1.49,1.13h-1.37c.1-1.07.76-2.22,2.9-2.21,1.83,0,2.84.75,2.84,2.43v3.43ZM633.38,30.46h-1.12c-1.42,0-2.14.4-2.14,1.37,0,.72.49,1.26,1.36,1.26,1.68,0,1.9-1.14,1.9-2.4v-.23Z"/>
      <path class="st0" d="M636.64,34v-2.21h1.5v2.21h-1.5Z"/>
      <path class="st0" d="M640.87,30.59c0,1.38.7,2.42,1.91,2.42,1.1,0,1.45-.55,1.68-1.07h1.43c-.28.93-1.08,2.24-3.15,2.24-2.33,0-3.3-1.87-3.3-3.77,0-2.21,1.12-3.94,3.38-3.94,2.4,0,3.2,1.89,3.2,3.51,0,.23,0,.41-.02.61h-5.12ZM644.58,29.63c-.01-1.14-.57-2.06-1.78-2.06s-1.77.86-1.89,2.06h3.66Z"/>
      <path class="st0" d="M653.93,23.4v8.53c0,.69,0,1.36.01,2.07h-1.36c-.04-.2-.06-.73-.07-.99-.36.73-1.08,1.16-2.27,1.16-1.88,0-3.05-1.53-3.05-3.78s1.25-3.93,3.3-3.93c1.25,0,1.83.5,2.02.89v-3.96h1.42ZM648.66,30.35c0,1.71.79,2.63,1.91,2.63,1.66,0,1.99-1.25,1.99-2.75s-.31-2.58-1.9-2.58c-1.25,0-2,.99-2,2.7Z"/>
      <path class="st0" d="M662.05,31.86c0,.71,0,1.66.01,2.14h-1.38c-.03-.19-.04-.63-.05-1.05-.38.8-1.07,1.23-2.19,1.23-1.29,0-2.44-.67-2.44-2.7v-4.83h1.41v4.53c0,.94.29,1.79,1.45,1.79,1.27,0,1.77-.7,1.77-2.46v-3.85h1.42v5.21Z"/>
      <path class="st0" d="M663.85,34v-2.21h1.5v2.21h-1.5Z"/>
      <path class="st0" d="M667.19,23.4h1.42v1.63h-1.42v-1.63ZM667.19,26.64h1.42v7.36h-1.42v-7.36Z"/>
      <path class="st0" d="M669.87,26.64h1.25v-2.14h1.42v2.14h1.59v1.13h-1.59v4.18c0,.68.17,1.02.83,1.02.16,0,.42,0,.61-.05v1.04c-.33.12-.79.14-1.15.14-1.2,0-1.7-.63-1.7-1.86v-4.46h-1.25v-1.13Z"/>
      <path class="st0" d="M3.43,47.82c.01,1.86.95,3.02,2.34,3.02s1.82-.77,2.08-1.36h.74c-.3.95-1.07,2.04-2.85,2.04-2.2,0-3.05-1.89-3.05-3.73,0-2.07,1.03-3.84,3.14-3.84,2.22,0,2.93,1.92,2.93,3.28,0,.2,0,.4-.01.59H3.43ZM8.01,47.18c-.01-1.43-.79-2.56-2.21-2.56-1.49,0-2.17,1.04-2.33,2.56h4.54Z"/>
      <path class="st0" d="M10.53,45.98c0-.62,0-1.3-.01-1.86h.71c.01.25.04.87.03,1.29.3-.72.97-1.46,2.17-1.46,1.01,0,1.81.51,2.1,1.43.36-.75,1.08-1.43,2.36-1.43,1.11,0,2.27.64,2.27,2.64v4.75h-.72v-4.67c0-.97-.35-2.02-1.69-2.02s-2.04,1.13-2.04,2.53v4.16h-.71v-4.65c0-1.05-.32-2.04-1.65-2.04-1.4,0-2.08,1.24-2.08,2.72v3.97h-.72v-5.36Z"/>
      <path class="st0" d="M27.38,49.97c0,.64.06,1.14.1,1.37h-.69c-.06-.17-.1-.49-.13-1.11-.25.53-.88,1.29-2.37,1.29-1.68,0-2.4-1.08-2.4-2.17,0-1.59,1.23-2.31,3.4-2.31h1.37v-.74c0-.72-.22-1.69-1.86-1.69-1.46,0-1.68.77-1.83,1.36h-.72c.09-.79.58-2.02,2.57-2.02,1.65,0,2.57.69,2.57,2.28v3.74ZM26.67,47.66h-1.42c-1.6,0-2.6.42-2.6,1.66,0,.91.65,1.53,1.66,1.53,2.07,0,2.36-1.37,2.36-2.93v-.26Z"/>
      <path class="st0" d="M29.76,40.7h.72v1.4h-.72v-1.4ZM29.76,44.12h.72v7.22h-.72v-7.22Z"/>
      <path class="st0" d="M32.86,51.34v-10.65h.72v10.65h-.72Z"/>
      <path class="st0" d="M39.58,40.75h1.42v1.63h-1.42v-1.63ZM39.58,43.99h1.42v7.36h-1.42v-7.36Z"/>
      <path class="st0" d="M42.26,43.99h1.25v-2.14h1.42v2.14h1.59v1.13h-1.59v4.18c0,.68.17,1.02.83,1.02.16,0,.42,0,.61-.05v1.04c-.33.12-.79.14-1.15.14-1.2,0-1.7-.63-1.7-1.86v-4.46h-1.25v-1.13Z"/>
      <path class="st0" d="M47.82,40.75h1.42v1.63h-1.42v-1.63ZM47.82,43.99h1.42v7.36h-1.42v-7.36Z"/>
      <path class="st0" d="M60.37,53.01c-.7.47-1.81.86-3.51.86-3.28,0-5.67-2.25-5.67-5.8s2.48-6.41,6.31-6.41c2.96,0,5.46,1.76,5.46,5.06,0,2.58-1.35,4.19-3.26,4.19-.84,0-1.43-.32-1.5-1.08-.48.69-1.06,1.07-2.03,1.07-1.18,0-2.06-.84-2.06-2.52,0-2.18,1.33-3.88,2.99-3.88,1.09,0,1.54.58,1.68,1.06l.24-.92h1.27l-.87,4.02c-.19.89.04,1.17.55,1.17,1.05,0,1.82-1.21,1.82-3.05,0-2.5-1.74-4.07-4.32-4.07-3.05,0-5.02,2.13-5.03,5.37,0,2.65,1.74,4.7,4.49,4.7,1.2,0,2.24-.21,3.17-.74l.29.97ZM55.48,48.32c0,.98.38,1.51,1.05,1.51.82,0,1.44-.56,1.77-2.07.34-1.48-.03-2.2-1.03-2.2-1.12,0-1.79,1.37-1.79,2.76Z"/>
      <path class="st0" d="M64.87,45.88c0-.63,0-1.29-.01-1.9h1.37c.02.21.06.73.05,1.08.34-.64.97-1.26,2.12-1.26,1.04,0,1.73.53,2.01,1.28.4-.68,1.08-1.28,2.33-1.28s2.32.72,2.32,2.7v4.83h-1.39v-4.66c0-.82-.29-1.67-1.38-1.67s-1.62.84-1.62,2.11v4.22h-1.39v-4.61c0-.91-.25-1.71-1.35-1.71s-1.65.87-1.65,2.24v4.08h-1.41v-5.46Z"/>
      <path class="st0" d="M82.68,49.68c0,.68.06,1.46.1,1.66h-1.36c-.06-.16-.1-.52-.12-.92-.26.48-.83,1.09-2.23,1.09-1.74,0-2.48-1.14-2.48-2.26,0-1.65,1.3-2.4,3.48-2.4h1.22v-.59c0-.62-.2-1.36-1.5-1.36-1.16,0-1.36.56-1.49,1.13h-1.37c.1-1.07.76-2.22,2.9-2.21,1.83,0,2.84.75,2.84,2.43v3.43ZM81.3,47.8h-1.12c-1.42,0-2.14.4-2.14,1.37,0,.72.49,1.26,1.36,1.26,1.68,0,1.9-1.14,1.9-2.4v-.23Z"/>
      <path class="st0" d="M84.8,45.99c0-.97,0-1.56-.01-2h1.39c.02.2.04.81.04,1.46.37-.97,1.23-1.6,2.46-1.63v1.4c-1.5.03-2.46.74-2.46,2.63v3.5h-1.42v-5.36Z"/>
      <path class="st0" d="M95.8,49.07c-.3,1.26-1.16,2.45-3.09,2.45-2.08,0-3.32-1.48-3.32-3.81,0-2.1,1.21-3.89,3.41-3.89s2.92,1.56,3,2.49h-1.4c-.17-.72-.61-1.32-1.63-1.32-1.23,0-1.93,1.06-1.93,2.68s.68,2.7,1.89,2.7c.88,0,1.38-.48,1.66-1.29h1.41Z"/>
      <path class="st0" d="M103.78,47.65c0,2.14-1.24,3.87-3.5,3.87-2.14,0-3.43-1.63-3.43-3.84s1.27-3.87,3.51-3.87c2.07,0,3.42,1.53,3.42,3.84ZM98.31,47.67c0,1.57.77,2.69,2.02,2.69s2-1.06,2-2.68-.72-2.69-2.02-2.69-1.99,1.03-1.99,2.69Z"/>
      <path class="st0" d="M105.39,45.84c0-.64,0-1.29-.01-1.85h1.38c.04.21.06.93.05,1.16.29-.6.88-1.33,2.28-1.33s2.45.87,2.45,2.81v4.72h-1.42v-4.55c0-1.06-.4-1.78-1.48-1.78-1.29,0-1.83.94-1.83,2.39v3.93h-1.42v-5.5Z"/>
      <path class="st0" d="M113.64,40.75h1.42v1.63h-1.42v-1.63ZM113.64,43.99h1.42v7.36h-1.42v-7.36Z"/>
      <path class="st0" d="M118.57,50.49v3.74h-1.41v-8.44c0-.6,0-1.22-.01-1.79h1.38c.03.24.05.68.05,1.11.38-.7,1.11-1.28,2.35-1.28,1.69,0,2.94,1.42,2.94,3.66,0,2.62-1.42,4.04-3.2,4.04-1.16,0-1.77-.48-2.09-1.03ZM122.41,47.53c0-1.52-.68-2.53-1.88-2.53-1.45,0-2.02.92-2.02,2.65s.47,2.68,1.92,2.68c1.29,0,1.97-1.05,1.97-2.81Z"/>
      <path class="st0" d="M131.98,47.65c0,2.14-1.24,3.87-3.5,3.87-2.14,0-3.43-1.63-3.43-3.84s1.27-3.87,3.51-3.87c2.07,0,3.42,1.53,3.42,3.84ZM126.51,47.67c0,1.57.77,2.69,2.02,2.69s2-1.06,2-2.68-.72-2.69-2.02-2.69-1.99,1.03-1.99,2.69Z"/>
      <path class="st0" d="M133.59,45.84c0-.64,0-1.29-.01-1.85h1.38c.04.21.06.93.05,1.16.29-.6.88-1.33,2.28-1.33s2.45.87,2.45,2.81v4.72h-1.42v-4.55c0-1.06-.4-1.78-1.48-1.78-1.29,0-1.83.94-1.83,2.39v3.93h-1.42v-5.5Z"/>
      <path class="st0" d="M140.83,43.99h1.25v-2.14h1.42v2.14h1.59v1.13h-1.59v4.18c0,.68.17,1.02.83,1.02.17,0,.42,0,.61-.05v1.04c-.33.12-.79.14-1.15.14-1.2,0-1.7-.63-1.7-1.86v-4.46h-1.25v-1.13Z"/>
      <path class="st0" d="M147.27,47.94c0,1.38.7,2.42,1.91,2.42,1.1,0,1.45-.55,1.68-1.07h1.43c-.28.93-1.08,2.24-3.15,2.24-2.33,0-3.3-1.87-3.3-3.77,0-2.21,1.12-3.94,3.38-3.94,2.4,0,3.2,1.89,3.2,3.51,0,.23,0,.41-.02.61h-5.12ZM150.98,46.97c-.01-1.14-.57-2.06-1.78-2.06s-1.77.86-1.89,2.06h3.66Z"/>
      <path class="st0" d="M160.33,40.75v8.53c0,.69,0,1.36.01,2.07h-1.36c-.04-.2-.06-.73-.07-.99-.36.73-1.08,1.16-2.27,1.16-1.88,0-3.05-1.53-3.05-3.78s1.25-3.93,3.3-3.93c1.25,0,1.83.5,2.02.89v-3.96h1.42ZM155.06,47.7c0,1.71.79,2.63,1.91,2.63,1.66,0,1.99-1.25,1.99-2.75s-.31-2.58-1.9-2.58c-1.25,0-2,.99-2,2.7Z"/>
      <path class="st0" d="M163.36,47.94c0,1.38.7,2.42,1.91,2.42,1.1,0,1.45-.55,1.68-1.07h1.43c-.28.93-1.08,2.24-3.15,2.24-2.33,0-3.3-1.87-3.3-3.77,0-2.21,1.12-3.94,3.38-3.94,2.4,0,3.2,1.89,3.2,3.51,0,.23,0,.41-.02.61h-5.12ZM167.06,46.97c-.01-1.14-.57-2.06-1.78-2.06s-1.77.86-1.89,2.06h3.66Z"/>
      <path class="st0" d="M170.09,45.99c0-.97,0-1.56-.01-2h1.39c.02.2.04.81.04,1.46.37-.97,1.23-1.6,2.46-1.63v1.4c-1.5.03-2.46.74-2.46,2.63v3.5h-1.42v-5.36Z"/>
      <path class="st0" d="M180.65,49.68c0,.68.06,1.46.1,1.66h-1.36c-.06-.16-.1-.52-.12-.92-.26.48-.83,1.09-2.23,1.09-1.74,0-2.48-1.14-2.48-2.26,0-1.65,1.3-2.4,3.48-2.4h1.21v-.59c0-.62-.2-1.36-1.5-1.36-1.16,0-1.36.56-1.49,1.13h-1.37c.1-1.07.76-2.22,2.9-2.21,1.83,0,2.84.75,2.84,2.43v3.43ZM179.26,47.8h-1.12c-1.42,0-2.14.4-2.14,1.37,0,.72.49,1.26,1.36,1.26,1.68,0,1.9-1.14,1.9-2.4v-.23Z"/>
      <path class="st0" d="M182.52,51.34v-2.21h1.5v2.21h-1.5Z"/>
      <path class="st0" d="M185.86,40.75h1.42v1.63h-1.42v-1.63ZM185.86,43.99h1.42v7.36h-1.42v-7.36Z"/>
      <path class="st0" d="M188.54,43.99h1.25v-2.14h1.42v2.14h1.59v1.13h-1.59v4.18c0,.68.17,1.02.83,1.02.16,0,.42,0,.61-.05v1.04c-.33.12-.79.14-1.15.14-1.2,0-1.7-.63-1.7-1.86v-4.46h-1.25v-1.13Z"/>
      <path class="st0" d="M201.38,47.3v.71h-3.64v-.71h3.64Z"/>
      <path class="st0" d="M204.71,50.49v3.74h-1.41v-8.44c0-.6,0-1.22-.01-1.79h1.38c.03.24.05.68.05,1.11.38-.7,1.11-1.28,2.35-1.28,1.69,0,2.94,1.42,2.94,3.66,0,2.62-1.42,4.04-3.2,4.04-1.16,0-1.77-.48-2.09-1.03ZM208.55,47.53c0-1.52-.68-2.53-1.88-2.53-1.45,0-2.02.92-2.02,2.65s.47,2.68,1.92,2.68c1.29,0,1.97-1.05,1.97-2.81Z"/>
      <path class="st0" d="M211.64,40.75h1.42v1.63h-1.42v-1.63ZM211.64,43.99h1.42v7.36h-1.42v-7.36Z"/>
      <path class="st0" d="M214.33,43.99h1.25v-2.14h1.42v2.14h1.59v1.13h-1.59v4.18c0,.68.17,1.02.83,1.02.16,0,.42,0,.61-.05v1.04c-.33.12-.79.14-1.15.14-1.2,0-1.7-.63-1.7-1.86v-4.46h-1.25v-1.13Z"/>
      <path class="st0" d="M219.97,51.34v-6.22h-1.16v-1.13h1.16v-.84c0-1.38.56-2.55,2.18-2.55.28,0,.66.04.84.09v1.18c-.16-.04-.41-.06-.6-.06-.73,0-1,.41-1,1.43v.74h1.44v1.13h-1.44v6.22h-1.42Z"/>
      <path class="st0" d="M230.35,46.53c0,2.41-.7,4.99-3.39,4.99s-3.38-2.44-3.38-4.93.82-4.93,3.42-4.93,3.35,2.38,3.35,4.86ZM225.07,46.59c0,1.8.29,3.75,1.9,3.75s1.89-1.85,1.89-3.8c0-1.83-.3-3.68-1.85-3.68s-1.94,1.65-1.94,3.74Z"/>
      <path class="st0" d="M231.88,44.13c.15-1.17.98-2.47,3.07-2.47s2.93,1.21,2.93,2.49c0,1.16-.68,1.74-1.25,1.96v.04c.81.26,1.65.95,1.65,2.38s-.92,2.99-3.35,2.99c-2.25,0-3.17-1.4-3.3-2.67h1.4c.18.8.78,1.51,1.96,1.51,1.29,0,1.84-.85,1.84-1.84,0-1.19-.71-1.76-1.97-1.76h-.71v-1.14h.61c1.19,0,1.7-.46,1.7-1.41,0-.82-.54-1.38-1.55-1.38-1.11,0-1.49.6-1.66,1.3h-1.37Z"/>
      <path class="st0" d="M246.45,46.53c0,2.41-.7,4.99-3.39,4.99s-3.38-2.44-3.38-4.93.82-4.93,3.42-4.93,3.35,2.38,3.35,4.86ZM241.17,46.59c0,1.8.29,3.75,1.9,3.75s1.89-1.85,1.89-3.8c0-1.83-.3-3.68-1.85-3.68s-1.94,1.65-1.94,3.74Z"/>
      <path class="st0" d="M254.69,46.53c0,2.41-.7,4.99-3.39,4.99s-3.38-2.44-3.38-4.93.82-4.93,3.42-4.93,3.35,2.38,3.35,4.86ZM249.41,46.59c0,1.8.29,3.75,1.9,3.75s1.89-1.85,1.89-3.8c0-1.83-.3-3.68-1.85-3.68s-1.94,1.65-1.94,3.74Z"/>
      <path class="st0" d="M262.93,46.53c0,2.41-.7,4.99-3.39,4.99s-3.38-2.44-3.38-4.93.82-4.93,3.42-4.93,3.35,2.38,3.35,4.86ZM257.65,46.59c0,1.8.29,3.75,1.9,3.75s1.88-1.85,1.88-3.8c0-1.83-.3-3.68-1.85-3.68s-1.94,1.65-1.94,3.74Z"/>
      <path class="st0" d="M264.46,44.13c.15-1.17.98-2.47,3.07-2.47s2.93,1.21,2.93,2.49c0,1.16-.68,1.74-1.25,1.96v.04c.81.26,1.65.95,1.65,2.38s-.92,2.99-3.35,2.99c-2.25,0-3.17-1.4-3.3-2.67h1.4c.18.8.78,1.51,1.96,1.51,1.29,0,1.84-.85,1.84-1.84,0-1.19-.71-1.76-1.97-1.76h-.71v-1.14h.61c1.19,0,1.7-.46,1.7-1.41,0-.82-.54-1.38-1.55-1.38-1.11,0-1.49.6-1.66,1.3h-1.37Z"/>
      <path class="st0" d="M281.66,53.01c-.7.47-1.81.86-3.51.86-3.28,0-5.67-2.25-5.67-5.8s2.48-6.41,6.31-6.41c2.96,0,5.46,1.76,5.46,5.06,0,2.58-1.35,4.19-3.26,4.19-.84,0-1.43-.32-1.5-1.08-.48.69-1.06,1.07-2.03,1.07-1.18,0-2.06-.84-2.06-2.52,0-2.18,1.33-3.88,2.99-3.88,1.09,0,1.54.58,1.68,1.06l.24-.92h1.27l-.87,4.02c-.19.89.04,1.17.55,1.17,1.05,0,1.82-1.21,1.82-3.05,0-2.5-1.74-4.07-4.32-4.07-3.05,0-5.02,2.13-5.03,5.37,0,2.65,1.74,4.7,4.49,4.7,1.2,0,2.24-.21,3.16-.74l.29.97ZM276.77,48.32c0,.98.38,1.51,1.05,1.51.82,0,1.44-.56,1.77-2.07.34-1.48-.03-2.2-1.03-2.2-1.12,0-1.79,1.37-1.79,2.76Z"/>
      <path class="st0" d="M286.16,40.75h1.42v1.63h-1.42v-1.63ZM286.16,43.99h1.42v7.36h-1.42v-7.36Z"/>
      <path class="st0" d="M290.4,49.22c.2.76.77,1.21,1.72,1.21,1.02,0,1.41-.43,1.41-1.05s-.33-.94-1.67-1.26c-2.16-.53-2.59-1.19-2.59-2.2s.76-2.1,2.72-2.1,2.74,1.12,2.82,2.14h-1.37c-.1-.44-.42-1.07-1.52-1.07-.96,0-1.25.46-1.25.91,0,.51.29.77,1.61,1.08,2.27.54,2.7,1.3,2.7,2.39,0,1.28-1,2.25-2.92,2.25s-2.9-.99-3.08-2.3h1.41Z"/>
      <path class="st0" d="M295.61,43.99h1.25v-2.14h1.42v2.14h1.59v1.13h-1.59v4.18c0,.68.17,1.02.83,1.02.16,0,.42,0,.61-.05v1.04c-.33.12-.79.14-1.15.14-1.2,0-1.7-.63-1.7-1.86v-4.46h-1.25v-1.13Z"/>
      <path class="st0" d="M301.14,45.99c0-.97,0-1.56-.01-2h1.39c.02.2.04.81.04,1.46.37-.97,1.23-1.6,2.46-1.63v1.4c-1.5.03-2.46.74-2.46,2.63v3.5h-1.42v-5.36Z"/>
      <path class="st0" d="M312.27,49.2c0,.71,0,1.66.01,2.14h-1.38c-.03-.19-.04-.63-.05-1.05-.38.8-1.07,1.23-2.19,1.23-1.29,0-2.44-.67-2.44-2.7v-4.83h1.41v4.53c0,.94.29,1.79,1.45,1.79,1.27,0,1.77-.7,1.77-2.46v-3.85h1.42v5.21Z"/>
      <path class="st0" d="M313.7,50.22l4.12-5.06h-3.92v-1.17h5.53v1.17l-4.05,5.02h4.27l-.21,1.17h-5.73v-1.12Z"/>
      <path class="st0" d="M320.96,40.75h1.42v1.63h-1.42v-1.63ZM320.96,43.99h1.42v7.36h-1.42v-7.36Z"/>
      <path class="st0" d="M330.92,47.65c0,2.14-1.24,3.87-3.5,3.87-2.14,0-3.43-1.63-3.43-3.84s1.27-3.87,3.51-3.87c2.07,0,3.42,1.53,3.42,3.84ZM325.44,47.67c0,1.57.77,2.69,2.02,2.69s2-1.06,2-2.68-.72-2.69-2.02-2.69-1.99,1.03-1.99,2.69Z"/>
      <path class="st0" d="M332.52,45.84c0-.64,0-1.29-.01-1.85h1.38c.04.21.06.93.05,1.16.29-.6.88-1.33,2.28-1.33s2.45.87,2.45,2.81v4.72h-1.42v-4.55c0-1.06-.4-1.78-1.48-1.78-1.29,0-1.83.94-1.83,2.39v3.93h-1.42v-5.5Z"/>
      <path class="st0" d="M341.69,47.94c0,1.38.7,2.42,1.91,2.42,1.1,0,1.45-.55,1.68-1.07h1.43c-.28.93-1.08,2.24-3.15,2.24-2.33,0-3.3-1.87-3.3-3.77,0-2.21,1.12-3.94,3.38-3.94,2.4,0,3.2,1.89,3.2,3.51,0,.23,0,.41-.02.61h-5.12ZM345.4,46.97c-.01-1.14-.57-2.06-1.78-2.06s-1.77.86-1.89,2.06h3.66Z"/>
      <path class="st0" d="M348.25,51.34v-2.21h1.5v2.21h-1.5Z"/>
      <path class="st0" d="M351.59,40.75h1.42v1.63h-1.42v-1.63ZM351.59,43.99h1.42v7.36h-1.42v-7.36Z"/>
      <path class="st0" d="M354.28,43.99h1.25v-2.14h1.42v2.14h1.59v1.13h-1.59v4.18c0,.68.17,1.02.83,1.02.16,0,.42,0,.61-.05v1.04c-.33.12-.79.14-1.15.14-1.2,0-1.7-.63-1.7-1.86v-4.46h-1.25v-1.13Z"/>
      <path class="st0" d="M364.02,41.23h3.61c1.85,0,3.12,1.03,3.12,2.82s-1.26,2.89-3.22,2.89h-2.72v4.41h-.79v-10.12ZM364.82,46.21h2.79c1.63,0,2.31-.87,2.31-2.14,0-1.36-.9-2.12-2.25-2.12h-2.85v4.26Z"/>
      <path class="st0" d="M378.75,46.37h-5.16v4.25h5.65l-.12.72h-6.31v-10.12h6.2v.72h-5.42v3.7h5.16v.72Z"/>
      <path class="st0" d="M388.81,48.64c-.48,1.6-1.66,2.82-3.8,2.82-2.9,0-4.44-2.31-4.44-5.16s1.5-5.22,4.45-5.22c2.18,0,3.47,1.21,3.8,2.9h-.78c-.46-1.31-1.32-2.18-3.06-2.18-2.51,0-3.57,2.3-3.57,4.48s1.04,4.45,3.63,4.45c1.65,0,2.49-.85,2.99-2.1h.78Z"/>
      <path class="st0" d="M395.52,50.49v3.74h-1.41v-8.44c0-.6,0-1.22-.01-1.79h1.38c.03.24.05.68.05,1.11.38-.7,1.11-1.28,2.35-1.28,1.69,0,2.94,1.42,2.94,3.66,0,2.62-1.42,4.04-3.2,4.04-1.16,0-1.77-.48-2.09-1.03ZM399.36,47.53c0-1.52-.68-2.53-1.88-2.53-1.45,0-2.02.92-2.02,2.65s.47,2.68,1.92,2.68c1.29,0,1.97-1.05,1.97-2.81Z"/>
      <path class="st0" d="M402.45,40.75h1.42v1.63h-1.42v-1.63ZM402.45,43.99h1.42v7.36h-1.42v-7.36Z"/>
      <path class="st0" d="M405.14,43.99h1.25v-2.14h1.42v2.14h1.59v1.13h-1.59v4.18c0,.68.17,1.02.83,1.02.16,0,.42,0,.61-.05v1.04c-.33.12-.79.14-1.15.14-1.2,0-1.7-.63-1.7-1.86v-4.46h-1.25v-1.13Z"/>
      <path class="st0" d="M410.78,51.34v-6.22h-1.16v-1.13h1.16v-.84c0-1.38.56-2.55,2.18-2.55.28,0,.66.04.84.09v1.18c-.16-.04-.41-.06-.6-.06-.73,0-1,.41-1,1.43v.74h1.44v1.13h-1.44v6.22h-1.42Z"/>
      <path class="st0" d="M421.16,46.53c0,2.41-.7,4.99-3.39,4.99s-3.38-2.44-3.38-4.93.82-4.93,3.42-4.93,3.35,2.38,3.35,4.86ZM415.88,46.59c0,1.8.29,3.75,1.9,3.75s1.89-1.85,1.89-3.8c0-1.83-.3-3.68-1.85-3.68s-1.94,1.65-1.94,3.74Z"/>
      <path class="st0" d="M422.69,44.13c.15-1.17.98-2.47,3.07-2.47s2.93,1.21,2.93,2.49c0,1.16-.68,1.74-1.25,1.96v.04c.81.26,1.65.95,1.65,2.38s-.92,2.99-3.35,2.99c-2.25,0-3.17-1.4-3.3-2.67h1.4c.18.8.78,1.51,1.96,1.51,1.28,0,1.83-.85,1.83-1.84,0-1.19-.71-1.76-1.96-1.76h-.71v-1.14h.61c1.19,0,1.7-.46,1.7-1.41,0-.82-.54-1.38-1.55-1.38-1.11,0-1.49.6-1.66,1.3h-1.37Z"/>
      <path class="st0" d="M437.26,46.53c0,2.41-.7,4.99-3.39,4.99s-3.38-2.44-3.38-4.93.82-4.93,3.42-4.93,3.35,2.38,3.35,4.86ZM431.99,46.59c0,1.8.29,3.75,1.9,3.75s1.89-1.85,1.89-3.8c0-1.83-.3-3.68-1.85-3.68s-1.94,1.65-1.94,3.74Z"/>
      <path class="st0" d="M445.5,46.53c0,2.41-.7,4.99-3.39,4.99s-3.38-2.44-3.38-4.93.82-4.93,3.42-4.93,3.35,2.38,3.35,4.86ZM440.22,46.59c0,1.8.29,3.75,1.9,3.75s1.89-1.85,1.89-3.8c0-1.83-.3-3.68-1.85-3.68s-1.94,1.65-1.94,3.74Z"/>
      <path class="st0" d="M453.74,46.53c0,2.41-.7,4.99-3.39,4.99s-3.38-2.44-3.38-4.93.82-4.93,3.42-4.93,3.35,2.38,3.35,4.86ZM448.46,46.59c0,1.8.29,3.75,1.9,3.75s1.89-1.85,1.89-3.8c0-1.83-.3-3.68-1.85-3.68s-1.94,1.65-1.94,3.74Z"/>
      <path class="st0" d="M455.27,44.13c.15-1.17.98-2.47,3.07-2.47s2.93,1.21,2.93,2.49c0,1.16-.68,1.74-1.25,1.96v.04c.81.26,1.65.95,1.65,2.38s-.92,2.99-3.35,2.99c-2.25,0-3.17-1.4-3.3-2.67h1.4c.18.8.78,1.51,1.96,1.51,1.28,0,1.83-.85,1.83-1.84,0-1.19-.71-1.76-1.96-1.76h-.71v-1.14h.61c1.19,0,1.7-.46,1.7-1.41,0-.82-.54-1.38-1.55-1.38-1.11,0-1.49.6-1.66,1.3h-1.37Z"/>
      <path class="st0" d="M472.47,53.01c-.7.47-1.81.86-3.51.86-3.28,0-5.67-2.25-5.67-5.8s2.48-6.41,6.31-6.41c2.96,0,5.46,1.76,5.46,5.06,0,2.58-1.35,4.19-3.26,4.19-.83,0-1.43-.32-1.5-1.08-.48.69-1.06,1.07-2.03,1.07-1.18,0-2.06-.84-2.06-2.52,0-2.18,1.33-3.88,2.99-3.88,1.09,0,1.54.58,1.68,1.06l.24-.92h1.27l-.87,4.02c-.19.89.04,1.17.55,1.17,1.05,0,1.82-1.21,1.82-3.05,0-2.5-1.74-4.07-4.32-4.07-3.05,0-5.03,2.13-5.03,5.37,0,2.65,1.74,4.7,4.49,4.7,1.2,0,2.24-.21,3.17-.74l.28.97ZM467.58,48.32c0,.98.38,1.51,1.05,1.51.82,0,1.44-.56,1.77-2.07.34-1.48-.03-2.2-1.03-2.2-1.12,0-1.79,1.37-1.79,2.76Z"/>
      <path class="st0" d="M478.38,50.49v3.74h-1.41v-8.44c0-.6,0-1.22-.01-1.79h1.38c.03.24.05.68.05,1.11.38-.7,1.11-1.28,2.35-1.28,1.69,0,2.94,1.42,2.94,3.66,0,2.62-1.42,4.04-3.2,4.04-1.16,0-1.77-.48-2.09-1.03ZM482.22,47.53c0-1.52-.68-2.53-1.88-2.53-1.45,0-2.02.92-2.02,2.65s.47,2.68,1.92,2.68c1.29,0,1.97-1.05,1.97-2.81Z"/>
      <path class="st0" d="M486.3,47.94c0,1.38.7,2.42,1.91,2.42,1.1,0,1.45-.55,1.68-1.07h1.43c-.28.93-1.08,2.24-3.15,2.24-2.33,0-3.3-1.87-3.3-3.77,0-2.21,1.12-3.94,3.38-3.94,2.4,0,3.2,1.89,3.2,3.51,0,.23,0,.41-.02.61h-5.12ZM490,46.97c-.01-1.14-.57-2.06-1.78-2.06s-1.77.86-1.89,2.06h3.66Z"/>
      <path class="st0" d="M499.03,49.07c-.3,1.26-1.16,2.45-3.09,2.45-2.08,0-3.32-1.48-3.32-3.81,0-2.1,1.21-3.89,3.41-3.89s2.92,1.56,3,2.49h-1.4c-.17-.72-.61-1.32-1.63-1.32-1.23,0-1.93,1.06-1.93,2.68s.68,2.7,1.89,2.7c.88,0,1.38-.48,1.66-1.29h1.41Z"/>
      <path class="st0" d="M500.4,51.34v-2.21h1.5v2.21h-1.5Z"/>
      <path class="st0" d="M503.74,40.75h1.42v1.63h-1.42v-1.63ZM503.74,43.99h1.42v7.36h-1.42v-7.36Z"/>
      <path class="st0" d="M507.98,49.22c.2.76.77,1.21,1.72,1.21,1.02,0,1.41-.43,1.41-1.05s-.33-.94-1.67-1.26c-2.16-.53-2.59-1.19-2.59-2.2s.76-2.1,2.72-2.1,2.74,1.12,2.82,2.14h-1.37c-.1-.44-.42-1.07-1.52-1.07-.96,0-1.25.46-1.25.91,0,.51.29.77,1.61,1.08,2.27.54,2.7,1.3,2.7,2.39,0,1.28-1,2.25-2.92,2.25s-2.9-.99-3.08-2.3h1.41Z"/>
      <path class="st0" d="M513.19,43.99h1.25v-2.14h1.42v2.14h1.59v1.13h-1.59v4.18c0,.68.17,1.02.83,1.02.16,0,.42,0,.61-.05v1.04c-.33.12-.79.14-1.15.14-1.2,0-1.7-.63-1.7-1.86v-4.46h-1.25v-1.13Z"/>
      <path class="st0" d="M518.71,45.99c0-.97,0-1.56-.01-2h1.39c.02.2.04.81.04,1.46.37-.97,1.23-1.6,2.46-1.63v1.4c-1.5.03-2.46.74-2.46,2.63v3.5h-1.42v-5.36Z"/>
      <path class="st0" d="M529.84,49.2c0,.71,0,1.66.01,2.14h-1.38c-.03-.19-.04-.63-.05-1.05-.38.8-1.07,1.23-2.19,1.23-1.29,0-2.44-.67-2.44-2.7v-4.83h1.41v4.53c0,.94.29,1.79,1.45,1.79,1.27,0,1.77-.7,1.77-2.46v-3.85h1.42v5.21Z"/>
      <path class="st0" d="M531.27,50.22l4.12-5.06h-3.92v-1.17h5.53v1.17l-4.05,5.02h4.27l-.21,1.17h-5.73v-1.12Z"/>
      <path class="st0" d="M538.54,40.75h1.42v1.63h-1.42v-1.63ZM538.54,43.99h1.42v7.36h-1.42v-7.36Z"/>
      <path class="st0" d="M548.49,47.65c0,2.14-1.24,3.87-3.5,3.87-2.14,0-3.43-1.63-3.43-3.84s1.27-3.87,3.51-3.87c2.07,0,3.42,1.53,3.42,3.84ZM543.02,47.67c0,1.57.77,2.69,2.02,2.69s2-1.06,2-2.68-.72-2.69-2.02-2.69-1.99,1.03-1.99,2.69Z"/>
      <path class="st0" d="M550.1,45.84c0-.64,0-1.29-.01-1.85h1.38c.04.21.06.93.05,1.16.29-.6.88-1.33,2.28-1.33s2.45.87,2.45,2.81v4.72h-1.42v-4.55c0-1.06-.4-1.78-1.48-1.78-1.29,0-1.83.94-1.83,2.39v3.93h-1.42v-5.5Z"/>
      <path class="st0" d="M559.27,47.94c0,1.38.7,2.42,1.91,2.42,1.1,0,1.45-.55,1.68-1.07h1.43c-.28.93-1.08,2.24-3.15,2.24-2.33,0-3.3-1.87-3.3-3.77,0-2.21,1.12-3.94,3.38-3.94,2.4,0,3.2,1.89,3.2,3.51,0,.23,0,.41-.02.61h-5.12ZM562.98,46.97c-.01-1.14-.57-2.06-1.78-2.06s-1.77.86-1.89,2.06h3.66Z"/>
      <path class="st0" d="M565.83,51.34v-2.21h1.5v2.21h-1.5Z"/>
      <path class="st0" d="M569.17,40.75h1.42v1.63h-1.42v-1.63ZM569.17,43.99h1.42v7.36h-1.42v-7.36Z"/>
      <path class="st0" d="M571.85,43.99h1.25v-2.14h1.42v2.14h1.59v1.13h-1.59v4.18c0,.68.17,1.02.83,1.02.16,0,.42,0,.61-.05v1.04c-.33.12-.79.14-1.15.14-1.2,0-1.7-.63-1.7-1.86v-4.46h-1.25v-1.13Z"/>
    </g>
  </g>
</svg>