<?xml version="1.0" encoding="UTF-8"?>
<svg id="Livello_1" xmlns="http://www.w3.org/2000/svg" version="1.1" viewBox="0 0 193.78 193.88">
  <!-- Generator: Adobe Illustrator 30.2.0, SVG Export Plug-In . SVG Version: 2.1.1 Build 105)  -->
  <defs>
    <style>
      .st0 {
        fill: #fff;
      }
    </style>
  </defs>
  <path class="st0" d="M172.35,130.83c-2.2-2.21-5.19-3.45-8.3-3.43h-61.68v-8.29c0-10.96-9.01-19.7-19.97-19.7h-10.93c-4.69,0-9.03-2.51-11.38-6.57-2.35-4.07-2.35-9.08,0-13.15,2.35-4.07,6.68-6.57,11.38-6.57h10.93c5.29-.02,10.36-2.13,14.1-5.87,3.74-3.74,5.85-8.81,5.87-14.1v-2.07h49.61c1.87,0,3.4-1.52,3.4-3.4s-1.52-3.4-3.4-3.4H41.74c-1.87,0-3.4,1.52-3.4,3.4s1.52,3.4,3.4,3.4h53.85v2.07c-.02,3.49-1.41,6.83-3.88,9.31-2.47,2.47-5.81,3.87-9.3,3.89h-10.93c-7.12,0-13.7,3.8-17.26,9.97-3.56,6.17-3.56,13.76,0,19.93,3.56,6.17,10.14,9.97,17.26,9.97h10.93c7.22,0,13.18,5.69,13.18,12.92v8.29H29.67c-3.12-.03-6.11,1.21-8.3,3.42-2.2,2.21-3.41,5.21-3.38,8.32v41.32c-.04,3.12,1.17,6.13,3.37,8.35,2.2,2.21,5.19,3.46,8.31,3.46h134.37c3.12,0,6.11-1.24,8.31-3.46s3.41-5.22,3.37-8.35v-41.32c.04-3.12-1.18-6.12-3.38-8.32ZM169.37,180.4c0,2.81-2.28,5.09-5.09,5.09H29.87c-2.81,0-5.09-2.28-5.09-5.09v-41.13c0-2.81,2.28-5.09,5.09-5.09h134.41c2.81,0,5.09,2.28,5.09,5.09v41.13Z"/>
  <path class="st0" d="M120.95,170.56h-48.4c-1.87,0-3.4,1.52-3.4,3.4s1.52,3.4,3.4,3.4h48.4c1.88,0,3.4-1.52,3.4-3.4s-1.52-3.4-3.4-3.4Z"/>
  <path class="st0" d="M57.57,156.44h-16.75c-1.87,0-3.4,1.52-3.4,3.4s1.52,3.4,3.4,3.4h16.75c1.87,0,3.4-1.52,3.4-3.4s-1.52-3.4-3.4-3.4Z"/>
  <path class="st0" d="M73.78,163.23h16.75c1.87,0,3.4-1.52,3.4-3.4s-1.52-3.4-3.4-3.4h-16.75c-1.87,0-3.4,1.52-3.4,3.4s1.52,3.4,3.4,3.4Z"/>
  <path class="st0" d="M102.48,163.23h16.75c1.87,0,3.4-1.52,3.4-3.4s-1.52-3.4-3.4-3.4h-16.75c-1.87,0-3.4,1.52-3.4,3.4s1.52,3.4,3.4,3.4Z"/>
  <path class="st0" d="M152.19,156.44h-16.75c-1.87,0-3.4,1.52-3.4,3.4s1.52,3.4,3.4,3.4h16.75c1.87,0,3.4-1.52,3.4-3.4s-1.52-3.4-3.4-3.4Z"/>
  <path class="st0" d="M57.81,142.93h-16.75c-1.87,0-3.4,1.52-3.4,3.4s1.52,3.4,3.4,3.4h16.75c1.87,0,3.4-1.52,3.4-3.4s-1.52-3.4-3.4-3.4Z"/>
  <path class="st0" d="M74.02,149.72h16.75c1.87,0,3.4-1.52,3.4-3.4s-1.52-3.4-3.4-3.4h-16.75c-1.87,0-3.4,1.52-3.4,3.4s1.52,3.4,3.4,3.4Z"/>
  <path class="st0" d="M102.72,149.72h16.75c1.87,0,3.4-1.52,3.4-3.4s-1.52-3.4-3.4-3.4h-16.75c-1.87,0-3.4,1.52-3.4,3.4s1.52,3.4,3.4,3.4Z"/>
  <path class="st0" d="M152.44,142.93h-16.75c-1.87,0-3.4,1.52-3.4,3.4s1.52,3.4,3.4,3.4h16.75c1.87,0,3.4-1.52,3.4-3.4s-1.52-3.4-3.4-3.4Z"/>
  <path class="st0" d="M60.36,38.99c6.72,0,11.9-3.15,11.9-11.65v-14.2c0-8.5-5.18-11.65-11.9-11.65s-11.85,3.15-11.85,11.65v14.2c0,8.5,5.13,11.65,11.85,11.65ZM54.88,13.14c0-4.02,1.92-5.85,5.27-5.85s5.32,1.83,5.32,5.85v14.2c0,4.02-2.02,5.85-5.32,5.85s-5.27-1.83-5.27-5.85v-14.2Z"/>
  <path class="st0" d="M81.96,11.51c.48,0,.94-.16,1.31-.46l1.73-1.63v27.17c0,1.37,1.5,2.08,3.18,2.08,1.62,0,3.18-.72,3.18-2.08V3.53c0-1.33-1.54-2.13-2.92-2.13-.5,0-.98.18-1.35.51l-6,4.58c-.8.53-1.28,1.43-1.27,2.39,0,1.33.87,2.64,2.14,2.64Z"/>
  <polygon class="st0" points="88.17 38.69 88.17 38.69 88.17 38.69 88.17 38.69"/>
  <path class="st0" d="M113.79,38.99c6.72,0,11.9-3.15,11.9-11.65v-14.2c0-8.5-5.18-11.65-11.9-11.65s-11.85,3.15-11.85,11.65v14.2c0,8.5,5.13,11.65,11.85,11.65ZM108.31,13.14c0-4.02,1.92-5.85,5.27-5.85s5.32,1.83,5.32,5.85v14.2c0,4.02-2.02,5.85-5.32,5.85s-5.27-1.83-5.27-5.85v-14.2Z"/>
  <path class="st0" d="M135.32,11.51c.42,0,.82-.16,1.12-.46l1.54-1.63v27.17c0,1.38,1.71,2.08,3.4,2.08s3.4-.72,3.4-2.08V3.53c0-1.33-1.57-2.13-2.94-2.13-.5,0-.99.18-1.37.51l-6,4.58c-.8.53-1.28,1.43-1.28,2.39,0,1.33.87,2.64,2.13,2.64Z"/>
</svg>