<?xml version="1.0" encoding="UTF-8"?>
<svg id="Livello_1" xmlns="http://www.w3.org/2000/svg" version="1.1" viewBox="0 0 825.14 128.51">
  <!-- Generator: Adobe Illustrator 30.2.0, SVG Export Plug-In . SVG Version: 2.1.1 Build 105)  -->
  <defs>
    <style>
      .st0 {
        fill: #fff;
      }
    </style>
  </defs>
  <g>
    <path class="st0" d="M246.79,6.66v67.6h-16.47v-27.83h-25.63v27.83h-16.48V6.66h16.48v26.48h25.63V6.66h16.47Z"/>
    <path class="st0" d="M302.29,62.32h-25.24l-4.05,11.94h-17.25l24.47-67.6h19.08l24.47,67.6h-17.44l-4.05-11.94ZM298.05,49.61l-8.38-24.75-8.29,24.75h16.67Z"/>
    <path class="st0" d="M381.59,39.16c-1.8,3.24-4.56,5.86-8.29,7.85-3.73,1.99-8.35,2.99-13.88,2.99h-10.21v24.26h-16.48V6.66h26.69c5.4,0,9.96.93,13.68,2.79,3.72,1.86,6.52,4.43,8.38,7.7,1.86,3.28,2.8,7.03,2.8,11.27,0,3.92-.9,7.5-2.7,10.74ZM365.2,34.68c1.54-1.48,2.31-3.56,2.31-6.26s-.77-4.78-2.31-6.26c-1.54-1.48-3.89-2.21-7.03-2.21h-8.96v16.95h8.96c3.15,0,5.49-.74,7.03-2.22Z"/>
    <path class="st0" d="M443.25,39.16c-1.8,3.24-4.56,5.86-8.29,7.85-3.73,1.99-8.35,2.99-13.88,2.99h-10.21v24.26h-16.48V6.66h26.69c5.4,0,9.96.93,13.68,2.79,3.72,1.86,6.52,4.43,8.38,7.7,1.86,3.28,2.79,7.03,2.79,11.27,0,3.92-.9,7.5-2.7,10.74ZM426.87,34.68c1.54-1.48,2.31-3.56,2.31-6.26s-.77-4.78-2.31-6.26c-1.54-1.48-3.89-2.21-7.04-2.21h-8.96v16.95h8.96c3.15,0,5.49-.74,7.04-2.22Z"/>
    <path class="st0" d="M514.07,6.66l-23.41,45.26v22.34h-16.48v-22.34l-23.41-45.26h18.69l13.1,28.31,13.01-28.31h18.5Z"/>
  </g>
  <g>
    <path class="st0" d="M603.74,5.89v67.6h-16.65v-27.83h-25.9v27.83h-16.65V5.89h16.65v26.48h25.9V5.89h16.65Z"/>
    <path class="st0" d="M632.41,69.73c-5.35-2.95-9.61-7.08-12.75-12.37-3.15-5.3-4.72-11.25-4.72-17.86s1.57-12.55,4.72-17.81c3.15-5.26,7.4-9.37,12.75-12.32,5.36-2.95,11.25-4.43,17.67-4.43s12.32,1.48,17.67,4.43c5.36,2.95,9.57,7.06,12.66,12.32,3.08,5.26,4.63,11.2,4.63,17.81s-1.56,12.56-4.67,17.86c-3.12,5.3-7.34,9.42-12.66,12.37-5.32,2.95-11.2,4.43-17.62,4.43s-12.32-1.48-17.67-4.43ZM663.18,53.75c3.28-3.59,4.92-8.34,4.92-14.25s-1.64-10.74-4.92-14.3c-3.28-3.56-7.64-5.34-13.1-5.34s-9.92,1.77-13.19,5.3c-3.28,3.53-4.92,8.31-4.92,14.35s1.64,10.74,4.92,14.3c3.28,3.56,7.68,5.34,13.19,5.34s9.82-1.8,13.1-5.39Z"/>
    <path class="st0" d="M712.69,5.89v40.44c0,4.04,1.01,7.16,3.02,9.34,2.01,2.18,4.97,3.27,8.86,3.27s6.88-1.09,8.96-3.27c2.08-2.18,3.12-5.3,3.12-9.34V5.89h16.65v40.35c0,6.04-1.3,11.14-3.89,15.31-2.6,4.17-6.09,7.32-10.47,9.44-4.38,2.12-9.27,3.18-14.65,3.18s-10.21-1.04-14.46-3.13c-4.25-2.09-7.61-5.23-10.07-9.44-2.47-4.2-3.7-9.32-3.7-15.36V5.89h16.65Z"/>
    <path class="st0" d="M800.61,73.49l-14.22-25.52h-3.99v25.52h-16.65V5.89h27.94c5.39,0,9.98.93,13.78,2.79,3.8,1.86,6.64,4.41,8.52,7.65,1.88,3.24,2.82,6.85,2.82,10.83,0,4.49-1.28,8.51-3.85,12.04-2.57,3.53-6.34,6.03-11.34,7.51l15.77,26.77h-18.79ZM782.41,36.32h10.32c3.05,0,5.34-.74,6.86-2.22,1.52-1.48,2.29-3.56,2.29-6.26s-.76-4.59-2.29-6.07c-1.52-1.48-3.81-2.22-6.86-2.22h-10.32v16.76Z"/>
  </g>
  <g>
    <path class="st0" d="M206.44,97.34c2.31,1.19,4.1,2.89,5.36,5.09,1.26,2.2,1.89,4.76,1.89,7.66s-.63,5.45-1.89,7.62c-1.26,2.17-3.05,3.86-5.36,5.05-2.32,1.19-5,1.79-8.05,1.79h-10.14v-29h10.14c3.05,0,5.73.6,8.05,1.79ZM205.26,117.11c1.66-1.66,2.49-4,2.49-7.02s-.83-5.38-2.49-7.08c-1.66-1.7-4.02-2.55-7.07-2.55h-4.12v19.15h4.12c3.05,0,5.41-.83,7.07-2.49Z"/>
    <path class="st0" d="M222.97,100.24v7.27h9.77v4.61h-9.77v7.69h11.02v4.74h-16.84v-29.04h16.84v4.74h-11.02Z"/>
    <path class="st0" d="M244.17,119.94h9.56v4.61h-15.38v-29h5.82v24.39Z"/>
    <path class="st0" d="M262.34,119.94h9.56v4.61h-15.38v-29h5.82v24.39Z"/>
    <path class="st0" d="M292.48,119.02h-11.56l-1.91,5.53h-6.11l10.44-29.04h6.78l10.44,29.04h-6.15l-1.91-5.53ZM290.9,114.37l-4.2-12.13-4.2,12.13h8.4Z"/>
    <path class="st0" d="M332.27,95.55v4.69h-7.73v24.31h-5.82v-24.31h-7.73v-4.69h21.29Z"/>
    <path class="st0" d="M341.41,100.24v7.27h9.77v4.61h-9.77v7.69h11.02v4.74h-16.84v-29.04h16.84v4.74h-11.02Z"/>
    <path class="st0" d="M357.32,102.34c1.29-2.26,3.05-4.01,5.28-5.28,2.23-1.26,4.73-1.89,7.51-1.89,3.24,0,6.08.83,8.52,2.49,2.44,1.66,4.14,3.96,5.11,6.9h-6.69c-.67-1.38-1.6-2.42-2.81-3.12-1.21-.69-2.6-1.04-4.18-1.04-1.69,0-3.2.39-4.51,1.18-1.32.79-2.34,1.9-3.08,3.34-.74,1.44-1.1,3.13-1.1,5.07s.37,3.59,1.1,5.05c.73,1.45,1.76,2.58,3.08,3.36,1.31.79,2.82,1.19,4.51,1.19,1.58,0,2.97-.35,4.18-1.06s2.14-1.75,2.81-3.14h6.69c-.97,2.96-2.67,5.27-5.09,6.92-2.42,1.65-5.27,2.47-8.54,2.47-2.77,0-5.27-.63-7.51-1.89-2.23-1.26-3.99-3.01-5.28-5.26-1.29-2.24-1.93-4.79-1.93-7.65s.64-5.41,1.93-7.67Z"/>
    <path class="st0" d="M412.63,124.55h-5.82l-13.18-19.9v19.9h-5.82v-29.04h5.82l13.18,19.94v-19.94h5.82v29.04Z"/>
    <path class="st0" d="M423.27,95.55v29h-5.82v-29h5.82Z"/>
    <path class="st0" d="M428.62,102.34c1.29-2.26,3.05-4.01,5.28-5.28,2.23-1.26,4.73-1.89,7.51-1.89,3.24,0,6.08.83,8.52,2.49,2.44,1.66,4.14,3.96,5.11,6.9h-6.69c-.67-1.38-1.6-2.42-2.81-3.12-1.21-.69-2.6-1.04-4.18-1.04-1.69,0-3.2.39-4.51,1.18-1.32.79-2.34,1.9-3.08,3.34-.74,1.44-1.1,3.13-1.1,5.07s.37,3.59,1.1,5.05c.73,1.45,1.76,2.58,3.08,3.36,1.31.79,2.82,1.19,4.51,1.19,1.58,0,2.97-.35,4.18-1.06,1.21-.71,2.14-1.75,2.81-3.14h6.69c-.97,2.96-2.67,5.27-5.09,6.92-2.42,1.65-5.27,2.47-8.54,2.47-2.77,0-5.27-.63-7.51-1.89-2.23-1.26-3.99-3.01-5.28-5.26-1.29-2.24-1.93-4.79-1.93-7.65s.64-5.41,1.93-7.67Z"/>
    <path class="st0" d="M476.9,119.02h-11.56l-1.91,5.53h-6.11l10.44-29.04h6.78l10.44,29.04h-6.15l-1.91-5.53ZM475.32,114.37l-4.2-12.13-4.2,12.13h8.4Z"/>
    <path class="st0" d="M502.76,100.24v7.27h9.77v4.61h-9.77v7.69h11.02v4.74h-16.84v-29.04h16.84v4.74h-11.02Z"/>
    <path class="st0" d="M545.31,97.34c2.31,1.19,4.1,2.89,5.36,5.09,1.26,2.2,1.89,4.76,1.89,7.66s-.63,5.45-1.89,7.62c-1.26,2.17-3.05,3.86-5.36,5.05-2.32,1.19-5,1.79-8.05,1.79h-10.14v-29h10.14c3.05,0,5.73.6,8.05,1.79ZM544.13,117.11c1.66-1.66,2.49-4,2.49-7.02s-.83-5.38-2.49-7.08c-1.66-1.7-4.02-2.55-7.07-2.55h-4.12v19.15h4.12c3.05,0,5.41-.83,7.07-2.49Z"/>
    <path class="st0" d="M561.84,100.24v7.27h9.77v4.61h-9.77v7.69h11.02v4.74h-16.84v-29.04h16.84v4.74h-11.02Z"/>
    <path class="st0" d="M583.04,119.94h9.56v4.61h-15.38v-29h5.82v24.39Z"/>
    <path class="st0" d="M601.21,119.94h9.56v4.61h-15.38v-29h5.82v24.39Z"/>
    <path class="st0" d="M631.35,119.02h-11.56l-1.91,5.53h-6.11l10.44-29.04h6.78l10.44,29.04h-6.15l-1.91-5.53ZM629.77,114.37l-4.2-12.13-4.2,12.13h8.4Z"/>
    <path class="st0" d="M655.94,123.8c-1.62-.69-2.9-1.69-3.85-2.99-.94-1.3-1.43-2.84-1.45-4.61h6.24c.08,1.19.51,2.13,1.27,2.83.76.69,1.81,1.04,3.14,1.04s2.42-.33,3.2-.98c.78-.65,1.16-1.5,1.16-2.55,0-.86-.26-1.57-.79-2.12-.53-.55-1.19-.99-1.98-1.31s-1.88-.67-3.26-1.06c-1.89-.55-3.42-1.1-4.59-1.64-1.18-.54-2.19-1.36-3.04-2.45-.85-1.09-1.27-2.56-1.27-4.38,0-1.72.43-3.21,1.29-4.49.86-1.28,2.06-2.25,3.62-2.93,1.55-.68,3.33-1.02,5.32-1.02,2.99,0,5.42.73,7.3,2.18,1.87,1.45,2.9,3.48,3.1,6.09h-6.4c-.06-1-.48-1.82-1.27-2.47-.79-.65-1.84-.98-3.14-.98-1.14,0-2.04.29-2.72.87-.68.58-1.02,1.43-1.02,2.53,0,.78.26,1.42.77,1.93s1.15.93,1.91,1.25c.76.32,1.84.69,3.22,1.1,1.88.55,3.42,1.11,4.62,1.66,1.19.55,2.22,1.39,3.07,2.49.86,1.11,1.29,2.56,1.29,4.36,0,1.55-.4,2.99-1.21,4.32-.81,1.33-1.98,2.39-3.53,3.18-1.55.79-3.4,1.18-5.53,1.18s-3.85-.34-5.47-1.04Z"/>
    <path class="st0" d="M676.31,102.34c1.29-2.26,3.05-4.01,5.28-5.28,2.23-1.26,4.73-1.89,7.51-1.89,3.24,0,6.08.83,8.52,2.49,2.44,1.66,4.14,3.96,5.11,6.9h-6.69c-.67-1.38-1.6-2.42-2.81-3.12-1.21-.69-2.6-1.04-4.18-1.04-1.69,0-3.2.39-4.51,1.18-1.32.79-2.34,1.9-3.08,3.34-.74,1.44-1.1,3.13-1.1,5.07s.37,3.59,1.1,5.05c.73,1.45,1.76,2.58,3.08,3.36,1.31.79,2.82,1.19,4.51,1.19,1.58,0,2.97-.35,4.18-1.06s2.14-1.75,2.81-3.14h6.69c-.97,2.96-2.67,5.27-5.09,6.92-2.42,1.65-5.27,2.47-8.54,2.47-2.77,0-5.27-.63-7.51-1.89-2.23-1.26-3.99-3.01-5.28-5.26-1.29-2.24-1.93-4.79-1.93-7.65s.64-5.41,1.93-7.67Z"/>
    <path class="st0" d="M712.63,95.55v29h-5.82v-29h5.82Z"/>
    <path class="st0" d="M723.27,100.24v7.27h9.77v4.61h-9.77v7.69h11.02v4.74h-16.84v-29.04h16.84v4.74h-11.02Z"/>
    <path class="st0" d="M763.47,124.55h-5.82l-13.18-19.9v19.9h-5.82v-29.04h5.82l13.18,19.94v-19.94h5.82v29.04Z"/>
    <path class="st0" d="M774.24,119.65h13.05v4.9h-19.79v-4.49l12.97-19.61h-12.97v-4.9h19.79v4.49l-13.05,19.61Z"/>
    <path class="st0" d="M809.12,119.02h-11.56l-1.91,5.53h-6.11l10.44-29.04h6.78l10.44,29.04h-6.15l-1.91-5.53ZM807.54,114.37l-4.2-12.13-4.2,12.13h8.4Z"/>
  </g>
  <polygon class="st0" points="159.55 65.16 159.55 5.7 129.82 5.7 129.82 65.16 99.79 65.16 99.79 35.43 99.79 5.7 70.07 5.7 70.07 35.43 40.04 35.43 40.04 5.7 10.31 5.7 10.31 35.43 2.88 35.43 2.88 65.16 10.31 65.16 10.31 124.91 40.04 124.91 40.04 65.16 70.07 65.16 70.07 94.88 70.07 124.91 99.79 124.91 99.79 94.88 129.82 94.88 129.82 124.91 159.55 124.91 159.55 94.88 166.98 94.88 166.98 65.16 159.55 65.16"/>
</svg>