<?xml version="1.0" encoding="UTF-8"?>
<svg id="Livello_1" xmlns="http://www.w3.org/2000/svg" version="1.1" viewBox="0 0 397.85 142.04">
  <!-- Generator: Adobe Illustrator 30.2.0, SVG Export Plug-In . SVG Version: 2.1.1 Build 105)  -->
  <defs>
    <style>
      .st0 {
        fill: #fff;
      }
    </style>
  </defs>
  <polygon class="st0" points="163.68 62.11 163.68 0 132.63 0 132.63 62.11 101.25 62.11 101.25 31.06 101.25 0 70.2 0 70.2 31.06 38.82 31.06 38.82 0 7.76 0 7.76 31.06 0 31.06 0 62.11 7.76 62.11 7.76 124.55 38.82 124.55 38.82 62.11 70.2 62.11 70.2 93.17 70.2 124.55 101.25 124.55 101.25 93.17 132.63 93.17 132.63 124.55 163.68 124.55 163.68 93.17 171.45 93.17 171.45 62.11 163.68 62.11"/>
  <rect class="st0" x="217.84" y="0" width="3" height="124.55"/>
  <g>
    <g>
      <path class="st0" d="M323.92,18.84c.12,0,.26-.03.45-.06h-.71c.06.03.13.05.2.06h.06Z"/>
      <path class="st0" d="M321.84,14.79l-.21-.21s0,.01-.02.01l.21.21s.02-.01.02-.01Z"/>
      <path class="st0" d="M323.68,18.85s-.03.01-.05.02c.1.01.2.02.31.04-.04-.03-.12-.06-.26-.06Z"/>
      <path class="st0" d="M324.04,14.2h-.01s-.01.06-.01.08l-.1.33c.16-.18.27-.32.3-.38-.11.04-.18.05-.18-.03Z"/>
      <path class="st0" d="M322.08,15.32l-.2-.2c-.04.13-.1.27-.2.43h-.05l.21.22c.02-.15.03-.31.05-.45h.19Z"/>
      <path class="st0" d="M323.73,14.14s-.04.01-.06,0l.02.04s.02-.03.04-.04Z"/>
      <path class="st0" d="M326.36,19.36l.14-.16c-.18-.03-.33-.06-.46-.08l-.2.16c.17.03.34.05.52.08Z"/>
      <path class="st0" d="M326.28,18.93l-.08.06s.08-.04.12-.06h-.04Z"/>
      <path class="st0" d="M325.82,18.78h-.02l.08.08s-.04-.06-.06-.08Z"/>
      <path class="st0" d="M325.18,19.07c-.13-.07-.24-.09-.34-.08-.08.02-.17.05-.26.09.18.03.36.06.54.09,0-.03.03-.07.06-.1Z"/>
      <path class="st0" d="M324.91,18.8v-.02h-.06.01s.04.02.05.02Z"/>
      <path class="st0" d="M319.88,11.46l.36.08.79-.39.07-.06-1.22.37ZM323.16,10.23h.04s-.06-.04-.02-.05c.02.02.02.05.02.05.06.02.13.01.14-.03.09-.1-.11-.14-.13-.26-.52.14-1.05.2-1.36.5l-.73.64.12-.04.62-.3c.11-.06.22-.23.36-.12-.1.12-.23.2-.36.24l-.62.18-.21.11-.53.46,1.35.32c.28.07.66.03.96-.06-.02-.12.42-.74.64-1.11-.59-.15-.24-.29-.29-.53ZM322.33,10.39l-.04-.05.48-.04-.44.09Z"/>
      <polygon class="st0" points="319.48 11.92 319.61 11.54 317.2 12.27 317.28 13.02 319.48 11.92"/>
      <path class="st0" d="M321.87,18.96s0-.01.02-.02h-.01v.02Z"/>
      <path class="st0" d="M317.33,14.64l-.06-.25-.23.2c.06.1.12.18.21.25.09-.07.1-.13.08-.2Z"/>
      <path class="st0" d="M320.98,14.04l-.25,1.1c-.03.14-.06.26-.09.38.11-.12.22-.23.32-.34l.84-.87.09.07c.06.04.1.08.16.12.03-.05.07-.09.12-.12-.03.06-.05.1-.07.16.38.3.67.57.75.78h.41c.06-.06.11-.12.17-.18-.01-.24-.02-.57.11-.8-.55-.06-1.11-.14-1.65-.2l-.91-.1Z"/>
      <path class="st0" d="M378.34,130.76c.08,0,.16-.06.24-.14-.09.07-.2.01-.24.14Z"/>
      <path class="st0" d="M327.99,15.32h.71c-.28-.13-.62-.18-.71,0Z"/>
      <path class="st0" d="M322.01,18.82s-.06,0-.08,0l-.04.05h.07l.05-.04Z"/>
      <path class="st0" d="M323.03,33.72c.08.07.19.15.31.25-.04-.07-.08-.13-.11-.2l-.2-.05Z"/>
      <polygon class="st0" points="321.92 19.41 322.15 19.21 322.02 19.21 321.92 19.41"/>
      <path class="st0" d="M322,18.86c.16-.01.27-.02.36-.08-.13.03-.23.04-.33.04l-.03.04Z"/>
      <path class="st0" d="M321.94,14.92l.4.4h.03l-.42-.42s0,.01,0,.02Z"/>
      <path class="st0" d="M329.19,40.56c-.07.02-.15.03-.22.03.12.1.23.19.34.28.11.08.21.15.29.22.17.14.28.27.26.39l-.2.15c.06.29.45.34.67.29-.06-.04-.11-.08-.17-.12.09.01.23.04.24.11-.01,0-.03.01-.05.01.24.13.51.21.72.28.21.05.36.12.35.29l-.29.09c.63.25.71.25,1.47.64-.08,0-.15.05-.15.05.46,0,.91-.03,1.31-.03.1,0,.19,0,.28.01-1.71-.7-3.35-1.59-4.85-2.69Z"/>
      <path class="st0" d="M366.14,28.07c.15-.34.23-.7.33-1.08.11-.39.22-.79.32-1.21l-.14-.11c-.13.49-.24.83-.28.95.05-.29.03-.53-.05-.69-.07.52-.15,1.03-.25,1.53.04-.06.06-.11.1-.17-.08.31-.05.55-.03.78Z"/>
      <path class="st0" d="M370.01,18.18c.05-.03.07-.06.09-.08.01-.17-.01-.32-.2-.37l-.04.34c.07.03.13.07.15.11Z"/>
      <path class="st0" d="M367.92,18.3c.26-.1.45-.18-.27-.42h-.01c0,.17.01.35.02.52.07-.04.17-.07.26-.1Z"/>
      <path class="st0" d="M365.73,29.18h-.01v.05c.05-.12.09-.24.14-.36-.04.05-.09.14-.13.31Z"/>
      <path class="st0" d="M362.12,38.17c.31.04.24-.33.5-.52l-.25-.04h0c.69-.66,1.3-1.4,1.86-2.14-.87.44-1.59.76-1.91.69-.1.13-.2.26-.3.39.01.17.01.34.02.52.01.56.02,1.07.08,1.1Z"/>
      <path class="st0" d="M369.97,24.05s-.04-.09-.07-.14c.01.08.04.13.07.14Z"/>
      <path class="st0" d="M317.36,17.89s.09.04.12.08c.02.01.04.01.06.02-.02-.11-.04-.21-.06-.31-.12.02-.1.09-.12.21Z"/>
      <path class="st0" d="M361.15,15.17c-.07.04-.17.09-.27.15h.16l.11-.15Z"/>
      <path class="st0" d="M370.79,17.66c-.18-.02-.33-.03-.46-.04.01.05.04.08.05.12.1-.02.22-.05.41-.08Z"/>
      <path class="st0" d="M368.3,33.85c-.03.14-.07.26-.1.37.13.03.14-.06.22-.18-.04-.04-.06-.08-.07-.14-.02-.02-.03-.04-.05-.05Z"/>
      <path class="st0" d="M340.07,29.09c.2-.62.55.17.83.08l.23.04.08.04c-.02.07-.08.14-.25.19.16-.06.47.14.52-.07.25.1.5.2.75.29.01.03.03.07.03.12.04-.03.05-.06.06-.09,1.09.34,2.18.48,3.27.45-.17-.05-.29-.19-.45-.26.25-.41-.26-.09-.17-.48.11-.14.25-.09.35.01.03-.2-.09-.38-.07-.62-.35-.27-.46.7-.82.5.04-.24.17-.43-.07-.42l.07-.05c-.41.22-.2-.57-.55.04l.07-.34c-.21.22-.54.16-.73.16l.03-.06c-.63.22-.32.01-.95-.04.14-.1.27-.19.4-.29-.14-.23-.33.17-.46.07.03-.05.07-.21.16-.28-.27.09-.55.18-.84.23-.29.15-.08.25-.11.4h0c-.17.16-.43-.12-.34-.32.08-.05.29-.05.25-.22-.17.12-.34.24-.51.35-.08-.25.08-.37.28-.44.19-.08.43-.12.55-.16-.27-.22-.54.05-.87-.16.07.1.06.26.06.39-.19.34-.43-.01-.68-.14.05.24-.11.3-.31.34-.03,0-.05,0-.08.02l-.07.02.03.02s-.05.08-.08.15c.28.07.26.43.4.53Z"/>
      <path class="st0" d="M357.96,40.5c-.21.15-.42.3-.64.45.17-.04.33-.1.46-.18.12-.08.19-.18.18-.27Z"/>
      <path class="st0" d="M336.41,13.69s0,0-.01.02c.01,0,.02-.01.03-.01t-.02,0Z"/>
      <path class="st0" d="M344.99,133.2h0s-.01.02-.01.02c-.01,0-.02-.01-.03-.01v.03s.01.03.01.03c-.06.09-.15.08-.25.11h-.01l-.09-.08c.19,0,.16-.11.29-.11h0s0-.01.01-.01.03.01.05.02h0s.02,0,.03,0Z"/>
      <path class="st0" d="M335.15,15.04h0s.02,0,.02,0h-.02ZM335.15,15.04h0s.02,0,.02,0h-.02ZM339.6,15.04c.11-.16.21-.32.38-.48.01-.01.03-.02.04-.03-.01-.01-.01-.03-.02-.04-.07-.11-.17-.22-.33-.3.08-.01.14-.07.15-.14,0-.02,0-.03-.02-.05v-.02s-.04-.06-.1-.07c0,.01,0,.02-.02.03-.02,0-.06.03-.09.05t-.01.01c-.1.04-.19.09-.24.16-.01,0-.01.01-.01.01h-.01s0,.01.01.02c-.01,0-.02.02-.01.04,0,.03.01.06.03.09v.02h-.04s-.01.01-.01.01h-.02c-.11.01-.22,0-.34-.02-.43-.06-.93-.23-1.47-.29-.06.09-.14.15-.4.2.02-.09.06-.16.11-.21-.11,0-.21,0-.32.02,0,.12-.03.25-.04.36,0-.09-.13-.13-.56-.11h0s-.13.8-.13.8c-.3-.02-.72-.03-.97-.05l-.11.02v-.04h.01s.06.01.1.01h0s.02,0,.02,0c.38-.08.74-.2.94-.6-.51-.08-1.54.02-1.59-.36-.59.33-1.11.78-1.63,1.24h1.42c.2-.14.46-.2.72-.25-.02.11.01.18.06.25h1.74l.06-.17-.41-.06h.01c-.24-.16.27-.46.33-.65.01.16.1.26.49.18-.23.11-.37.36-.71.45l.38-.03c.15.06.07.17.07.28h.44c.04-.09.05-.17.09-.25-.03-.03-.08-.07-.16-.11.05-.03.14,0,.24.03.04-.02.09-.04.16-.05h0v.1c.15.05.32.1.45.04-.04.08.01.16.09.24h.94s.04-.03.06-.03c-.01.01-.02.02-.03.03h.31s-.09-.07-.13-.11c-.02.01-.04.01-.06.01,0-.01.02-.02.03-.03-.06-.05-.13-.1-.21-.13l.31-.02h.03ZM333.8,15.06c.16-.37.31,0,.49.12-.17-.03-.44.03-.49-.12ZM334.16,14.6l.32-.16.03.05-.35.11ZM337.08,15.1l-.04-.05.37-.18.04.05-.37.18ZM338.27,15.08s.06-.1.17-.15c-.05.08-.11.12-.17.15Z"/>
      <path class="st0" d="M351.71,18.26c0,.17,0,.34-.01.5-.21.29-.33.18-.44.06.01.04,0,.07-.05.1.14-.04.53.33.49-.07.41-.11.25.19.38.27.07-.1.27-.03.4-.08-.06-.05-.19-.08-.18-.18.17-.1.33.01.29.14.17-.2.36.1.47-.14-.25-.4-.53-.67-1.19-.71.18.17.4.4.3.63l-.37.03c.23-.29-.04-.34-.09-.55Z"/>
      <path class="st0" d="M356.91,41.81s-.03.02-.06.02l.47-.65c-.13.03-.26.04-.37.02-.28.19-.55.36-.84.53-.04,0-.05.02-.06.03-.02.01-.03.02-.04.02-.03.1.11.29.34.54.18-.17.37-.34.56-.51Z"/>
      <path class="st0" d="M342.41,45.03h0s-1.03.08-1.03.08h-1.03c.11-.07.21-.14.28-.22-.51-.05-1.01-.12-1.5-.21-.2.01-.41.02-.58.08-.06-.1-.1-.16-.11-.21-.34-.07-.69-.14-1.03-.23.02.17-.14.32-.51.34l-.05.07c.68.29,1.75.91,2.28.63l-.16.16c.81.46,1.93-.43,2.25.33-.06.28.17.08.12.48l.67-.29-.14.18,1.1-.05-.03.08c.53-.34.92-.65,1.23-.92,0-.14-.02-.2.04-.29-.6.02-1.2.02-1.8-.01Z"/>
      <path class="st0" d="M329.88,15.32l.11-.12c.01-.12-.02-.3-.06-.52-.08.02-.16.03-.24.05-.08.08-.2.14-.42.14l-.5.25c.11.05.21.12.28.2h.83Z"/>
      <path class="st0" d="M351.48,20.01s-.02-.03-.02-.05l.55-.09c-.12-.05-.08-.11-.1-.17.23.06.46.14.69.23.51-.19.16-.49.34-.67-.42.26-.25-.07-.57.31l-.52-.07.06-.29c-.17.03-.35-.12-.47.05.04.02.1.05.09.1-.37.05-.26-.28-.61-.11.15.16.07.2.4.25.01.19-.07.33-.19.43.07.04.29.02.35.08Z"/>
      <path class="st0" d="M354.2,43.95c-.36-.31-.7-.59-1.15-.71-1.54.62-3.14,1.08-4.78,1.38l-.04.16.68-.08-.76.21c-.18-.01-.11-.14-.12-.24-.19.03-.37.06-.55.09-.17.11-.21.22.15.33-.17.1-.71-.15-1.03,0-.02.06-.07.12-.18.18.04-.09.11-.14.18-.18.03-.08-.02-.15-.1-.2-.5.05-.99.09-1.49.12.14.09.27.18.45.23l-.98.09c-.07.3.03.62.53.8-.2.02-.28.26-.02.29.02-.08.66-.22.4-.45.48-.05,1.11,0,1.82.04.65.05,1.37-.05,2-.42-.64.44.99.16-.08.5.92.29.6-.58,1.42-.73.11.15-.44.11-.56.47.72-.06,1.23-.46,1.72-.8.51-.34.96-.75,1.6-.94l.19.33c.22-.14.47-.29.72-.46h-.02ZM351.24,44c.2-.01.53-.19.64-.06-.07.44-.41.06-.64.06ZM352.54,43.84l.35-.34.13.06-.48.28Z"/>
      <path class="st0" d="M366.49,19.18c.07-.03.11-.02.14.05.69-.19,1.47-.49,2.25-.35-.51.13.59.29.27.58.15.05.31.08.47.08.15.03.42-.06.37.15.05.27.14.49.23.73.19.46.34.99.06,1.89-.08,0-.28-.16-.39.31.03.1.04.26.04.43,0,.27-.03.58-.04.78h0s.01.03.01.05l.17.17s-.04.03-.05.03c.27.45.57.66.74,1.86.4-.18.34-1.28.26-1.7-.12-.09-.24-.18-.35-.26.62-.64,0-1.1.2-1.49.65.44.27,2.81.59,4.14.61-.96.85-3.01.9-4.71-.09.3-.18.59-.28.87.02-.29.04-.59.05-.89-.15.36-.3.72-.46,1.06.12-.8.06-1.46.11-2.17-.08.83-.58,1.37-.48.87.43-1.19-.2-.83-.14-1.55-.05.43-.09.94-.29.76.27-.84.33-1.33.4-1.79.04-.24.07-.47.13-.75-.14-.09-.34-.15-.53-.3-.14.18-.34.24-.57.25.01.17.02.34.03.51-.26-.08-.26-.29-.24-.5-.09,0-.17-.01-.26-.01-.43-.04-.88-.09-1.2.14l.51.09-1.47.27h-1.18l.03.03-.35.24c.14.03.27.07.32.13Z"/>
      <path class="st0" d="M330.21,130.5c-.06,0-.12-.01-.17-.04.05-.02.09-.02.14-.03l.03.07Z"/>
      <path class="st0" d="M330.35,130.41s-.05.06-.08.07c-.01-.02-.02-.04-.02-.06.03-.01.07-.02.1-.01Z"/>
      <path class="st0" d="M380.66,132.55c.12.21-.45-.31-.62-.06-.01.01-.02.02-.03.04.03.19.13.27.23.29-.01-.07-.02-.16-.06-.24.25.12.41,0,.7.11-.02-.11.07-.28-.22-.14Z"/>
      <path class="st0" d="M344.59,133.34s-.02-.01-.03,0v-.12s.02.08.03.12Z"/>
      <path class="st0" d="M344.14,133.44s-.06-.01-.09-.04l.07-.02s0,.04.02.06Z"/>
      <path class="st0" d="M325.95,132.58s0,.05,0,.08c-.06.05-.11.04-.15.01.05-.07.11-.09.16-.09Z"/>
      <path class="st0" d="M318.34,133.7c-.1.04-.2.05-.29.05v-.03c.1-.12.21-.09.29-.02Z"/>
      <path class="st0" d="M331.07,130.68s-.03,0-.05-.01c.01-.02.03-.02.04-.03v.04Z"/>
      <path class="st0" d="M326.64,132.62s-.02.02-.03.04c-.02-.02-.05-.04-.06-.06.01-.01.02-.01.03-.01h.02s.02.02.04.03Z"/>
      <path class="st0" d="M392.9,131.52l.15.06c.1-.27-.03-.09-.15-.06Z"/>
      <path class="st0" d="M392.9,131.52l-.1-.04s.06.05.1.04Z"/>
      <path class="st0" d="M391.93,131.34c.22-.22.49.08.63-.25-.22-.2-.57-.11-.63.25Z"/>
      <polygon class="st0" points="392.1 131.65 392.27 131.55 392.3 131.37 392.1 131.65"/>
      <polygon class="st0" points="392.08 131.83 392.41 131.71 392.38 131.65 392.08 131.83"/>
      <path class="st0" d="M391.35,130.85c-.29-.11-.02.22-.17.35h0s.22-.05.22-.05c.21.25-.14.33,0,.5.28,0,.1-.51.44-.43-.03-.23-.56,0-.5-.36Z"/>
      <path class="st0" d="M377.73,133.17l-.03-.03s.02.07.03.03Z"/>
      <path class="st0" d="M373.96,133.46l.09-.02c-.05-.04-.1-.06-.14-.07h0s.03.07.06.1Z"/>
      <path class="st0" d="M356.59,131.06l-.04.1.03.02s.02-.06.02-.11h0Z"/>
      <path class="st0" d="M369.76,134.04c.1,0,.14-.01.16-.04,0,0,0,0,0,0-.06,0-.11.01-.16.04Z"/>
      <path class="st0" d="M381.36,132.46h-.06s.04.03.07.04v-.03s-.01,0-.01,0Z"/>
      <path class="st0" d="M387.61,130.83c.04.05.09.06.16-.04-.06-.03-.11-.01-.16.03,0,0,0,0,0,0,0,0,0,0,0,0Z"/>
      <path class="st0" d="M385.62,130.79s-.02-.04-.02.01c0,0,.01,0,.02-.01Z"/>
      <path class="st0" d="M377.75,133.08s0,0,0,0c.01.09.1.05,0,0Z"/>
      <path class="st0" d="M383.16,132.83l-.02-.02c0,.05.01.05.02.02Z"/>
      <path class="st0" d="M378.67,132.68h.1s-.06-.03-.1,0Z"/>
      <path class="st0" d="M355.54,130.54c-.02-.14,0-.19-.14-.27-.12.22.07.55-.14.79.04-.02.1-.01.16.02-.09-.2,0-.4.09-.58h0s.03.03.03.03Z"/>
      <path class="st0" d="M350.56,133.7l-.14.19c.13.06.24,0,.34-.01h0c.07-.36-.06.02-.2-.18Z"/>
      <path class="st0" d="M346.78,133.95s-.05-.03-.06-.05c.02.02.06.05.06.05Z"/>
      <path class="st0" d="M356.21,131.24l.51.02-.15-.09c-.07.18-.29-.15-.36.07Z"/>
      <path class="st0" d="M337.19,130.19c.05.31-.34.51-.29.7-.03.01-.05.02-.07,0,0,0,0-.01.02-.02-.26-.03-.42-.09-.69-.15-.03.2-.27.06-.39.12.04-.06-.15-.09-.23-.14l-.15.14c-.14.13-.2-.12-.39-.05l.05.04c-.14.06-.5-.11-.64-.25-.13.04-.26.07-.38.09.28-.25.75-.19.89-.65-.1.15.14.29.14.47.12-.2.29-.18.36-.24l-.13-.1c.3.15.7-.27,1.05-.32v.11c.27-.08.5-.4.8-.32-.14.14-.01.44.05.58Z"/>
      <path class="st0" d="M391.13,130.96c-.15-.03-.47-.13-.41.09l.05.05c-.01.13-.09.18-.13.25-.21,0-.1-.23-.14-.33-.35-.08-.03.51-.35.5l-.04-.1c-.15.13-.36.15-.43.44-.17-.26-.36.16-.51-.04-.03-.73.54.05.72-.35-.16-.15.08-.33.15-.49l-.51.29c-.04-.09-.2-.46-.29-.2l.03.02c-.21.1-.15.38-.33.28-.03-.07.03-.18.04-.23-.17-.07-.14.16-.25.23-.17-.06.08-.3-.06-.38-.19.28-.31-.07-.47-.05.07.41-.67.56-.31.92l-.4.29c-.13-.22.27-.58.16-.93l.32.02c-.05-.5-.64.29-.87-.21.05.01.11.02.19.04.12.11.2-.13.32-.24-.07-.1-.11-.33-.18-.33-.03,0-.06.06-.11.23l.03.07c-.09-.11-.21.08-.31.1.01.04.02.07.03.1-.15-.02-.13.04-.44-.21l.06.47c-.17-.11-.22-.36-.23-.44h-.01c-.09.02-.18.01-.27,0,.02-.07.06-.13.12-.16-.13-.25-.16-.16-.2-.02-.07.11-.18.1-.28.1l.07-.15c-.06.02-.12.06-.13.15-.04,0-.08.01-.12.04.03.08.1.34.25.46-.39-.18-.7-.08-1.03-.46.01-.13.15-.29.11-.31-.17-.07-.35.16-.34.36-.04.01-.07.02-.09.02-.03-.11-.07-.24-.15-.26-.02-.04-.04-.08-.11-.09-.05.37-.37.19-.44.35.07.04.17.03.26.02-.14.25-.26.53-.36.33.25-.24-.27-.38.11-.48-.26-.46-.14.33-.42.16l-.18-.18c.03-.27.29-.13.25-.23l-.12.03c.12-.2.6-.07.89-.36l-.59-.15c-.74.32-1.65-.05-2.28.54.01,0,.02,0,.03-.01-.01.03-.02.07-.02.17l-.03-.06-.13.19c-.15-.24-.4-.29-.62-.48.09.11.14.22.15.36-.03.26-.05.37-.26.28,0-.16.1-.19,0-.28.03.08-.04.17-.11.2-.12-.12-.32-.15-.32-.34.06-.05.1,0,.14.04.05-.05-.15-.15-.08-.27.01.14.17.27.09.12.01-.05-.03-.12-.08-.17h-.02l-.18.05c-.13-.16.08-.25.03-.35-.35.13-.53.56-.85.69.01-.08.01-.33.01-.4-.17-.09-.37.18-.57.35-.08.08-.16.13-.24.14.04-.13.15-.07.24-.14-.86-.16-1.56-.17-2.37-.57l-.21.44-.21-.29c-.85-.27-1.5,0-2.3.13-.25.03-.15-.3-.27-.42-.55-.05-.68.44-1.21.54.08-.13.2-.51-.02-.53-.04.13-.07.32-.22.25l.08-.13c-.13-.2-.26-.02-.53-.1-.47.02-.93.32-1.32.8-.42-.05.05-.47-.03-.56.29.16.2-.08.27-.23-.16.12-.35.2-.43-.11-.18.01-.29,0-.45.17.06.02.1.14.02.24-.18-.11-.64,0-.61-.38-1.04.07-2.2,0-3.31.01-.19.2.14.08.04.22-.27.26-.22-.14-.43.07l.09-.21c-.33-.03-.67.36-.99.55.05-.23-.24-.19-.01-.34-.15,0-.33-1.03-.45-.81l.17.99c0,.1-.2.05-.2.1-.15-.2-.31-.42-.4-.42-.04-.25.19-.2.32-.19.01-.43-.44-.27-.25-.66-.27.07.04.22-.12.37l-.23-.08.17.13c-.2.13-.27.45-.54.21l-.28.41c-.02-.33-.2-.06-.34-.13l.09-.21c-.18,0-.26-.05-.38-.17.11-.3.17.06.22-.21l-.21-.1c0,.19-.13.34.02.45-.19.36-.3.65-.78.62-.22-.33.23-.29.14-.61-.5-.13-.61.84-.9.8-.38-.13-.36.17-.73.19.12-.22-.27-.23-.34-.44l.15-.23c-.1.06-.19,0-.2-.11-.07.23-.51.22-.75.35l.05.25c-.21.09-.49.25-.71.18l-.12-.02s.05.03.08.04c-.26.09-.22.3-.45.56-.14-.23-.12-.5-.08-.77.09.13.24.05.38.13.4-.22.72-.75,1.13-.63.17-.61-.28.08-.48-.14.01-.04.03-.05.04-.06-.02,0-.04,0-.05-.02.14-.07.38-.17.42-.48-.25.06-.18.62-.48.35-.22.17-.41-.32-.54-.36-.15.23-.16.73-.53.63l.16-.34c-.41-.01-.19.49-.57.49.11.06-.13.34.12.35-.13.18-.41.21-.62.12-.06.05-.01.12-.02.23.23.24.36-.23.56.11l.16-.37c.21.14.24.43.11.58.06-.02.1-.06.15,0,.03.55-.26-.2-.34.27l.16-.04c.06.36-.36.32-.56.29-.22-.17-.42-.23-.43-.5l.22-.11c-.15-.14-.31.13-.48.11-.01-.02-.02-.04-.04-.04,0,.01,0,.02-.01.02-.02,0-.03-.03-.04-.05-.02-.05-.07-.09-.11-.12h0s.02.06.03.09c-.16.01-.35.13-.48.05l.02.12h.01c.09-.01.2.06.24.15-.01.06-.01.12-.02.17-.31.15-.37-.3-.44-.5.07-.36.3,0,.46-.12-.09-.35-.32-.04-.64-.27.13-.39.37,0,.45-.36-.26-.07-.33.21-.61.12.04-.19.31-.2.29-.43l-.11-.11c.3-.1-.14-.49.2-.59-.16-.15-.23.32-.46.07.07.17.25.48.03.64l-.24-.12c-.1-.19.25-.41.1-.57l-.26.13c.01.11.13.17.06.33-.15-.12-.25.45-.42.62-.14,0-.25-.03-.3-.17-.36.35-.8.33-1.12.66.22-.23-.02-.39-.15-.57.26-.05.26-.42.24-.65-.15.04-.25.42-.17.53-.26-.14-.18.26-.41,0-.15-.12.07-.36.02-.5-.28,0-.07.45-.38.36.02-.05.05-.06.02-.13-.16-.07-.31.07-.37.25-.21-.42-.49.08-.46-.38-.39.12.06.25-.01.41-.16.21-.47.04-.56-.03.1-.01.19-.14.28-.06l-.08-.32c-.49-.23-.32.73-.79.45.24-.17.08-.25.21-.47-.08.08-.45-.01-.23.23-.17-.03-.3-.08-.42-.14-.16.13-.34.21-.43.42-.25-.03-.43-.26-.55-.4-.52.24-1.01-.16-1.57.09l.04.02c-.42-.06.19.42-.25.41.05-.39-.27-.27-.41-.47-.55-.2-.95.29-1.46.02,0-.08.04-.18.14-.19-.39-.12-.69-.04-1.04-.07v-.04c-.54-.32-1.05.06-1.63.16.05-.05.06-.18.1-.24.01.01.03.01.05.02-.04-.05-.07-.06-.09-.04-.29-.09-.72-.13-.92.22-.34-.39-.22.12-.67-.26-.02-.07.05-.06.07-.08-.21-.13-.37-.09-.59-.13-.48.25-.61.75-1.17.6-.03-.47.26-.22.34-.45l.09.2c.15-.13-.11-.11-.02-.23.01-.01.03-.01.04-.01.07,0,.11.11.18.14.18-.34-.38-.01-.11-.31-.08,0-.14.04-.2.09v-.02s-.01.02-.01.03v.03c-.09.09-.18.16-.32.05.09-.21.03-.13.09-.32-.12-.15-.48.55-.48.5-.01.11.03.16.15.15-.13.33-.56.02-.83.16.09.01.37.11.26.36-.33-.1-.46.31-.68.55.15,0,.34.1.4.14.05-.01.09-.02.13-.02h.01s.05,0,.07-.02c.03.01.06.02.08.04.1-.01.16-.04.23.08l-.02.04s.07.01.08,0c.02-.04.03-.09.04-.14.04.01.07.04.08.08.18-.01.33.03.49.05.09-.07.19-.12.33-.09.02.02.03.06.04.1.32.05.64.09.93.13.24-.03.49-.01.75.08h.06s-.01,0-.02.01c.04.01.07.01.1.02l.16.25.15-.35c.58.36,1.1.39,1.72.54-.06.05-.14.01-.17.1.21-.02.41-.44.59-.34,0,.06-.01.24-.01.29.23-.08.36-.38.62-.45.04.07-.12.12-.03.24l.16-.02c-.12.1.08.19.04.22-.02-.02-.05-.06-.09-.03,0,.13.14.16.23.24.05,0,.1-.08.07-.14.08.08.01.08.01.2.15.08.17,0,.19-.18-.01-.12-.01-.13-.08-.21.15.12.33.16.42.32l.09-.13.02.02s.02-.08.02-.08c.46-.34,1.11-.06,1.64-.19l.43.13c-.21.14-.54.05-.64.14h.08s-.16-.04-.18.11l.13.12c.2.09.11-.35.3-.08-.27.04.11.14-.08.26.08.11.17-.04.27-.17-.07,0-.14,0-.19-.02.05-.08.28.03.32-.16.04.01.06.03.08.05.05.02.08.08.1.15.01,0,.02-.01.02-.01h.05c-.01-.11.12-.22.24-.17.03.01-.07.08-.08.15.24.2.45.16.73.26-.1-.08-.14-.18-.16-.22.02-.01.05-.01.09-.01,0-.04.06-.06.11-.07l-.07.07c.07.01.15.02.2-.03.03-.05.05-.09.15.03-.05,0-.07.03-.09.06.07.01.13.02.2.01.01.03.05.15.17.19l-.04-.19c.24.12.21.08.33.1.15.23.6-.07.64.12l-.23-.02c.08.13-.21.27-.12.35l.29-.11c-.26-.13.28-.18.22-.32.12,0,.2.12.35.04.1.03-.08.1.04.12.08-.02.06-.09.18-.06-.01.01-.05.04-.03.06.13.04.1-.04.22-.07.06-.07.18.04.21.06.12-.02.24-.04.37-.05-.06.02-.21.06-.12.1-.13.09-.54-.11-.51.09.11.05.27-.07.37.01.03-.07.2-.07.31-.1l.03.02c.23,0,0-.12.25-.09.04.02-.05.07.11.07.03-.01.1-.04.1-.04h-.04c-.04-.05.19-.02.3-.01-.06.01-.08.04.02.06-.09-.01-.13.01-.16.03,0-.02-.01-.02-.03-.03-.13-.04-.25.02-.42.05h.11c.04.09-.27.08-.33.19h0c-.05,0-.12.02-.16.02l.07-.06c-.23-.08-.18.06-.43.03.02-.05.38-.09.18-.13,0,.07-.16.02-.18.07l-.16-.1c-.09.03-.2.06-.28.07.01-.02.02-.02.03-.03-.14,0-.22-.1-.32-.06l.05.04c-.16,0-.22.01-.29.05-.04.06.01.1.08.13-.08,0-.16-.02-.16.04-.08-.07-.17-.02-.2.04-.14-.04-.05-.06-.06-.13-.12.04-.39-.03-.35.12.01.01.03.01.05.01.07,0,.14-.01.1.06-.03-.05-.05-.04-.08-.01h0s-.01.01-.01.01c-.03.03-.04.05-.07.05.03.01.07.02.1.03-.02-.02-.03-.03-.02-.06.12.18.36.19.29.01.3-.11.21.01.24.08l.17-.17c.2.01.08.35,0,.51.2-.27.41-.07.62-.02l-.09.12.29.05c.19-.22.46-.23.7-.12l-.17.38c.17.19.09-.14.14-.2.27-.18.33.07.47.28.43-.38.85.55,1.22.08l.04.19c.5-.46,1.09.2,1.5-.45.62.77.4-.69.97,0l-.02-.1c1.88.13,3.86.53,5.61.16v.15c2.82.26,5.57-.06,8.36.06.26-.14.1-.48.33-.65.1.01.32,0,.32.18-.19.1-.09.27-.15.35h.04c.32,0,.69.19.97-.04l-.24-.24c.11-.11.28-.04.38-.03-.04.12.09.36.04.43.57-.57.45.29.94.05.09-.52.72-.95,1.13-1.31l.22.13c-.29,0,0,.38-.35.36.3.14.56-.08.85.01h.01c-.06-.13-.04-.3.07-.36.17.07.19.33.38.36l-.19.16c.13.2.24-.06.36-.09.04.22.34.26.28.5.27-.3.36-.13.65-.32-.3-.23.07-.29.04-.47l-.33.09c.47.14-.16.04-.12.41-.23-.17.3-.61-.07-.56.44-.18.53-.02.99-.33-.27.07.05-.24-.1-.35.35-.01.09.13.2.37.18-.02.25.19.43-.08.31.12-.05.28.11.43-.12.26-.86-.31-.77.5-.16.01-.36.32-.59.3.2.11.49.38.74.19v-.46c.2-.01.24-.32.38-.27-.08.13.05.32.21.28-.05-.06-.1-.05-.09-.13.28-.04.32-.28.59-.43-.21-.13-.27-.26-.52-.46.06-.32.18-.05.33-.09-.02.05-.06.06-.01.12l.16-.16c.35.14-.05.47.24.63.19.26.27-.15.42,0,0-.03-.02-.07-.03-.08.04,0,.06,0,.08.02v-.02c.18-.05.37-.03.43-.26.03.09.16-.04.22-.11.1-.1.35-.39.5,0,.22.05.39.17.35.3l.37.09-.04.32c.33-.09.3-.27.53-.59.24.19.66.04.82-.08.02.01.06.01.13,0l-.14-.12c.25.01.22-.15.39-.16-.02-.03-.01-.03.07,0,.03,0,.06.01.09.02-.01.04-.04.03-.08.02l.03.1c.21.33.32-.19.54-.08-.02.02-.05.04-.08.03.13.09.31.53.36.26.03.03.08-.02.12-.09.05-.09.11-.2.12-.13l.32.05c.06.05.14,0,.21-.04h.01c.09-.05.14-.12.04.07l-.03-.02.03.09c.12-.02.12.05.11.09.4.45.62-.23,1.06.16.09-.22-.1-.32-.11-.44.07-.16.32-.31.44-.43.2.3.8.56.7.99.36.04-.11-.27.07-.41h.02c-.11-.06-.2-.2-.27-.35-.03-.24.29-.3.39-.24l-.07.33c.34-.11.26-.61.47-.94.27.13.12.43.17.73l.28-.09v.25c.19-.06.23-.29.48-.2-.19.24.37.24.12.55.14.09.18-.38.25-.09.08-.24-.12-.11-.19-.19-.06-.39.31-.19.47-.28.01.2-.11.23.09.36.04-.15.15-.26.28-.09.01-.23.22-.04.33-.03-.12-.05-.31-.23-.22-.44.1-.1.18-.15.4-.12l-.15-.11c.19-.37.32.26.59.15-.11.14-.17.15-.26.31.12-.12.35-.29.54-.4l.22.37c.03-.19.25.01.25-.24.28.17-.22.3-.25.48.35.17.28-.41.61-.03l-.11.23c.1.02.29-.09.34-.02,0-.06-.06-.03-.12-.03.07-.5.52-.35.48-.86l-.16-.03c.24-.1.41-.45.59-.27.14.16-.1.35-.18.48.22.03.18-.55.43-.52-.13-.09-.1-.26-.02-.4ZM344.07,131.69s.07.08.06.12c.07.12-.09-.02-.06-.12ZM347.18,131.99l-.06-.06c.09-.08.29-.12.46-.11-.08.15-.26.08-.4.17ZM347.8,132.27s.04-.05.06-.07c-.09-.03-.16-.04-.19.05-.09-.1,0-.24.1-.32-.02.13.15.19.27.27-.1.04-.12.02-.24.07ZM348.48,132c.04-.09.16.08.23-.03-.02.11-.17.02-.23.03ZM349.41,132.12l-.19-.07c.03-.09.26.03.19.07ZM349.25,132.46c-.07-.02-.12-.03-.16-.03-.01-.02-.02-.03-.02-.05.06,0,.15-.08.22-.02l-.03-.03c.11-.19.13-.01.21.05-.08.04-.14.12-.22.08ZM351.49,132.5l.03-.03s.1.06.1.06l-.13-.03ZM350.07,133c-.1,0,0-.06-.13-.02.03-.07.14-.07.23-.04l-.1.06ZM351.78,132.86l-.12-.02h.05v-.02l-.19-.03c.23-.02.34-.01.52-.05-.05.04-.06.07-.26.12ZM352.22,132.7s-.01,0-.01,0c.03-.02.12-.03.01-.06h-.15c.09-.01-.09-.07.11-.04-.04.05.3.05.36.07-.25-.01-.12.04-.32.04ZM352.86,132.69h-.01s-.05,0-.05,0h.06c-.07-.02-.15-.02-.23-.02.07-.02.25-.01.39.01h-.16ZM380.18,132.58c.04.08.05.17.06.24-.1-.02-.2-.1-.23-.29.01-.02.02-.03.03-.04.17-.25.74.27.62.06.29-.14.2.03.22.14-.29-.11-.45,0-.7-.11Z"/>
      <path class="st0" d="M334.32,130.33c-.12.22-.2.12-.44.06-.02.07-.06.18-.07.28-.15.01-.29,0-.42-.02.19-.19.47-.33.62-.59-.04.14.11.28.31.27Z"/>
      <path class="st0" d="M336.95,130.98c-.09-.04-.07-.05-.04-.05.01.02.02.04.04.05Z"/>
      <path class="st0" d="M349.1,133.17c-.11,0-.2.09-.26-.02.02-.04.07-.03.13-.01h.01c.15-.14-.23-.12-.1-.22-.18-.03-.21.06-.34.1v-.11l-.2.04c-.04-.14.07-.27-.12-.33-.15.15-.11.38-.35.45l.06-.16c-.08-.03-.31.01-.29.12.05.07.1.13.18.16-.13.09.21.2-.05.21.07-.21-.36-.32-.51-.47-.09.06-.27.14-.32.23,0,.07.14.11.08.23-.32-.19-.48.2-.78-.03.02-.02.02-.07-.07-.05l-.04-.08s-.11.05-.15.03l-.24-.02s-.04.03-.08.08h0c-.04.05-.07.09-.09.08-.04.14-.15-.08-.24-.16.01-.01.02-.02.04-.02-.16-.07-.24.26-.4.06h-.01c-.06.08-.15.07-.25.1h-.01c-.07.03-.12.08-.17.18l.03.03h0c.07-.02.13-.03.16,0,0,.04-.04.07-.1.08h0s.09.12.09.12v-.26s.27.07.27.07c.02-.07.06-.13.11-.06.02.03.04.08.03.1l.17-.12c-.11.26.16.08.14.38.6.15.77-.4,1.31,0-.08-.14.17-.47.34-.42.09.08.12.15.06.25l.21-.14c.27.46.54.16.94.32l-.03.13c.15-.15.31-.28.53-.23l-.04.27c.28.18.21-.56.51-.39,0-.21-.11-.34-.17-.52ZM347.08,133.35l.26-.26.02.03c-.11.13-.14.12-.28.23ZM347.54,133.49l-.14-.18.18-.08c-.03.16.17.18-.04.26ZM348.07,133.08s.11.11-.04.1l.02-.17c.14-.06,0,.09.14.07-.02.03-.08.02-.12,0ZM348.68,133.05l-.04.08c0-.05-.04-.13.04-.08ZM348.55,133.19s.07-.01.08-.03c.14-.03.18.06.2.12-.12.02-.18-.06-.28-.09Z"/>
      <path class="st0" d="M333.01,130.57c-.07-.02-.14-.05-.21-.07.02-.07.08-.12.2-.16-.02.09-.01.17,0,.23Z"/>
      <path class="st0" d="M344.56,133.34c-.18-.05-.3.02-.47-.06.02.03.02.07.03.1l-.07.02s-.07-.07-.09-.15c.09-.26.55.13.48,0,.08-.04.12-.04.13-.03v.12Z"/>
      <path class="st0" d="M345.01,133.2s0,.02-.02.01h0s.01-.01.02-.01Z"/>
      <path class="st0" d="M341.69,133.37s-.02.03-.02.04c-.07-.02-.14-.04-.2-.06.05-.1.12.04.22.02Z"/>
      <path class="st0" d="M346.17,133.24l-.03-.02c.07-.04.1-.08.03.02Z"/>
      <path class="st0" d="M343.35,133.51v.03s-.02.03-.04.05c-.26.04-.49.04-.72.01.02-.02.03-.03.04-.06.02.05.11-.05.15-.1.08-.07.25-.28.36-.02h0s.05.02.21.09Z"/>
      <path class="st0" d="M341.9,133.47c-.07-.01-.12-.03-.18-.04l.08-.09c.08.03.1.08.1.13Z"/>
      <path class="st0" d="M379.15,130.27s0,0,0,0c0-.03,0-.03,0,0Z"/>
      <path class="st0" d="M344.97,133.65l.02-.05h0s-.01.03-.02.05Z"/>
      <path class="st0" d="M390.7,132.39h0s-.09.06-.09.06l.17.15c.28-.17.29-.38.36-.63-.25.23-.4.11-.72.18l.28.25Z"/>
      <polygon class="st0" points="390.57 130.73 390.56 130.73 390.57 130.74 390.57 130.73"/>
      <path class="st0" d="M390.42,130.49l-.04.15.18.1c-.03-.07-.09-.23-.14-.24Z"/>
      <path class="st0" d="M387.26,130.01l.26.13c.09-.13-.22-.36-.26-.13Z"/>
      <path class="st0" d="M388.25,132.54c.17-.1.04.1.18.1h0s.14-.17.14-.17c-.13-.13-.29-.11-.32.07Z"/>
      <path class="st0" d="M386.55,129.98c-.09.3-.27-.13-.32.15.07-.09.31.15.32-.15Z"/>
      <path class="st0" d="M386.74,132.82c.09.28.22.03.39.1-.14,0-.34-.3-.39-.1Z"/>
      <path class="st0" d="M385.38,130.68c-.04.07-.07.17-.13.2.21-.17.22-.13.39-.23-.17-.15-.42-.24-.39-.51-.13.2-.28.5-.13.7.01-.21.13-.2.25-.15Z"/>
      <path class="st0" d="M386.45,132.78l.07-.25c-.18-.18.07.33-.18.31h0c.14.09.22.28.39.27-.03-.15-.09-.36-.28-.33Z"/>
      <path class="st0" d="M385.01,129.95c-.23.02-.53.15-.64.3h0l.09.11c.19-.2.44-.1.56-.42Z"/>
      <path class="st0" d="M385.65,132.39l-.03.35c.19.05-.01-.11.06-.2.06.05.14.08.18.02-.22.05-.02-.28-.21-.17Z"/>
      <path class="st0" d="M384.75,132.92l.19.38c.29-.13.01-.22.06-.53l-.25.15Z"/>
      <path class="st0" d="M384.29,132.99c.22-.22.24-.18.4-.45l-.03-.06-.38.51Z"/>
      <polygon class="st0" points="384.7 132.54 384.7 132.54 384.7 132.54 384.7 132.54"/>
      <path class="st0" d="M380.44,133.27c.18-.07.64,0,.61-.2-.11-.11-.46.1-.61.2Z"/>
      <path class="st0" d="M374.09,134h0c.1.05.31-.05.35-.21-.17.07-.31.12-.5.29.07-.02.16.1.15-.09Z"/>
      <path class="st0" d="M372.6,133.91c.08-.1.18-.05.15-.19-.05-.06-.21.09-.15.19Z"/>
      <path class="st0" d="M362.45,129.76c.16,0,.07-.13.19-.2-.14-.08-.23-.02-.19.2Z"/>
      <polygon class="st0" points="362.27 129.81 362.24 129.7 362.15 129.54 362.27 129.81"/>
      <path class="st0" d="M361.34,129.39c-.06.03-.1.06-.06.1,0-.03.03-.07.06-.1Z"/>
      <path class="st0" d="M361.44,129.45v-.11s-.03.03-.06.05c.03,0,.06,0,.06.07Z"/>
      <path class="st0" d="M360.99,129.45l.19.33c.19-.17-.22-.17-.03-.52l-.16.19Z"/>
      <path class="st0" d="M360.34,129.55h0c-.18-.11-.44.4-.54.02-.51.21.12.66-.46.8.55.2.28-.75.76-.54-.23-.24.16-.19.23-.28Z"/>
      <path class="st0" d="M360.42,130.2c.03-.19-.2-.21-.27-.09.07.02.18.3.27.09Z"/>
      <polygon class="st0" points="359.15 129.69 359.35 129.72 359.19 129.57 359.15 129.69"/>
      <path class="st0" d="M358.76,129.64l.15-.23c-.05.09-.27.07-.15.23Z"/>
      <path class="st0" d="M357.94,129.36c-.14-.08-.27.45.03.34l-.07-.02c.02-.08-.14-.27.04-.31Z"/>
      <path class="st0" d="M356.24,130.02l-.27.11.07.06c.1.01.21-.06.19-.17Z"/>
      <path class="st0" d="M356.52,131.54c-.2-.06-.18-.11-.43-.08.09.32.25-.03.43.08Z"/>
      <path class="st0" d="M355.75,129.73c.07-.13.18-.05.25-.02-.03-.18-.22-.14-.25.02Z"/>
      <path class="st0" d="M355.33,129.83h0c-.09-.13.02-.17-.05-.26-.19-.14-.38-.13-.49.05.05.14.11.51.04.67.3-.11.45-.71.6-.25l.25-.56c-.24-.09-.18.39-.35.35Z"/>
      <path class="st0" d="M355.92,130.9l-.16-.19c.03.18-.09.21-.18.27.04.4.25-.06.34-.09Z"/>
      <polygon class="st0" points="353.66 130.08 353.32 130.18 353.43 130.2 353.66 130.08"/>
      <polygon class="st0" points="353.43 129.84 353.17 130.05 353.44 129.95 353.43 129.84"/>
      <polygon class="st0" points="353.33 129.73 353.09 129.81 353.13 129.83 353.33 129.73"/>
      <path class="st0" d="M352.44,129.91c.09-.05.26.15.24-.09-.07.08-.26.05-.3-.09l.06.17Z"/>
      <path class="st0" d="M349.92,134.07s.09-.05.11.02c.06-.11.02-.21-.01-.31l-.1.29Z"/>
      <path class="st0" d="M349.62,133.62l-.25.33c.29.05.33-.21.59-.26-.11-.11-.26.13-.39.04l.06-.11h0Z"/>
      <path class="st0" d="M309.43,133.39c-.06-.03-.11-.06-.16-.07.02.03.03.07.06.1l.1-.02Z"/>
      <path class="st0" d="M271.71,129.82c.17-.12-.11-.1-.02-.23h0c.09-.03.15.09.23.13.19-.33-.4,0-.12-.3-.08,0-.15.04-.22.09v-.02s0,.02,0,.03c0,0,0,0,0,0l.12.3Z"/>
      <path class="st0" d="M289.36,130.3c-.13.22.07.54-.15.78.05-.02.11-.01.17.02-.09-.19,0-.39.1-.56l.04.03c-.03-.14,0-.19-.15-.26Z"/>
      <path class="st0" d="M289.39,131.11s.02.06.03.07c.03,0,.06.01.09.03-.02-.06-.07-.1-.13-.13,0,0,0,.01,0,.02Z"/>
      <path class="st0" d="M274.77,129.73s.07.02.1.03c-.05-.06-.08-.06-.1-.03Z"/>
      <path class="st0" d="M291.84,130.88l-.18-.03s.07.04.11.05c.02,0,.04-.01.07-.02Z"/>
      <path class="st0" d="M284.16,133.66l-.14.19c.13.06.26,0,.36-.01.08-.35-.06.03-.22-.18Z"/>
      <path class="st0" d="M280.09,133.91s-.05-.03-.07-.05c.01.02.03.04.07.05Z"/>
      <polygon class="st0" points="290.24 131.26 290.25 131.25 290.24 131.25 290.24 131.26"/>
      <path class="st0" d="M290.63,131.19c-.07.17-.3-.13-.39.06l.55.02-.16-.09Z"/>
      <path class="st0" d="M276.62,132.93l-.27.13c.16-.04.22-.03.38-.03-.16-.13-.13.03-.11-.1Z"/>
      <path class="st0" d="M305.28,130.02c-.07.15.03.37-.29.22.07.07-.23.35-.13.48-.15-.03-.24-.09-.24-.17v-.03l-.27-.05.02-.18v-.02s0-.03,0-.03c.03-.12-.05-.2-.14-.12.24-.21.35-.19.58-.21.09.3.29.23.46.11Z"/>
      <path class="st0" d="M306.6,130.71c-.05.26-.14.04-.25.07.02-.03.04-.04.01-.09l-.12.13c-.26-.11.03-.37-.18-.49-.14-.2-.2.12-.3.02h0s.02.04.03.06c-.03,0-.04,0-.06-.02v.02c-.14.04-.28.03-.32.22-.02-.08-.12.03-.16.08-.07.08-.23.27-.34.05.03.01.07.02.13.03.42-.47.91-.77,1.43-.78.04.01.08.02.11.01-.14.08-.19.28-.4.35.2.08.24.19.43.34Z"/>
      <path class="st0" d="M301.83,130.94s-.01,0-.01,0h0s.01,0,.01,0Z"/>
      <path class="st0" d="M306.86,130.01c-.04.06-.07.11-.12.1.01-.03.02-.06.01-.09.04,0,.08-.01.11-.01Z"/>
      <path class="st0" d="M305.33,132.16c-.03.09-.11.05-.17.09.06-.05.11-.08.17-.09Z"/>
      <path class="st0" d="M307.21,130.49s-.1.07-.17.12c.2-.07-.04.2.07.29-.26.01-.07-.11-.15-.3-.13.01-.19-.15-.32.07-.22-.08.04-.23-.08-.34.06-.12.24-.02.39-.07h.05s.04,0,.05-.03c0,0,.01,0,.01-.01.03-.02.05-.05.06-.09h0s0-.02,0-.03h0v-.05s.03-.03.04-.05c.23,0,.12.35.04.49Z"/>
      <path class="st0" d="M309.31,133.01c-.06.03-.12.04-.2.03-.04-.04-.05-.1-.06-.17-.26-.04-.51-.07-.73-.1-.36.06-.7.1-1.11-.08l-.15-.24-.15.34c-.6-.36-1.12-.38-1.75-.54-.15.12-.29.32-.42.24,0-.05,0-.23.01-.29-.24.09-.37.39-.64.46-.04-.08.12-.13.03-.25l-.16.03c.12-.1-.08-.19-.04-.23.02.03.05.07.09.04,0-.13-.14-.16-.23-.25-.07.02-.12.1-.06.17-.12-.11-.03-.09-.03-.23-.15-.07-.16,0-.18.19.01.11.01.13.07.21-.15-.12-.33-.16-.42-.32l-.09.11h-.02s-.02.08-.02.08h.02c-.47.34-1.14.05-1.69.19l-.43-.13c.22-.14.57-.04.66-.15h-.09s.15.05.18-.11l-.13-.11c-.21-.1-.12.35-.31.08.27-.04-.1-.14.08-.26-.08-.12-.17.04-.26.16.06,0,.13,0,.19.02-.05.09-.29-.02-.33.17-.05,0-.07-.03-.08-.06-.06,0-.09-.08-.11-.14h-.02s-.03.01-.05.01c.01.1-.12.21-.24.17-.04-.01.07-.09.08-.16-.25-.2-.47-.16-.75-.25.1.06.15.18.17.22-.03.01-.05.01-.09.01,0,.03-.06.06-.11.07l.07-.07c-.07-.01-.14-.02-.19.02h-.01c-.04.06-.08.09-.16-.02.04,0,.07-.03.09-.06-.07-.01-.13-.02-.21-.01,0-.04-.04-.15-.17-.2l.04.2c-.24-.12-.21-.09-.33-.11-.16-.22-.61.07-.65-.12l.23.02c-.09-.12.21-.26.12-.34l-.29.11c.24.13-.28.17-.23.31-.12,0-.2-.11-.35-.03-.1-.04.09-.1-.04-.12-.08.01-.05.09-.18.06.01-.02.05-.05.03-.07-.13-.03-.09.05-.25.08h.03c-.07.06-.19-.04-.21-.07-.14.03-.26.05-.39.06.05-.03.24-.07.12-.11.13-.09.55.12.53-.08-.11-.05-.28.07-.38,0-.03.07-.2.07-.32.1l-.03-.03c-.23,0,0,.13-.25.1-.03-.03.05-.07-.1-.07-.02.01-.05.03-.08.04h.01v.02s-.18-.01-.28-.02c.03-.01.03-.03-.01-.05.07,0,.1-.02.14-.03h0s.01.03.02.03c.1.04.19,0,.32-.05-.03-.09.29-.08.34-.19h.01s.12-.02.16-.02l-.08.06c.25.08.2-.06.45-.04,0,.03-.15.07-.21.11.01.01.01.02.03.02,0-.06.16-.01.18-.06l.17.1c.1-.03.22-.07.31-.09-.03.03-.06.04-.1.07.16-.03.25.09.36.04l-.05-.04c.17,0,.23-.01.3-.04.05-.06.02-.09-.04-.14.07.01.12.03.12-.04.09.07.18.02.2-.04.15.04.06.06.07.14.12-.05.38.02.34-.13-.05-.03-.21.03-.14-.07.05.12.08-.07.18-.04-.18.13.23.11.1.21.18.04.21-.06.34-.09v.1l.21-.04c.04.14-.07.27.12.33.16-.15.11-.38.35-.45l-.05.16c.07.03.31-.01.29-.12-.06-.08-.13-.15-.22-.16h.03c.13-.09-.22-.2.05-.21-.08.21.37.32.51.48.09-.07.28-.15.33-.24-.01-.07-.15-.11-.08-.23.32.19.49-.2.78.03-.01.03-.01.07.08.05l.04.08s.11-.05.15-.03l.23.02s.05-.03.09-.08c-.01,0-.01-.01-.02-.01h.02s.06-.08.09-.05c.03-.17.16.07.25.14t-.02.03c.14.02.22-.27.37-.07l.02.07s-.05-.01-.06,0c.03.01.05.01.07.01h0s.03.01.04.01h0c.13-.01.11-.12.3-.12l-.1-.08s.08-.01.09,0c.12-.09.43-.21.61-.09.14-.19.15-.31.28-.39-.22-.05-.6-.01-.57-.34-1.12.07-2.37,0-3.57.01-.2.2.15.08.04.21-.29.26-.23-.13-.47.07l.1-.2c-.35-.03-.72.35-1.06.54.06-.24-.27-.2-.01-.34-.17,0-.35-1.01-.49-.8l.19.98s-.04.05-.09.06h-.02s-.1.01-.1.04c-.16-.2-.33-.42-.43-.42-.05-.24.21-.19.35-.18.02-.41-.47-.27-.27-.65-.29.07.04.21-.13.37l-.26-.09.2.14c-.22.12-.29.44-.58.2l-.29.41c-.03-.33-.22-.06-.37-.14l.09-.2c-.2.01-.28-.05-.41-.17.12-.28.19.07.24-.2l-.22-.1c0,.19-.15.33.01.44-.2.35-.32.64-.84.61-.23-.32.25-.28.15-.6-.54-.13-.66.83-.97.79-.41-.14-.38.15-.79.18.13-.22-.28-.23-.36-.44l.15-.21c-.1.05-.2,0-.2-.12-.05.23-.54.22-.8.35l.05.25c-.22.08-.52.24-.76.17-.35.08-.27.31-.53.57-.15-.22-.13-.49-.08-.75.09.12.25.05.4.13.44-.22.78-.74,1.21-.62.19-.6-.29.07-.5-.14,0-.04.02-.05.04-.05-.02,0-.04,0-.05-.02.16-.07.41-.17.45-.48-.26.06-.19.6-.52.34-.24.17-.44-.3-.58-.34-.16.22-.17.7-.57.61l.17-.34c-.45,0-.21.5-.62.48.14.04-.15.33.13.35-.13.18-.44.21-.66.11-.05.05,0,.11-.02.23.25.23.39-.22.59.1l-.04.08.03.02h0s.02-.06.02-.1l.17-.36c.23.13.26.42.11.57.07-.02.13-.07.17,0,.04.54-.28-.2-.36.26l.17-.04c.07.36-.38.32-.59.29-.24-.17-.46-.23-.48-.49l.32-.1c-.16-.21-.41.12-.6.1-.01,0-.01-.02-.03-.03v.02s-.07-.04-.1-.11c-.17,0-.41.15-.56.07l.02.22.02-.13c.15.01.35.15.24.32-.34.16-.41-.28-.49-.48.08-.36.34,0,.51-.12-.11-.35-.35-.04-.7-.27.14-.38.41,0,.49-.35-.28-.06-.36.21-.65.11.04-.18.32-.19.3-.42l-.18-.11c.46-.02-.08-.47.28-.57-.17-.15-.24.31-.48.07.06.17.26.47.02.62l-.26-.12c-.11-.18.28-.4.1-.56l-.27.13c.01.11.14.17.05.32-.16-.12-.26.44-.45.61-.15-.01-.27-.03-.32-.16-.38.33-.86.32-1.21.64.24-.23-.01-.39-.15-.56.27-.04.27-.4.25-.63-.16.04-.27.41-.19.52-.28-.14-.2.25-.44.01-.16-.12.08-.35.02-.48-.3-.02-.08.43-.41.34.02-.04.05-.06.02-.13-.17-.07-.35.08-.4.26-.2-.45-.53.06-.49-.39-.43.12.06.25-.02.41-.18.18-.44.07-.56-.04.1-.05.16-.13.26-.06l-.09-.31c-.53-.23-.34.71-.85.43.26-.16.09-.23.22-.46-.08.08-.48-.01-.24.23-.2-.03-.33-.08-.46-.14-.17.12-.35.2-.45.41-.27-.04-.47-.26-.6-.39-.57.22-1.09-.16-1.69.08h.05c-.47-.04.2.43-.28.42.07-.39-.29-.26-.44-.46-.59-.2-1.02.27-1.56.02,0-.08.04-.18.14-.19-.42-.12-.75-.05-1.12-.06v-.05c-.58-.31-1.13.06-1.75.16.05-.06.06-.2.1-.25-.31-.08-.82-.14-1.03.21-.37-.37-.25.12-.73-.25-.02-.07.05-.06.08-.08-.23-.12-.39-.08-.63-.13-.53.25-.66.74-1.27.59-.03-.52.38-.13.39-.54-.12.09-.23.2-.39.07.1-.21.02-.13.09-.32-.13-.14-.52.55-.52.5,0,.1.04.15.16.14-.14.32-.6.03-.89.15.1.01.4.12.28.36-.39-.11-.53.4-.8.6-.36-.24.27-.44.2-.81-.06-.13-.21-.43-.06-.57-.32-.08-.56.23-.85.31v-.1c-.39.05-.81.47-1.14.31l.14.1c-.07.06-.26.03-.39.23,0-.15-.22-.29-.15-.43-.2.52-.92.32-1.12.83-.11-.14-.03-.36.01-.49.25.04.35.16.48-.06-.22,0-.37-.13-.34-.27-.22.35-.72.48-.83.82-.16-.17-.31-.26-.25-.55-.66.18.32.89-.42.88-.33-.28.33-.38-.14-.47l.09-.05c-.34-.73-.24.53-.62.5-.05-.4.27-.28,0-.57-.35.1-.5.69-.85.57l.06-.17c-.23.03-.66-.06-.89-.02-.01-.08.03-.07.07-.09-.41-.16-.17.2-.51-.08l-.1.2c.17.13.5.33.71.11-.21.22.34.5.23.84l.04-.13c.56.58,1.28.66,1.99.88.45-.41.76.17,1.24-.12.08-.47.09-.1.5-.19-.21.06-.02.36.12.43.08-.12.18-.17.28-.22.08.16.6.54.79.23.25.14-.06.14-.11.24.1.24.2-.19.29-.03,0,0,0,.05-.03.08.38-.02.61.1,1.01.16.04-.46.4-.17.57-.34-.05.15.22.17.34.26l.22-.34c.21-.29.29.21.57.05l-.07-.08c.2-.14.73.13.92.38,1.85-.9,2.86.51,4.81.27.13-.14-.09-.24,0-.44.01,0,.02,0,.03,0h0s.02-.06-.01-.11c-.09.04-.2.13-.32.11.17-.12.22-.47.45-.33-.02.04-.05.06-.11.09.19.03.21-.14.35-.05.18.08.13-.03.15.12l.56.18c.27-.4.61,0,.7.02-.07.3-.37.09-.51.39l.2.23.02-.25.28.07c.03-.07.06-.13.13-.06.01.02.03.08.01.1l.19-.13c-.12.25.18.08.15.37.65.15.84-.39,1.41,0-.09-.14.18-.46.36-.41.1.07.13.14.06.25l.24-.14c.29.45.57.16,1.01.32l-.03.13c.16-.16.33-.28.57-.23l-.04.25c.29.19.22-.53.55-.37,0-.27-.21-.42-.24-.68.08.28.42.32.34.12.32-.11.23.01.25.07l.19-.16c.23.01.08.36,0,.52.21-.3.44-.09.68-.04l-.1.12.32.05c.2-.21.49-.23.75-.12l-.18.37c.19.19.1-.13.14-.19.29-.18.36.07.52.28.46-.38.93.59,1.34.05v.04s.06.21.06.21c.55-.45,1.18.2,1.61-.44.67.75.44-.65,1.05-.01l-.02-.1c2.01.13,4.15.52,6.03.16v.15c3.03.25,5.99-.06,9,.06.28-.14.11-.47.35-.64.11.01.35,0,.35.18-.21.11-.1.27-.16.34h.05c.32,0,.71.18,1-.03l-.23-.24c.12-.11.3-.04.41-.03-.04.11.09.35.04.42.62-.55.49.28,1.01.05.11-.51.78-.93,1.22-1.29l.23.13c-.3,0,0,.38-.37.35.32.15.61-.07.92,0-.05-.11-.05-.25.04-.31ZM303.74,130.39c-.11.08-.37.24-.45.17-.01-.13.32-.11.45-.17ZM300.89,130.8l-.26.26-.02-.03c.11-.14.13-.13.28-.23ZM300.42,130.66l.14.18-.18.08c.03-.15-.18-.18.04-.26ZM299.89,131.07c.05-.05-.1-.11.04-.1l-.02.17c-.13.06,0-.09-.13-.08.04-.02.08-.01.11,0ZM299.28,131.1l.04-.08s.04.13-.04.08ZM299.4,130.96s-.06.01-.07.03c-.15.03-.19-.06-.21-.12.12-.02.18.06.28.09ZM299.11,130.99c-.04.08-.16-.01-.26-.01.11-.01.2-.09.26.01ZM297.86,131.15c.1,0,0,.07.13.03-.02.06-.13.06-.23.03l.1-.06ZM295.17,131.43h-.13s.12.01.12.01h-.14s.02,0,.02,0h-.1s.23-.01.23-.01ZM294.82,131.46c.11-.01.29.02.45.01-.08.03-.3.01-.45-.01ZM295.72,131.55s-.35-.04-.37-.07c.26.02.12-.04.32-.04.11.03-.15.03,0,.07h.17c-.11.01.1.08-.12.04ZM296.12,131.29l.13.02h-.05s.18.05.18.05c-.23.02-.34,0-.52.04.05-.04.06-.06.26-.11ZM296.39,131.68s-.1-.06-.1-.06h0s.13.03.13.03l-.03.03ZM298.53,132.02l.19.08c-.03.08-.25-.04-.19-.08ZM298.66,131.8l.02.02c-.04.06-.06.08-.08.08-.05,0-.08-.09-.13-.13.08-.04.14-.13.22-.08.08.02.13.03.16.03.02.01.03.03.03.05-.07,0-.15.06-.22.03ZM299.25,132.18c0-.12.16-.02.22-.03-.04.09-.16-.09-.22.03ZM299.94,131.88s-.01,0-.01,0h.01ZM300.2,132.22c.02-.13-.15-.2-.28-.28.11-.04.13-.02.28-.09-.04.02-.06.07-.09.09.09.04.17.05.18-.05h.01c.11.1,0,.24-.1.33ZM300.39,132.33c.08-.15.26-.08.41-.17l.06.06c-.09.07-.3.12-.47.11ZM303.89,132.34c-.07-.12.09.02.06.12-.04-.03-.07-.08-.06-.12Z"/>
      <path class="st0" d="M310.91,133.56c-.28.19-.38.02-.66.31.05-.23-.27-.27-.31-.48-.13.03-.25.28-.39.09l.19-.16c-.19-.04-.21-.25-.36-.34.03,0,.05-.02.08-.04.04,0,.07,0,.11,0,.13-.03.25,0,.36.01.01.06.03.11.09.11.01-.03.01-.06.02-.1.03.01.06.02.09.02.09.15.19.01.38.09h.06c.03.1-.25.39-.07.51-.04-.36.57-.25.19-.4l.3-.08c.03.17-.34.23-.08.45Z"/>
      <path class="st0" d="M311.86,133.33c-.09.04-.16.26-.33.27v.45c-.28.18-.57-.07-.79-.18.25,0,.45-.29.62-.3-.02-.19.01-.31.06-.37h.01s.02,0,.03,0c.02-.02.05-.02.08-.03.17.08-.04.06-.08.09.07.1.14-.06.2,0,0,0,0,.02-.02.03.09.01.15.02.22.04Z"/>
      <path class="st0" d="M322.51,131.49c-.05.07-.12.08-.18.07,0-.02,0-.05.01-.08.07-.05.12-.03.17.01Z"/>
      <path class="st0" d="M308.58,130.15v.03h0v.05h0s-.04.08-.07.11c-.13-.05-.14-.28-.29-.29l.04-.05h.01s.11-.02.17-.02h0s.06.04.09.05h0s.03.07.04.12Z"/>
      <path class="st0" d="M304.06,130.9c-.09.26-.57-.15-.48,0-.21.1-.14-.02-.16-.09.21.06.33-.03.52.05-.03-.05-.04-.12-.05-.16.08.01.15.07.17.2Z"/>
      <path class="st0" d="M312.15,133.6c-.15.04-.29-.13-.22-.26.1.02.2.05.31.07-.05.04-.11.06-.18.07-.02.07.05.06.09.12Z"/>
      <path class="st0" d="M307.73,130.31c-.06.04-.11.06-.15.06.03-.02.07-.05.1-.07h.02s.01.01.03.01Z"/>
      <path class="st0" d="M304.99,133.95c-.06,0-.12.01-.17.03.09,0,.14-.01.17-.03Z"/>
      <path class="st0" d="M326.58,132.59s-.02,0-.03.01c-.01-.01-.01-.02-.02-.02.01,0,.03,0,.05.01Z"/>
      <path class="st0" d="M309.21,130.32c-.04.05-.08.09-.12.13l-.12-.08c.08-.01.16-.03.24-.05Z"/>
      <polygon class="st0" points="308.55 130.03 308.55 130.03 308.55 130.03 308.55 130.03"/>
      <path class="st0" d="M321.72,131.54s-.02,0-.03-.01c0,0,0-.01,0-.01,0,.01.01.01.02.02Z"/>
      <polygon class="st0" points="276.35 133.06 276.35 133.06 276.35 133.06 276.35 133.06 276.35 133.06 276.35 133.06"/>
      <path class="st0" d="M309.47,133.94c.11.05.34-.04.37-.2-.18.07-.33.12-.54.28.08-.02.17.09.17-.09Z"/>
      <path class="st0" d="M307.88,133.87c.09-.09.19-.05.17-.19-.05-.06-.22.09-.17.19Z"/>
      <path class="st0" d="M297.15,129.61c-.15-.07-.24-.02-.2.19.17,0,.08-.13.2-.19Z"/>
      <polygon class="st0" points="296.73 129.75 296.63 129.58 296.76 129.85 296.73 129.75"/>
      <path class="st0" d="M295.76,129.45c-.06.03-.11.06-.06.09,0-.03.03-.07.06-.09Z"/>
      <path class="st0" d="M295.86,129.5h0s.01-.11.01-.11c0,0-.05.03-.08.05.03,0,.06,0,.07.07Z"/>
      <path class="st0" d="M295.58,129.83c.21-.16-.24-.17-.03-.51l-.17.19h0l.2.32Z"/>
      <path class="st0" d="M293.6,130.4c.59.2.3-.74.82-.52-.25-.24.17-.19.26-.28h0c-.19-.11-.47.4-.58.02-.55.2.13.64-.5.79Z"/>
      <path class="st0" d="M294.48,130.16c.07.02.19.29.29.08.03-.19-.21-.21-.29-.08Z"/>
      <polygon class="st0" points="293.45 129.61 293.4 129.74 293.62 129.76 293.45 129.61"/>
      <path class="st0" d="M293.14,129.47c-.05.09-.3.07-.16.22l.16-.22Z"/>
      <path class="st0" d="M292.14,129.73l-.07-.02c.02-.08-.15-.26.04-.31-.15-.07-.29.44.03.32Z"/>
      <path class="st0" d="M290.06,130.22h0c.1.01.23-.06.21-.16l-.29.1.08.06Z"/>
      <path class="st0" d="M290.57,131.55c-.22-.06-.19-.1-.46-.08.1.31.27-.02.46.08Z"/>
      <path class="st0" d="M290.01,129.75c-.03-.18-.23-.13-.27.02.08-.13.2-.05.27-.02Z"/>
      <path class="st0" d="M288.74,130.32c.32-.11.48-.69.64-.25l.27-.55c-.25-.08-.2.37-.37.35-.08-.12.02-.17-.05-.26-.2-.14-.42-.12-.53.05.05.13.13.5.04.65Z"/>
      <path class="st0" d="M289.93,130.91l-.17-.18c.03.18-.1.21-.19.27.05.4.26-.06.36-.09Z"/>
      <polygon class="st0" points="287.24 130.24 287.49 130.12 287.13 130.21 287.24 130.24"/>
      <polygon class="st0" points="287.26 129.99 287.25 129.88 286.97 130.09 287.26 129.99"/>
      <polygon class="st0" points="287.14 129.77 286.87 129.85 286.92 129.88 287.14 129.77"/>
      <path class="st0" d="M286.44,129.86c-.08.07-.27.05-.33-.09h0s.07.17.07.17c.09-.05.28.14.26-.09Z"/>
      <polygon class="st0" points="283.59 134.04 283.59 134.04 283.59 134.04 283.59 134.04"/>
      <path class="st0" d="M283.57,133.74l-.1.28s.08-.03.11.02c.07-.11.03-.21-.01-.3Z"/>
      <polygon class="st0" points="283.14 133.58 283.12 133.6 283.14 133.58 283.14 133.58"/>
      <path class="st0" d="M282.87,133.91c.31.05.36-.21.63-.26-.11-.1-.28.13-.42.04l.05-.09-.26.3Z"/>
      <path class="st0" d="M277.7,133.33c.02-.21-.03-.18.17-.32-.28.13-.51.09-.83.11.05.13-.18.36-.06.3l.35-.13-.05.14c.25.16.16-.23.43-.12h0Z"/>
      <path class="st0" d="M263.43,130.82c-.21.11.1.26.05.28.03-.1-.01-.19-.05-.28Z"/>
      <path class="st0" d="M317.65,24.41c.02.73.23.81.46.85.23.05.47.06.64.63-.02-.07-.03-.17,0-.29h0c-.1-.29.15-.56.26-.47-.32-.55,0-.59-.56-.63-.3-.36.06-.78.31-.37l-.4-1.07-.06.66c-.48-.16.09-1.04-.47-1.24l.1,1.19-.16-.05c.18.27.14.8.09.99-.08-.02-.21,0-.23-.21Z"/>
      <path class="st0" d="M317.18,27.64c.46-.58.33.33.63-.68l.65.41-.02.87c.19-.03.51.54.58.09-.06-.07-.14-.22-.14-.35.41.01.48,1.03.84.7-.28-.6-.2-.72-.61-1.05-.05-.6-.02-1.05.1-1.34-.09-.17-.36-.15-.45-.38.02.05.03.09.04.15l-.65.11c.17.18.13.36.18.58-.3-.29-.61-.59-.91-.89-.56.4-.05,1.36-.24,1.8Z"/>
      <polygon class="st0" points="370.43 33.48 370.42 33.46 370.42 33.47 370.43 33.48"/>
      <path class="st0" d="M370.48,32.74l.12-.87c.11.28.3-.57.4-.15.02-.14.09-.79-.05-.63-.02.12-.04.24-.07.36-.15-.51-.33-.63-.46-.81-.14-.18-.24-.44-.29-1.14-.51.82-.29,1.21-.16,1.73,0,.17-.03.3-.05.44.05.25.09.5.13.75l.06.39.03.19.05.15.22.33.02-.31c0-.1.03-.28.05-.42Z"/>
      <path class="st0" d="M352.39,49.32c.17-.06.29-.16.39-.28l-.39.28Z"/>
      <path class="st0" d="M338.95,48.43c0,.06.09.13.22.17-.06-.06-.13-.12-.22-.17Z"/>
      <path class="st0" d="M352.78,49.05l.07-.05h0s-.02,0-.03,0l-.04.06Z"/>
      <path class="st0" d="M361.69,44.11c.04-.06.08-.11.12-.18-.07.07-.1.13-.12.18Z"/>
      <path class="st0" d="M333.9,46.2c-.06-.13-.25-.32-.1-.38-.23.06-.34.37.1.38Z"/>
      <path class="st0" d="M319.07,31.1c-.07-.47-.11-.95-.16-1.41.17-.72.36-.31.56.15-.03-.12-.03-.23.03-.28-.17-.02-.86-1.34-.62-.14-.48.07-.42-.72-.62-1.01-.05.26-.34-.05-.48.05.1.15.28.31.32.59-.18.18-.44-.2-.44-.54-.07.22-.2.12-.31.03-.1-.09-.21-.16-.24.15.49,1.18.86,2.01,1.8,2.6-.34-.62-.64-1.34-.61-1.94l.47.13c-.19.71.17,1.02.31,1.63Z"/>
      <polygon class="st0" points="319.5 29.55 319.5 29.56 319.5 29.56 319.5 29.55"/>
      <path class="st0" d="M366.15,39.6c.03-.07-.01-.06-.06-.02,0,0,.03.02.06.02Z"/>
      <polygon class="st0" points="330.15 41.79 330.15 41.8 330.16 41.8 330.15 41.79"/>
      <path class="st0" d="M346.41,45.27c.12-.06.17-.13.19-.18-.07.03-.14.09-.19.18Z"/>
      <path class="st0" d="M341.32,19.23c.03-.06.04-.12.07-.18-.12.03-.2.1-.07.18Z"/>
      <path class="st0" d="M341.25,18.96s.12-.01.19,0c.04-.07.08-.14.12-.21.09-.01-.14-.12-.47-.29v.23h.01c.05.08.1.18.15.27Z"/>
      <path class="st0" d="M340.11,20.13c-.23.02.01.11-.07.19h.18c-.08.23-.19.46-.25.7.43-.23.8-.37,1.06-.38,0-.04.01-.07.01-.11-.1-.04-.21-.08-.31-.13-.3-.13-.57-.27-.62-.27Z"/>
      <path class="st0" d="M342.03,18.11c.26-.29.55-.54.87-.74l-.06-.13-.17.04.14-.14c.07.02.1.11.14.2.04-.03.07-.05.11-.07,0-.09-.03-.18-.17-.26.01-.08.23.09.28,0,.02.07.06.11.11.16.11-.05.22-.1.33-.15-.06-.06-.12-.13-.18-.16l.21-.13c-.07-.25-.18-.49-.36-.61.04-.02,0-.22-.08-.22.01.06-.12.22.02.38-.1.09-.3.03-.52.03s-.42.08-.47.37c.07-.37-.39-.14-.17-.4-.44-.21.06.45-.16.53-.11-.1.11-.06-.02-.33-.45.13-.1.94-.42,1.1l-.25-.21c-.01.08-.03.17-.05.27h.01c.32.2.62.38.86.47Z"/>
      <path class="st0" d="M341.04,23.34l.14-.02c0-.15,0-.25.02-.27.02.11.15.13.32.1-.04-.08-.09-.14-.12-.21-.02,0-.03,0-.05,0,.01-.02.01-.04.02-.06-.07-.16-.11-.33-.16-.5-.03.03-.05.05-.06.08h-.01s0,.05-.01.09c.02-.01.03-.03.03-.05.04.1.26.17.04.37,0-.07-.08-.1-.17-.13-.02.18,0,.38.01.59Z"/>
      <path class="st0" d="M346.37,25.21c-.01.06-.01.12-.01.19.16.15.12-.08.1-.22-.03.01-.06.02-.09.03Z"/>
      <path class="st0" d="M334.58,11.33l-.26.2c.5.09.69-.2.9-.37-.03.08.01.12.09.22.45-.09.68-.54.45-.82l-.15.13-.31-.38c-.12.74-1.03.32-1.53.65.34-.32.64-1.01,1.08-.56l-.04-.37c.38-.06.7.32.91-.05l-.44.09v-.21c-.32.03-.72.35-1.01.12-.27.26-.51.66-1.2.57l.03-.08c-.47.69-1.3-.44-1.66-.13-.2.7.76.3,1,.58-.29.28-.61-.1-.36.31-.68.34-.41-.6-.97-.13l.32.18c-.25.33-.66.13-.92.45-.03.49.43,0,.91.16l-.22.37.96-.4c.29-.61.03-.61.62-1.04.22.26.37.64.4,1,.21-.37.78-.52,1.4-.49Z"/>
      <path class="st0" d="M344.19,16.84h0c.14-.11.28-.21.44-.3,0,.06-.02.13-.02.2.11-.02.23-.02.35-.03.04-.04.09-.08.12-.17.02.07.03.12.04.16.09,0,.17-.02.26-.02,0-.13,0-.27.08-.38v-.07c-.17-.08-.5-.42-.58-.08v-.16c-.25-.25-.37.62-.58.05-.04-.23-.06-.04-.12-.38l-.11.29v-.15c-.09.05-.19.1-.27.15v-.03c-.06.33-.08.59-.09.8.04.11.06.16.07.23.13-.05.27-.07.41-.11Z"/>
      <path class="st0" d="M346.56,25.26s.04-.05.04-.11c-.03,0-.06.01-.09.02.01.03.03.05.05.09Z"/>
      <path class="st0" d="M373.04,16.81c-.11,0-.21.02-.31.03-.41.04-.81.15-1.2.26-.4.11-.79.22-1.23.29,0-.16.02-.32.05-.4.08.01.2,0,.23.17-.06-1.23-.83-.27-1.09-1.24.02.06.02.14-.02.24.07.24-.15.47-.27.39.33.46,0,.49.57.52.12.13.13.26.07.35-.11.01-.22.02-.34.01-.01-.01-.03-.02-.05-.05.01.02.02.04.02.05-.2-.01-.4-.01-.62-.05.28.06.48.11.66.14.07.17.14.33.21.5-.56-.16-1.58-.12-.36-.36-.43-.05-1.15-.14-1.74-.15v-.03l.04-.03h-.04v-.13l.7.05c-.36-.25.61-.25.83-.39l-1.56-.15c-.05-.51-.1-1.01-.18-1.51h-6.33c.49-.38.99.07,1.49-.31-.02.08-.08.11.02.13.66.07.93-.66,1.46-.32l-.07.23s.36-.22.3-.48c-.45.09-.54.2-.93.13.16-.22.52-.39.78-.39l.03-.41c.34-.44.68.2,1.02-.23l-.39-.28s.04-.02.07-.04c-.19.04-.34.1-.38.2-.6.22-.9-.36-1-.58-.27-.13.11-.52.07-.77-.44.08-.41.54-.87.63-.14-.07-.05-.18.01-.21l-.33.23c-.02-.13-.79-.22-.33-.51.07.01.19,0,.29.02-.62-.3-1.7-.62-1.67-1.08-.34-.1-.24.12-.79-.02-.25.33.02.66-.57.89l.46.16h0c.09-.07.17-.15.27-.2l-.48.04c.31-.15.25-.32.34-.64.75-.03.95.54,1.34.69-.24.24-.64.17-.49.57-.37-.35-.41.34-.85.02l.06-.08c-.33.24-.39-.1-.67.17.02-.07-.01-.12-.05-.17-.64.18.19.24-.45.62-.56-.05-.18-.65-.33-.84.94-.53-.03-.66,1-1.09,0-.54-.41-.6-.95-.54.35.23-.23.79.24,1.16-.82.26-.75,1.3-1.66.81l.02-.08-.38.38-.51-.21c.31-.56.71-.29.96-.61-.62-.57-.84.54-1.57.5-.6-.64.74-.37.74-.9-.15.15-.54-.13-.5-.29.68.2.42-.33,1.17-.04-.37.19.06.18,0,.41.11-.18.82-.26,1.33-.17.11-.4-.44-.33-.76-.51-.6.43-1.22-.33-1.68.16-.64.05-.04-.38-.08-.42-.58-.19-.26.32-.44.41-.88.3-.98-.45-1.6-.48-.53.52-1.79.34-2.68.31.11-.19-.01-.33-.06-.51-.53.73-.34.44-1,.89l.56.27c-.45.08-.81.59-1.22.19.54.67-.73.49-1.06.72-.45-.25-.91.24-1.17-.17l.07-.03-.67-.07.08-.64c-.46-.24-1.02.23-.86.42-.48-.16-.2-.24-.27-.53.28-.2.85-.74,1.01-.25-.04-.04-.13-.05-.15.03,1.24.29.41-.78,1.03-.94-.33-.05-.57-.36-.91-.19-.14.01-.64.2-.98.4.35-.13.56.13.87.32-.3-.06-.35.3-.61.09l.05-.07-.29.19c-.05-.37-.91-.16-.41-.6-.45.08-.15.34-.56.47l.8.14v.41c-.3.27-.37-.03-.7,0l.03.45-.57-.38c.06.29-.37.17-.5.24-.31-.19-.11-.89-.65-.49l.04.05c-.31.14-.49.24-.93.12.02-.08.14-.14.2-.17-.61-.23-1.61.45-1.89-.21,0-.07.02-.11.05-.15.08-.15.26-.08.27-.41.95.54.66-.66,1.79-.34.05.91.95-.53,1.16.37-.44-.12-1.03.43-.95.53.41-.05.98-.07,1.26.02-.25-.29-.17-.79.01-1.11-.65.26-1.84-.36-2.77-.44l.1.54c-.8.4.1-.51-.53-.54l-.28.41-.04-.05-.46.49c.33-.02.17-.42.53-.19.32.17,0,.4-.1.72-.21-.16-.95-.06-.54-.4l-.82.53c0-.2.19-.29.28-.4l-.61.1.02-.08c-.49.23-1.18.23-1.56.62.84.4-.4.46-.33.77-.3-.06-.39-1.01.25-1.39.17.31.61-.1.93-.12-.41-.2-.54.06-.87.09.23-.25-.43-.32-.43-.53.05-.15.18-.62.6-.42.63.02.07.5.25.41.17.52.87-.1,1.26.05.04.05-.09.11-.15.14.33-.03,1.01-.03,1.06-.39l-.81.27c-.18-.11.25-.33,0-.54-.19.1-.41.14-.65.06l.04-.16c-.49-.29-1.27-.18-1.84-.03-.12.8-.42,1.27-.67,2.13-.85.02-1.74-.02-2.64-.18.02.17,0,.34-.04.49-.25-.2-.71-.04-.71-.44-.28.41-1.05.71-.91,1.1-.02.01-.06.02-.1.03-.33-.44-.82-.78-1.71-.88-.17,0-.2.27-.16.65-.19-.12-.36-.22-.54-.24.14-.17.22-.41.49-.43l-1.38-.14.1-.18-.54.26c.31-.1.78.01.67.41-.62.31-.96-.13-1.49.4,0-.74-.17-.85,0-1.27.04.01.05.02.07.04.19-.4.61-.84.94-.93-1.15-.24-.86.02-1.86-.16-.09-.43.92-.46.69-.74l.94.2c-.16.03-.18.13-.25.2.65-.31.88.08,1.37-.41.31.2-.48.32-.14.4-.29.07-.57.55-.71.88.74.17.42-.54,1.06-.71l.47.37c.28-.08-.09-.23-.11-.35.35-.1.48.17.74.17-.08-.1-.26-.21-.21-.36.44.31.87.11,1.27.71-.23-.29.26-.73.45-.82l-.83-.6c-1.05.19-1.72-.09-2.86.2l.07-.24c-1.79-.73-1.48,1.13-3.02,1.15-.05-.58-.72.08-.66-.48.47.04.37-.19.24-.45-.27.19-.44.61-.96.4.19-.3-.26-.54.24-.66-.7-.12-1.09-.06-1.44.44-.24.11-.4.14-.5.13l-4.26-.39-1.05,4.96c-.1.48-.71,0-.62,1.16l-.2-.24v.9l.32-.27c.08.36.16.71.26,1.06.27.62.37-.15.58-.15l-.38-.23c.14-.4-.17-1.02.14-1.07-.01.67.34.54.48.82l-.11-.65.33-.17c.05-.4.13-.73.1-1.04l-.04-.38,1.8-1.55-.71,2.09c-.02.07-.04.12-.07.17l-.08-.03c-.1.34.2,1.11-.18,1.12.07.23.13.81.4.24.04.33.09.66.14.98-.65-.21-.85.71-1.33-.26.01.08.05.31.1.65.02.1.04.2.06.31-.02-.01-.04-.01-.06-.02-.03-.04-.07-.07-.12-.08.02-.12,0-.19.12-.21-.46-.37-.61.14-.65.71l.37.13c-.04.09-.09.18-.13.26l-.62,1.09,4.06,2.71c0,.41.02.81.04,1.21l-.04.02h.04c.19,3.83,1.15,7.13,2.66,9.92-.61-.34-.51-1.07-1.09-1.48.08-.01.13.05.1-.07-.21-.78-1.02-.83-.93-1.56h.25s-.37-.34-.59-.19c.28.49.42.56.53,1.04-.26-.11-.56-.44-.69-.73l.07-.02h-.08s-.01-.02-.01-.03l-.4.1c-.58-.28-.05-.9-.58-1.19l-.14.57s-.03-.03-.06-.06c.1.21.2.38.31.4.46.66.07,1.22-.1,1.42.01.4-.53.07-.75.19.3.54.71.34,1,.87.01.15-.07.15-.13.11.1.09.21.18.32.27-.1.07.29,1.04-.26.61-.03-.09-.11-.24-.16-.36.12.88.54,2.38.12,2.58.15.48.28.23.59.96.47.13.54-.37,1.19.19l-.2-.56h-.01s-.02-.06-.02-.06c-.12-.08-.25-.13-.37-.23l.38.52c-.34-.24-.45-.1-.77-.03-.64-.87-.23-1.43-.35-1.96.36.17.55.69.8.31-.08.63.58.31.62.97l-.16-.04c.52.23.24.5.69.67-.08,0-.09.09-.1.16.62.61.05-.35.83.13.4.63-.36.59-.39.87-.62-.35-.72-.27-.86-.18-.12.08-.25.15-.83-.34-.44.3-.19.85.35,1.45-.14-.54.81-.22.71-.97.92.75,1.66-.01,2.08,1.25l-.08.03c.2.05.4.1.61.12l.34.63c-.71.09-.9-.47-1.35-.53.07.53.39.64.75.71.36.07.78.1,1.12.46.16,1.04-.98-.43-1.35-.06.24.04.45.63.29.69-.54-.82-.68-.16-1.2-1.15.46.28.08-.16.3-.26-.24,0-.93-.71-1.31-1.31-.41.11.13.68.29,1.14.45.19.65.59.89.93.23.35.47.67.88.72.69.61-.21.33-.21.4.49.71.49.01.74.13.54.34.76.6.89.92.15.31.23.63.58.92.23.01.48.09.75.23.27.11.57.27.87.46.6.35,1.2.85,1.76,1.13-.22.09-.14.29-.16.48,1.02-.3.64-.16,1.67-.15l-.58-.59c.61.2,1.23-.01,1.6.55-.41-.89,1.09-.08,1.58-.14.49.48,1.23.15,1.42.65h-.08l.82.33-.27.59c.53.44,1.4.12,1.23-.11.59.29.21.28.23.6-.2.05-.53.18-.82.21-.29.04-.55-.04-.59-.32.04.06.17.12.22.05-1.56-.78-.77.58-1.64.48.42.19.67.58,1.19.56.2.07,1.04.02,1.57-.09-.58.07-.85-.23-1.24-.57.4.18.55-.18.85.11l-.14.08.5-.13c-.02.39,1.2.42.43.71.64.05.28-.29.86-.31l-1.07-.36.1-.4c.45-.18.48.13.92.19l.05-.45c.23.18.46.36.7.51-.05-.31.52-.11.69-.15.41.22.05.89.83.58l-.04-.05c.21-.04.39-.09.58-.09.19-.02.4,0,.7.07-.04.08-.21.13-.29.16.84.27,2.2-.34,2.59.27-.01.08-.04.13-.07.16-.12.15-.35.09-.37.42-1.32-.57-.96.63-2.54.24.01-.89-1.39.38-1.59-.55.6.2,1.47-.26,1.37-.36-.57-.02-1.35-.1-1.72-.24.3.34.12.83-.18,1.1.48-.06,1.12.11,1.82.33.69.18,1.45.38,2.12.45l-.13-.56c1.14-.35-.15.52.75.57l.39-.41.06.04.64-.52c-.46.05-.24.43-.75.23-.45-.16.02-.41.14-.73.28.14,1.23.02.83.33l1.04-.54c.01.2-.24.3-.36.42.29-.04.57-.09.85-.16l-.03.08c.66-.32,1.61-.44,2.06-.89-.6-.12-.48-.25-.23-.39.24-.13.61-.32.53-.45.4-.03.73.88-.09,1.44-.29-.26-.79.19-1.24.29.57.1.74-.16,1.16-.25-.28.31.66.2.69.4-.04.16-.15.68-.78.58-.89.09-.16-.49-.41-.36-.31-.49-1.22.24-1.78.16-.06-.04.11-.12.19-.16-.46.11-1.42.11-1.48.48.39-.11.77-.21,1.14-.32.27.08-.33.35.06.53.26-.13.57-.21.92-.17l-.04.17c.75.2,1.86-.04,2.64-.38.03-.82.35-1.37.48-2.28.57-.11,1.13-.3,1.72-.44.58-.16,1.19-.26,1.79-.44-.09-.15-.13-.31-.13-.47.4.06.93-.32,1.07.06.1-.26.36-.55.55-.83.18-.29.29-.54.12-.68.03-.02.07-.05.11-.08.29.1.62.15,1.02.11.4-.04.89-.12,1.42-.43.21-.13.09-.37-.15-.67.27-.04.53-.08.74-.19-.06.24-.04.5-.31.71.54-.3,1.12-.58,1.65-.92v.24s.43-.68.43-.68c-.28.35-.87.66-.97.23.49-.75,1.13-.71,1.35-1.55.47.57.73.5.81.97-.04.03-.07.03-.09.03.05.47-.16,1.17-.46,1.54.71-.41.96-.6,1.17-.79.22-.19.42-.36,1.01-.82.19.11.02.44-.15.73-.17.29-.36.52-.13.52l-1.24.72c.17-.17.13-.26.18-.39-.59.84-1.08.76-1.43,1.55-.5.09.42-.66-.04-.44.32-.29.36-.94.32-1.33-.46.27-.52.46-.53.68,0,.21.02.46-.32.78l-.78.06c-.32.29.23.11.32.21-.38.36-.69.23-1.01.43.14.03.42-.02.44.15-.7.06-1.18.5-1.97.24.43.1-.02.83-.23,1.04l1.38-.03c.33-.22.65-.39.94-.57.3-.18.58-.35.86-.53.29-.17.57-.35.87-.56.15-.11.29-.22.45-.35.14-.13.29-.28.44-.44l.05.25c2.65-1.14,1.07-2.3,2.67-3.86.49.37.65-.84,1.01-.4-.48.51-.23.55.1.57.13-.45-.03-.92.64-1.39.04.41.68.03.27.7.39-.38.68-.7.85-1.01.16-.33.2-.66.15-1.03.54-1.73.84-.08,1.52-1.73l.07.34.43-1.02-.41.19.28-1.3c.07-.82-.47.12-.63-.07l.25.42c-.32.4-.33,1.22-.64,1.17.33-.77-.05-.76-.05-1.11l.1-.39c-.08.17-.1.29-.11.39l-.2.76-.4.06c-.41.65-.8,1.09-.76,1.68.31-.18.03-.61.39-.71.11.3.05.66-.1,1.06-.15.4-.36.85-.61,1.26-.11-.06-.34.16-.34-.01-.02-.05.09-.17.16-.23-.23-.09-.02-.58-.69.01-.08-.48-.17-1.34-.3-1.4.19-.47.53-1.05.86-1.31l.04.07c.14-.16.25-.48.37-.74s.21-.49.4-.42c.04-.28.26-.96-.26-.43l.35-1.14c.51.48,1.16-.49,1.1.83,0-.03.1-.32.24-.79.25.57.67.07.93-.56l-.29-.3c.2-.23.42-.39.59-.61.09-.08.2-.29.28-.47.09-.2.16-.42.21-.69-.21-.96-.55-1.82-.84-2.57.02-.21.04-.43.06-.64.29-.3.34-1.27.71-.94.2-.13.22.21.03.67-.06.07-.07-.04-.13.03.21.11.49.18.87-.43-.18.6-.24.67-.16,1.08l.19-.6c-.11.87.12,2.34.44,2.39-.4-.36.19-.9.39-1.44,0,.4.08,1.31.27.64-.13-.27-.02-2.05-.47-.79-.01-.54-.09-1.21.17-1.81.09.67.35.2.63.37-.15-.62-.49-.54-.64-.62.28-.88.64-1.57.92-2.3.27-.73.45-1.51.35-2.46-.04-.24.07,1.19-.24,1.12-.22-.62-.03-1.14.17-1.72.21-.56.46-1.16.38-1.76l-.56.71c-.07-.35-.1-1.25-.13-1.69.19-.24.64-1.96.75-1.05.05-.31.08-.58.08-.79-.01-.1.03-.23-.12-.19ZM317.25,14.84c-.09-.07-.15-.15-.21-.25l.23-.2.06.25c.02.07.01.13-.08.2ZM319.48,11.92l-2.2,1.1-.08-.75,2.41-.73-.13.38ZM320.5,11.61l.53-.46-.79.39-.36-.08,1.22-.37h.02s.73-.65.73-.65c.31-.3.84-.36,1.36-.5.02.12.22.16.13.26-.01.04-.08.05-.14.03h-.04c.05.24-.3.38.29.53-.22.37-.66.99-.64,1.11-.3.09-.68.13-.96.06l-1.35-.32ZM321.63,15.55h.05c.1-.16.16-.3.2-.43l.2.2h-.19c-.02.14-.03.3-.05.45l-.21-.22ZM321.61,14.59s.01-.01.02-.01l.21.21s-.01.01-.02.01l-.21-.21ZM321.87,18.96v-.02h.02s-.02.02-.02.02ZM321.93,18.81s.05,0,.08,0l-.05.04h-.07l.04-.05ZM321.92,19.41l.1-.2h.13l-.23.2ZM322,18.86l.03-.04c.1,0,.2,0,.33-.04-.09.06-.2.07-.36.08ZM322.34,15.32l-.4-.4s0-.01,0-.02l.42.42h-.03ZM323.03,33.72l.2.05c.03.07.07.13.11.2-.12-.1-.23-.18-.31-.25ZM323.43,15.14c-.06.06-.11.12-.17.18h-.41c-.08-.21-.37-.48-.75-.78.02-.06.04-.1.07-.16-.05.03-.09.07-.12.12-.06-.04-.1-.08-.16-.12l-.09-.07-.84.87c-.1.11-.21.22-.32.34.03-.12.06-.24.09-.38l.25-1.1.91.1c.54.06,1.1.14,1.65.2-.13.23-.12.56-.11.8ZM324.02,14.28s0-.05.01-.08h.01c0,.08.07.07.18.03-.03.06-.14.2-.3.38l.1-.33ZM323.73,14.14s-.03.03-.04.04l-.02-.04s.04,0,.06,0ZM323.63,18.87s.05-.02.05-.02c.14,0,.22.03.26.06-.11-.02-.21-.03-.31-.04ZM323.92,18.84h-.06c-.07-.01-.14-.03-.2-.06h.71c-.19.03-.33.06-.45.06ZM324.91,18.78v.02s-.03,0-.05-.01h-.01s.06-.01.06-.01ZM325.12,19.17c-.18-.03-.36-.06-.54-.09.09-.04.18-.07.26-.09.1-.01.21.01.34.08-.03.03-.05.07-.06.1ZM326.28,18.93h.04s-.08.05-.12.06l.08-.06ZM325.82,18.78s.04.05.06.08l-.08-.08h.02ZM326.36,19.36c-.18-.03-.35-.05-.52-.08l.2-.16c.13.02.28.05.46.08l-.14.16ZM336.41,13.69s.01,0,.02,0c-.01,0-.02.01-.03.01t.01-.02ZM327.99,15.32c.09-.18.43-.13.71,0h-.71ZM329.27,14.87c.22,0,.34-.06.42-.14.08-.02.16-.03.24-.05.04.22.07.4.06.52l-.11.12h-.83c-.07-.08-.17-.15-.28-.2l.5-.25ZM333.76,43.24c-.4,0-.85.03-1.31.03,0,0,.07-.05.15-.05-.76-.39-.84-.39-1.47-.64l.29-.09c.01-.17-.14-.24-.35-.29-.21-.07-.48-.15-.72-.28.02,0,.04-.01.05-.01-.01-.07-.15-.1-.24-.11.06.04.11.08.17.12-.22.05-.61,0-.67-.29l.2-.15c.02-.12-.09-.25-.26-.39-.08-.07-.18-.14-.29-.22-.11-.09-.22-.18-.34-.28.07,0,.15-.01.22-.03,1.5,1.1,3.14,1.99,4.85,2.69-.09-.01-.18-.01-.28-.01ZM335.09,15.32c-.05-.07-.08-.14-.06-.25-.26.05-.52.11-.72.25h-1.42c.52-.46,1.04-.91,1.63-1.24.05.38,1.08.28,1.59.36-.2.4-.56.52-.94.6h-.02c.25.03.67.04.97.06l.13-.79h0c.43-.03.56,0,.56.1.01-.11.04-.24.04-.36.11-.02.21-.02.32-.02-.05.05-.09.12-.11.21.26-.05.34-.11.4-.2.54.06,1.04.23,1.47.29.12.02.23.03.34.02h.02s0-.01.01-.01h.04v-.02s-.03-.06-.03-.09c0-.02,0-.03.01-.04h-.01s0-.01.01-.01h0s0-.02.01-.02c.05-.07.14-.12.24-.16t.01-.01s.07-.04.09-.05c.01-.01.02-.02.02-.03.06.01.09.03.1.07v.02s.02.03.02.05c0,.07-.07.13-.15.14.16.08.26.19.33.3,0,.01,0,.03.02.04-.01.01-.03.02-.04.03-.17.16-.27.32-.38.48h-.03l-.31.02c.08.03.15.08.21.13-.01,0-.02.02-.03.03.02,0,.04,0,.06-.01.04.04.08.07.13.11h-.31s.02-.02.03-.03c-.02,0-.05.01-.06.03h-.94c-.08-.08-.13-.16-.09-.24-.13.06-.3.01-.45-.04v-.09h0c-.07,0-.12.02-.16.04-.1-.03-.19-.06-.24-.03.08.04.13.08.16.11-.04.08-.05.16-.09.25h-.44c0-.11.08-.22-.07-.28l-.38.03c.34-.09.48-.34.71-.45-.39.08-.48-.02-.49-.18-.06.19-.57.49-.33.64h-.01s.41.07.41.07l-.06.17h-1.74ZM336.49,24.52c.27-.04.35-.21.6-.09.05-.2-.2-.32-.36-.43-.02.39-.41-.02-.58-.04,0-.19.26-.02.38.06.02-.16.33-.41.01-.41.28-.04.74.18.91.37l-.02-.16c.18.06.15.09.16.27.15-.23.39-.3.58-.33-.03.03-.06.01-.09.04-.02.14.08.21.21.13.39-.04.16-.25.31-.39l-.13-.14c-.45-.07-.87-.16-1.31-.29.02.03.04.05.07.08.24.07.51.1.31.4-.44-.27-.57-.09-1.08-.21l.03.09c-.06.06-.17-.09-.2-.12.2.06.1-.16.27-.13-.14-.13-.28-.26-.41-.4l.28.03c.23.09.46.17.69.24-.18-.25.07-.44.22-.66h-.33c0-.26.07-.5.49-.39-.09-.16-.15-.26-.15-.26.51.36.59-.04,1.16-.02l-.2-.33c-.18.22-.28.02-.36-.06.32-.03-.02-.29.03-.42h.07c.11-.1.09-.3.01-.45-.11,0-.63-.23-.94-.36-.14.27-.26.1-.46.1.02-.02.03-.08-.01-.09-.09-.05-.12.05-.23.05.13.32.16.64.62.77.2-.09-.2-.16-.06-.26.3.16.24.34.24.58l-.27.09.15.24c-.14-.1-.42-.02-.49-.29-.25.05.07.27-.01.44l.35.05c-.19,0-.19.36-.49.12l-.31-.41-.24.13-.09-.36.19.08c-.26-.59.7-.18.29-.75-.42-.21-.48-.39-.32-.78.07.29.3.05.53.18.22-.26-.12-.4-.27-.58.24-.04.42-.07.36.18.47.11-.04-.34.45-.28.06-.4-.27-.67-.53-.95-.26-.28-.42-.6.08-1.03l.17.11c.01-.38.15-.64.28-.89.14-.25.29-.48.42-.81.25-.06.48-.11.72-.15-.01.15.13.61.41.64-.55-.11-.55.21-.92.3.11.09.24.04.34.05-.08.13-.32.09-.34.31.1.04.31-.09.29.08-.14.03-.27.07-.4.11-.03.4.59.47.31.79-.23-.17-.54-.48-.54-.66-.15.16-.03-.33-.27-.23.25.44-.07.44,0,.89-.05-.05-.11-.1-.1-.18-.12.16-.25.31-.35.48.27-.06.14.52.51.55.28-.49.02-.4.44-.9.05.2.28.5.57.69-.02,0-.03,0-.04.02.32.19.43.13,1.03.32-.35-.35.06-.38-.08-.73-.29-.19-.46-.01-.44.16l-.11-.33.13.11c.1-.2.26-.38.39-.56-.05.12.11.25.22.37.05-.07.17-.1.29-.13-.3-.14-.49-.26-.45-.33.28-.33.67-.36,1.05-.25,0-.02,0-.04.01-.06-.32-.14-.31-.57-.46-.91.25.22.29-.05.51-.01-.08-.1-.18-.21-.29-.3.34-.19.63-.4.91-.6h-.53s.04-.08.05-.12c.2.01.42.02.63,0h.01c-.32-.68-.41-1.1-.72-1.71.22-.3.59-.61.96-.51l.03.14c.15,0,.25-.09.31-.2.2.1.06.36.19.41l.32-.31c.02.23-.25.36-.39.45,0-.04.04-.1.01-.13-.25-.02-.34.61-.63.26-.06.11.03-.39-.3-.24-.3-.02-.16.37-.11.49.09.15.43.02.43.26.14-.11.09-.33.36-.28-.14.09-.16.51-.37.32-.08.32.13.74.32.95.06-.02.12-.05.17-.08.04-.17.17-.36-.18-.42,0-.38.3-.54.44-.83l.02.06c.08-.07.16-.13.25-.2-.01.11-.06.21,0,.37.06-.17.12-.3.2-.47.01.18.26.04.38.13h.01s0,.07.02.13c.29.51.56-.2.9-.06-.02.03-.06.09-.06.16.21.06.28-.03.39-.19l-.02-.03c.18-.38.19.23.35.36.05-.06.23.01.19-.23l.28.3-.05-.39c.14-.04.19.22.31-.02v-.35c-.14-.04-.27-.08-.39-.1.18-.13.02-.34.24-.42-.22.37.14.2.21.47l.13-.12-.02.05c.13.17.14-.14.29-.09-.14-.17-.26-.37-.43-.26.15-.17.41-.35.48-.35.18-.15.3.13.46.17-.32.13.04,1.06-.52.78.01-.06.06-.05.07,0-.07-.45-.34.03-.45.2.04.26-.08.32.13.46-.08-.16.16-.58.37-.36l-.05.55.26.07-.02.02c.08.36.29-.05.46.18.02-.02.04-.03.06-.05.02-.07-.02-.16-.04-.23.13-.1.12.1.06.23.2-.08.55.02.44-.5.11.37.34-.02.56-.05l-.2-.27c.38-.31.23-.1.64-.63-.01.16.01.29-.09.42.42.14.92.51,1.34.21.29.17.04.75.53.75.12-.02.2-.48.38-.19,0,.05-.46.2-.15.33.17-.08.25-.03.32.06.01-.01.02-.02.03-.02,0,.01,0,.03-.01.04,0,.02-.03.04-.05.06h.08c.62,0,.69-.03,1.22-.1l-.18.22c.1.29.54-.02.97-.05-.01.01-.02.02-.02.04.04.05.15-.01.22-.05-.06-.01-.12-.01-.17,0,.13-.17.41-.34.58-.12l-.06.23c.07.21.51.22,1.01.22-.04.05-.09.11-.14.18h-2.15c.03.11-.02.25-.19.41-.64-.11-.38.3-1.01.32-.07.17-.52.43-.39.62.43-.04.21-.33.51-.24-.02.04-.03.08-.09.12.26-.07.03.17.34.11l-.09.03c-.09.33.37-.03.25.29.22-.26.29-.09.52-.11,0-.22.31-.6.04-.89-.23.14-.32.26-.52.24l.18.16c-.07-.02-.14,0-.21,0-.01-.08-.03-.18-.05-.26.33.08.45-.2.75-.29.1.29.21.13.26.33-.3.23-.21.85-.27,1.22-.01-.05-.05-.09-.07-.13-.32-.04-.19.3-.29.36.08,0,.13.01.2.02-.04,0-.09.02-.11.08.15.14.5-.05.65.11-.18.11-.55.11-.6.26-.15.12-.54.44-.29.57.07-.01.14.02.19.07h-.02l-.17.23c-.39,0,.07-.31-.32-.29l-.32.13c-.04-.08-.24-.13-.42-.1,0,.15.11.12.22.24-.2.1-.38.07-.41.07l.19-.06c.19-.28-.42-.08-.44-.28,0-.03.02-.03.09-.06-.34.04-.13-.26-.41-.23.5.67.8,1.54.78,2.62,0,.12-.02.22-.03.34h.03c.12.06.25.13.38.21.24-.1-.3-.24.02-.23.09.03.06.09.24.1.13-.11-.11-.13-.18-.22.67.25.6.77.71,1.08.04.06-.15-.06-.22-.08,0,.12-.22.13-.14.3.25.15.22-.02.26-.08.24.06.22.1.23.19-.32-.06-.23.42-.65.38-.05.44.81.23.52.6l-.4-.03c.07.18.12.38.12.56,0,.19-.07.36-.19.47l.03-.07c-.1-.12-.23-.12-.31-.14-.24.09-.04.52-.4.39.13.44,0,.99-.15,1.34-.36-.32.07-.57-.06-.89l-.19.19c.12-.12.04-.31-.08-.57-.22.08.02.45-.08.68-.07-.11-.15-.16-.23-.1l.15.25s-.04-.01-.06-.01c-.06.14-.13.26-.21.39.15.07.31.3.4.25-.13-.14-.08-.22,0-.28.04.23.19.08.29.22-.18.14-.39.32-.48.48l-.19-.23c-.22.05-.34.28-.5.27l-.03-.16c-.25.04-.41.29-.7.1-.08.39-.27.73-.37,1.13-.02.4-.75-.3-.92.23,0-.07.14-.31.2-.45-.17-.04-.25.45-.35.05.39.09-.06-.32.09-.45-.16.03-.33.12-.4.27.25-.03-.02.49.17.4-.19.33-.48.47-.76.35,0-.18-.03-.26-.13-.32h-.01c.02-.06.01-.11-.08-.15-.29.43-.74-.3-.97.47-.15-.34.43-.27.18-.69.2-.27.39.09.48-.3-.17.09-.03-.35-.13-.36l-.19.22.03.02c-.34.34-.79.08-1.18.02-.42.3-.88.75-1.29.52.22-.15-.24-.37.19-.64-.08-.27-.36-.14-.45.01.13.14.03.08.12.22-.18.15-.41.03-.42-.15.04.04.04-.01.08-.06-.11-.24-.2.13-.39.12.12-.28-.26-.26-.29-.48-.13.07-.27.12-.4.18.2-.14-.13-.21-.01-.42-.24.05-.58.2-.72-.04.18-.02-.02-.31.18-.5-.04-.25-.29-.25-.54-.28-.25-.03-.48-.09-.44-.38.07-.03.26-.07.26-.2-.12-.04-.18-.19-.26-.26-.02-.01-.03-.02-.05-.02h-.07s-.01,0-.03,0h-.05c-.3,0-.58.02-.94-.21-.28.16-.01.41.14.48l.34-.05c-.37.34.24.25.14.4-.62.12-.82-.56-1.3-.8-.31.4-.11,1,.22,1.41l.04-.3.15.22.15-.39c.08.24.27.37.38.57-.15-.21.16-.54.18-.39-.1.41.33.13.43.29-.05-.1-.12-.23.08-.26-.07.56.2.48.14,1.03.35-.39.37.3.71.02l-.08-.15h.47c-.06.54-.52.14-.35.7.34.34.67-.12.97.05-.27.2-.67.24-.9.04l.05.24c-.2.09-.5-.22-.64-.39.51-.02-.05-.19.04-.51-.24.2-.04.32-.41.31.19.17.23.18.39.49-.41-.58-1.24.3-1.5-.41.31.16.27-.36.37-.48-.12-.08-.35-.28-.48-.33l-.3.34c-.4-.24.32-.84-.29-1-.27.08.12.39.03.35-.55-.42-.04-.97.09-1.55-.14.02-.4.14-.68.04ZM352.6,19.93c-.23-.09-.46-.17-.69-.23.02.06-.02.12.1.17l-.55.09s.01.03.01.04c-.07-.05-.27-.03-.34-.07.12-.1.2-.24.19-.43-.33-.05-.25-.09-.4-.25.35-.17.24.16.61.11.01-.05-.05-.08-.09-.1.12-.17.3-.02.47-.05l-.06.29.52.07c.32-.38.15-.05.57-.31-.18.18.17.48-.34.67ZM351.49,20.04s-.01.04-.03.07c.02.08-.14.16-.23.15l.25-.24v.02ZM352.59,19c.04-.13-.12-.24-.29-.14-.01.1.12.13.18.18-.13.05-.33-.02-.4.08-.13-.08.03-.38-.38-.27.04.4-.35.03-.49.07.05-.03.06-.06.05-.1.11.12.23.23.44-.06.01-.16.01-.33.01-.5.05.21.32.26.09.55l.37-.03c.1-.23-.12-.46-.3-.63.66.04.94.31,1.19.71-.11.24-.3-.06-.47.14ZM341.13,29.21l-.23-.04c-.28.09-.63-.7-.83-.08-.14-.1-.12-.46-.4-.53.03-.07.05-.11.08-.15l-.03-.02.07-.02s.05-.02.08-.02c.2-.04.36-.1.31-.34.25.13.49.48.68.14,0-.13.01-.29-.06-.39.33.21.6-.06.87.16-.12.04-.36.08-.55.16-.2.07-.36.19-.28.44.17-.11.34-.23.51-.35.04.17-.17.17-.25.22-.09.2.17.48.34.31h0c.03-.14-.18-.24.11-.39.29-.05.57-.14.84-.23-.09.07-.13.23-.16.28.13.1.32-.3.46-.07-.13.1-.26.19-.4.29.63.05.32.26.95.04l-.03.06c.19,0,.52.06.73-.16l-.07.34c.35-.61.14.18.55-.04l-.07.05c.24-.01.11.18.07.42.36.2.47-.77.82-.5-.02.24.1.42.07.62-.1-.1-.24-.15-.35-.01-.09.39.42.07.17.48.16.07.28.21.45.26-1.09.03-2.18-.11-3.27-.45,0,.03-.02.06-.06.09,0-.05-.02-.09-.03-.12-.25-.09-.5-.19-.75-.29-.05.21-.36.01-.52.07.17-.05.23-.12.25-.19l-.08-.04ZM344.17,45.33c-.31.27-.7.58-1.23.92l.03-.08-1.1.05.14-.18-.67.29c.05-.4-.18-.2-.12-.48-.32-.76-1.44.13-2.25-.33l.16-.16c-.53.28-1.6-.34-2.28-.63l.05-.07c.37-.02.53-.17.51-.34.34.09.69.16,1.03.23,0,.05.05.11.11.21.17-.06.38-.07.58-.08.49.09.99.16,1.5.21-.07.08-.17.15-.28.21h1.03s1.03-.06,1.03-.06h0c.6.02,1.2.02,1.8,0-.06.09-.04.15-.04.29ZM353.5,44.42l-.19-.33c-.64.19-1.09.6-1.6.94-.49.34-1,.74-1.72.8.12-.36.67-.32.56-.47-.82.15-.5,1.02-1.42.73,1.07-.34-.56-.06.08-.5-.63.37-1.35.47-2,.42-.71-.04-1.34-.09-1.82-.04.26.23-.38.37-.4.45-.26-.03-.18-.27.02-.29-.5-.18-.6-.5-.53-.8l.98-.09c-.18-.05-.31-.14-.45-.23.5-.03.99-.07,1.49-.12.08.05.13.12.1.2.32-.15.86.1,1.03,0-.36-.11-.32-.22-.15-.33.18-.03.36-.06.55-.09.01.1-.06.23.12.24l.76-.21-.68.08.04-.16c1.64-.3,3.24-.76,4.78-1.38.45.12.79.4,1.15.71h.02c-.25.18-.5.33-.72.47ZM356.91,41.81c-.19.17-.38.34-.56.51-.23-.25-.37-.44-.34-.54.01,0,.02-.01.04-.02.01,0,.02-.03.06-.03.29-.17.56-.34.84-.53.11.02.24.01.37-.02l-.47.65s.04-.01.06-.02ZM357.78,40.77c-.13.08-.29.14-.46.18.22-.15.43-.3.64-.45.01.09-.06.19-.18.27ZM360.88,15.32c.1-.06.2-.11.27-.15l-.11.15h-.16ZM362.37,37.6h0s.25.05.25.05c-.26.19-.19.56-.5.52-.06-.03-.07-.54-.08-1.1-.01-.18-.01-.35-.02-.52.1-.13.2-.26.3-.39.32.07,1.04-.25,1.91-.69-.56.74-1.17,1.48-1.86,2.13ZM365.72,29.23v-.05h.01c.04-.17.09-.26.13-.31-.05.12-.09.24-.14.36ZM370.79,17.66c-.19.03-.31.06-.41.08,0-.04-.04-.07-.05-.12.13.01.28.02.46.04ZM369.9,17.73c.19.05.21.2.2.37-.02.02-.04.05-.09.08-.02-.04-.08-.08-.15-.11l.04-.34ZM367.65,17.88c.72.24.53.32.27.42-.09.03-.19.06-.26.1-.01-.17-.02-.35-.02-.52h.01ZM366.47,26.99c-.1.38-.18.74-.33,1.08-.02-.23-.05-.47.03-.78-.04.06-.06.11-.1.17.1-.5.18-1.01.25-1.53.08.16.1.4.05.69.04-.12.15-.46.28-.95l.14.11c-.1.42-.21.82-.32,1.21ZM368.2,34.22c.03-.11.07-.23.1-.37.02.01.03.03.05.05.01.06.03.1.07.14-.08.12-.09.21-.22.18ZM369.9,23.91s.05.09.07.14c-.03-.01-.06-.06-.07-.14ZM372.36,21.92c-.05,1.7-.29,3.75-.9,4.71-.32-1.33.06-3.7-.59-4.14-.2.39.42.85-.2,1.49.11.08.23.17.35.26.08.42.14,1.52-.26,1.7-.17-1.2-.47-1.41-.74-1.86.01,0,.03-.01.05-.03l-.17-.17s-.01-.02-.01-.04h0c.01-.21.04-.52.04-.79,0-.17-.01-.33-.04-.43.11-.47.31-.31.39-.31.28-.9.13-1.43-.06-1.89-.09-.24-.18-.46-.23-.73.05-.21-.22-.12-.37-.15-.16,0-.32-.03-.47-.08.32-.29-.78-.45-.27-.58-.78-.14-1.56.16-2.25.35-.03-.07-.07-.08-.14-.05-.05-.06-.18-.1-.32-.13l.35-.24-.03-.03h1.18l1.47-.27-.51-.09c.32-.23.77-.18,1.2-.14.09,0,.17.01.26.01-.02.21-.02.42.24.5-.01-.17-.02-.34-.03-.51.23-.01.43-.07.57-.25.19.15.39.21.53.3-.06.28-.09.51-.13.75-.07.46-.13.95-.4,1.79.2.18.24-.33.29-.76-.06.72.57.36.14,1.55-.1.5.4-.04.48-.87-.05.71.01,1.37-.11,2.17.16-.34.31-.7.46-1.06,0,.3-.03.6-.05.89.1-.28.19-.57.28-.87Z"/>
      <path class="st0" d="M337.42,22.14s.08.01.1.03h.06s-.05-.09-.08-.13c-.11.02-.07.05-.08.1Z"/>
      <path class="st0" d="M347.54,16.97c-.13-.06-.25-.12-.21-.29l.09-.18c.01-.19-.12-.09-.21.03l.04.02s-.08.05-.08.01l.02-.02c-.14,0-.32.19-.28-.05l.1-.16c-.18,0-.21.02-.42-.01h0s.05-.1.05-.1c-.2.23-.35.38-.48.51.44.06.87.19,1.27.37.04-.05.08-.09.11-.13Z"/>
      <path class="st0" d="M349.82,15.56c-.25.15-.26-.15-.65.17.03.09.05.18.08.27l.32-.16-.04.05c.05.56.58-.15,1.03-.04.02-.24.24-.38.4-.53h-1.9s-.04.11-.05.2c.23.19.86-.53.81.04Z"/>
      <path class="st0" d="M354.27,47.86v.09c.36-.9,1.92-.28,2.25-.83-.02-.38-.29-.33-.62-.19-.32.13-.71.3-.92.24.27-.41.83-.23.34-.47.74-.69.78.3,1.29-.48l-.48.04c.18-.45.79-.54.95-.99-.18-.45-.52.28-1.19.44l.1-.47c-.33.31-.66.65-1.02.93-.13.7.23.57-.41,1.28-.37-.13-.7-.41-.87-.73-.09.23-.28.45-.58.63-.31.18-.7.33-1.12.44l.29-.3c-.67.12-.85.47-1.09.71,0-.07-.07-.1-.19-.16-.57.23-.81.72-.42.94l.18-.18c.17.09.35.19.52.27-.02-.76,1.34-.73,1.92-1.26-.36.46-.58,1.24-1.32.99l.17.34c-.53.22-1.05-.03-1.27.39.21-.07.42-.14.62-.23l.04.2c.43-.16.91-.64,1.39-.55.28-.35.49-.79,1.44-1.09Z"/>
      <path class="st0" d="M349.07,18.35l.07-.03s-.06.01-.1.01c.01.01.02.02.03.02Z"/>
      <path class="st0" d="M349.64,14.72s-.06.15-.05.22c.06-.03.12-.06.17-.1-.04-.01-.08-.04-.12-.12Z"/>
      <path class="st0" d="M320.17,29.93c.31-.1.26.78.54.42-.18-.14-.27-.58-.54-.42Z"/>
      <path class="st0" d="M320.87,29.73c-.09,0-.2.05-.26-.14l.22.51.04-.37Z"/>
      <path class="st0" d="M323.21,41.03c-.1-.11-.19-.3-.42-.38-.15.21.25.3.42.38Z"/>
      <path class="st0" d="M331.85,46.13c.55.5,1.06.49,1.53.46.23-.01.46-.03.68.02.23.03.46.11.69.32l-.26-.61c-1.03-.1-1.61.1-2.64-.19Z"/>
      <polygon class="st0" points="333.49 48.11 333.49 48.09 333.49 48.1 333.49 48.11"/>
      <path class="st0" d="M334.42,47.45c-.71-.11-.47.35-1.06.07l.13.57c0-.48.97-.27.93-.64Z"/>
      <path class="st0" d="M338.2,49c.17.09.33.17.5.24-.13-.1-.25-.21-.37-.32l-.13.08Z"/>
      <polygon class="st0" points="342.01 49.29 341.48 49.45 341.54 49.5 342.07 49.34 342.01 49.29"/>
      <path class="st0" d="M354.32,48.26c-.73.19-.46.62-.85.85.8-.31,1-.29,1.93-.76-.8.18-1.01.19-1.07-.09Z"/>
      <path class="st0" d="M356.56,48.01c-.14.06-.35.17-.51.12.08.28.65-.16.51-.12Z"/>
      <path class="st0" d="M351.21,44c.24-.03.6.4.67-.06-.12-.14-.48.07-.67.06Z"/>
      <path class="st0" d="M358.06,45.94c-.14.05-.43-.01-.46-.26-.11.22-.13.79.46.26Z"/>
      <polygon class="st0" points="352.54 43.84 353.02 43.56 352.89 43.5 352.54 43.84"/>
      <path class="st0" d="M365.53,41.15l-.12.45.38-.36c-.15.06-.26-.38-.26-.09Z"/>
      <path class="st0" d="M365.87,41.18l-.07.07s.05-.03.07-.07Z"/>
      <polygon class="st0" points="366.72 38.44 366.42 39.04 366.79 38.41 366.72 38.44"/>
      <polygon class="st0" points="369.21 36.12 369.31 35.54 369.17 35.6 369.07 36.18 369.21 36.12"/>
      <polygon class="st0" points="369.47 16.17 369.47 16.16 369.47 16.16 369.47 16.17"/>
      <path class="st0" d="M367.41,12.15l3.44,2.25-.31.44s-.04.08-.06.14h0s-.19-.1-.19-.1l-2.87-2.47-.27.41-.64-.15c0,.21-.47.36-.16.55.06-.03.18-.09.28-.07-.07.44-.85.22-.67.66.51-.11.59-.02.9-.38.21.02.39.05.55.09l1.86.51-.1,1.01c-.02.22-.07.39-.14.53.09.14.35.13.43.31-.01-.04-.02-.08-.03-.13l.65-.1c-.16-.14-.11-.3-.15-.48.29.24.58.49.87.75.43-.25.29-.76.26-1.16l-.21-2.84-3.45-.31c-.12-.01-.23-.03-.31-.1.34.52-.21.31.31.64Z"/>
      <path class="st0" d="M335.04,15.03h0v.04l.13-.03s-.09-.01-.12-.01Z"/>
      <path class="st0" d="M334.34,9.91l.31-.15c-.13.01-.22.07-.31.15Z"/>
      <path class="st0" d="M343.99,11.45c.05.06.1.1.18.14-.01-.06-.07-.11-.18-.14Z"/>
      <path class="st0" d="M334.34,9.91l-.06.03s.01,0,.02.01l.04-.04Z"/>
      <path class="st0" d="M317.16,16.51l.07.35c0-.17-.03-.27-.07-.35Z"/>
      <polygon class="st0" points="364.19 14.27 364.19 14.28 364.19 14.28 364.19 14.27"/>
      <path class="st0" d="M364.18,14.35l.02-.07h-.02v.07Z"/>
      <path class="st0" d="M348.17,12.5c.07.1.26.21.17.31.15-.14.14-.47-.17-.31Z"/>
      <path class="st0" d="M365.74,12.25l-.18.42c-.47-.37-.76-.09-1.23-.13l1.04.22c.49.35.16.43-.22.51.1,0,.18.03.21.1.05-.15,1.15-.5.22-.58.03-.48.59-.22.84-.34-.18-.11.09-.31.03-.48-.13.06-.27.2-.47.17-.09-.22.22-.37.46-.29-.3-.26.38-.39-.05-.58-.89.17-1.53.35-2.15,1.05.51-.11,1.08-.26,1.5-.07Z"/>
      <path class="st0" d="M323.18,10.17s-.02.05.02.06c0,0,0-.04-.02-.06Z"/>
      <path class="st0" d="M338.44,14.93c-.1.05-.15.1-.17.15.07-.03.13-.07.17-.15Z"/>
      <path class="st0" d="M322.22,10.62c-.14-.11-.25.06-.36.12l-.61.31.61-.19c.13-.04.26-.11.36-.24Z"/>
      <polygon class="st0" points="321.24 11.05 321.12 11.08 321.11 11.09 321.1 11.09 321.03 11.15 321.24 11.05"/>
      <path class="st0" d="M364.5,14.33c.15-.14.51-.11.44-.42.01.33-.65.05-.44.42Z"/>
      <path class="st0" d="M364.93,14.66c.02-.08,0-.21.17-.22l-.45.09.28.13h0Z"/>
      <path class="st0" d="M357.08,10.95c-.03-.25-.26,0-.39.06.1.02.24.08.39-.06Z"/>
      <path class="st0" d="M349.59,11.8c-1.01-.51-1.34.79-2.19.27l.32.51c.76-.23,1.09-.67,1.86-.78Z"/>
      <path class="st0" d="M348.23,11.07l-.23-.49c.13.47-.59.55-.47.9.51-.11.24-.45.7-.41Z"/>
      <polygon class="st0" points="344.63 10.89 344.25 10.75 344.54 11 344.63 10.89"/>
      <polygon class="st0" points="341.89 11.03 342.26 10.85 342.22 10.8 341.85 10.99 341.89 11.03"/>
      <path class="st0" d="M333.16,10.16c.51.09.43-.39.75-.51-.58.06-.7-.07-1.38.03.53.13.67.2.63.48Z"/>
      <path class="st0" d="M332.51,9.67h0s0,0,.02,0c0,0,0,0-.02,0Z"/>
      <path class="st0" d="M331.71,9.53c.1.02.26,0,.34.1.03-.28-.44-.12-.34-.1Z"/>
      <path class="st0" d="M333.8,15.06c.06.17.4.07.54.14-.2-.03-.36-.56-.54-.14Z"/>
      <path class="st0" d="M330.16,10.69c.1.02.26.21.19.44.15-.14.34-.63-.19-.44Z"/>
      <path class="st0" d="M324.23,9.66l.27-.2-.34-.06c.1.07-.08.44.07.26Z"/>
      <polygon class="st0" points="322.77 10.3 322.29 10.34 322.33 10.39 322.77 10.3"/>
      <polygon class="st0" points="315.83 16.58 315.98 17.05 316.09 16.96 315.94 16.5 315.83 16.58"/>
      <polygon class="st0" points="334.47 14.44 334.1 14.62 334.51 14.49 334.47 14.44"/>
      <polygon class="st0" points="337.08 15.11 337.45 14.92 337.41 14.87 337.04 15.05 337.08 15.11"/>
      <rect class="st0" x="371.62" y="11.44" width=".31" height=".77"/>
    </g>
    <g>
      <path class="st0" d="M380.5,11.22v2.2h3.38v2.34c0,1,.16,1.84.5,2.56.33.72.83,1.29,1.46,1.69.63.39,1.39.59,2.25.59s1.62-.2,2.26-.59c.63-.39,1.13-.96,1.46-1.69.33-.71.5-1.57.5-2.56v-4.54h-11.81ZM390.26,15.71c0,.91-.2,1.59-.57,2.03-.38.44-.9.65-1.6.65s-1.22-.21-1.6-.64c-.37-.45-.57-1.13-.57-2.04v-2.29h4.34v2.29Z"/>
      <path class="st0" d="M391.97,26.68c-.31-.74-.73-1.39-1.27-1.93-.56-.55-1.2-.98-1.91-1.27-.72-.31-1.53-.46-2.39-.46s-1.66.15-2.38.46c-.72.3-1.37.73-1.91,1.27-.55.55-.98,1.2-1.28,1.94-.3.74-.45,1.55-.45,2.41h0c0,.86.15,1.67.45,2.41.29.74.72,1.39,1.26,1.93.55.54,1.19.97,1.92,1.27.73.29,1.53.44,2.39.44s1.67-.15,2.4-.44c.73-.3,1.38-.73,1.92-1.27.54-.55.97-1.2,1.26-1.93.3-.75.45-1.54.45-2.41s-.16-1.68-.46-2.42ZM390.06,30.64c-.19.46-.47.87-.82,1.21-.36.34-.79.62-1.26.81-.96.4-2.19.4-3.15,0-.49-.19-.9-.46-1.26-.81-.36-.35-.63-.75-.82-1.21-.2-.48-.3-1-.3-1.55s.1-1.06.3-1.53c.19-.46.47-.88.82-1.23.36-.35.78-.62,1.26-.82.48-.19,1.01-.29,1.58-.29s1.09.1,1.57.29c.47.2.88.47,1.25.82.36.35.64.76.83,1.23.2.47.3.97.3,1.53s-.1,1.08-.3,1.55Z"/>
      <polygon class="st0" points="380.51 40.61 388.18 40.61 380.51 46.6 380.51 48.36 392.3 48.36 392.3 46.15 384.63 46.15 392.3 40.16 392.3 38.4 380.51 38.4 380.51 40.61"/>
      <path class="st0" d="M365.04,73.44c3.94-1.48,6.38-5.02,6.43-9.35.04-3.99-2.18-8.82-7.18-10.59-2.26-1.26-9.64-1.11-15.57-.99-2.6.05-4.85.1-5.99,0l-.36-.03v33.44h7.97v-10.97h6.7l7.59,10.83.09.14h9.02l-8.7-12.48ZM362.49,67.13c-1.89,1.88-5.92,1.72-9.16,1.59-.79-.03-1.55-.06-2.24-.06-.26,0-.51.01-.75.02v-9.92c.78.02,1.7,0,2.67-.04,3.36-.12,7.53-.26,9.48,1.69.8.8,1.17,1.88,1.12,3.32.06,1.48-.31,2.59-1.12,3.4Z"/>
      <polygon class="st0" points="352.64 111.05 335.82 89.86 335.72 89.74 330.19 89.74 330.19 123.81 337.35 123.81 337.35 103.01 354.04 123.81 359.8 123.81 359.8 89.78 352.64 89.78 352.64 111.05"/>
      <rect class="st0" x="366.1" y="89.74" width="7.16" height="34.07"/>
      <polygon class="st0" points="390.26 54.62 380.51 54.62 380.51 56.81 390.26 56.81 390.26 60.51 392.3 60.51 392.3 50.92 390.26 50.92 390.26 54.62"/>
      <polygon class="st0" points="392.3 71.36 392.3 63.08 380.5 63.08 380.5 71.57 382.55 71.57 382.55 65.28 385.48 65.28 385.48 70.7 387.5 70.7 387.5 65.28 390.25 65.28 390.25 71.36 392.3 71.36"/>
      <path class="st0" d="M380.51,74.95v4.89c0,1.2.25,2.28.74,3.2.5.93,1.19,1.66,2.08,2.18.88.52,1.92.78,3.08.78s2.19-.26,3.08-.78c.88-.52,1.58-1.25,2.08-2.18.49-.93.74-2.01.74-3.2v-4.89h-11.8ZM390.26,79.74c0,.84-.16,1.57-.48,2.17-.33.61-.77,1.07-1.34,1.39-.58.33-1.26.5-2.03.5s-1.44-.17-2.02-.49c-.59-.34-1.04-.81-1.35-1.4-.32-.6-.48-1.33-.48-2.17v-2.58h7.7v2.58Z"/>
      <polygon class="st0" points="392.3 97.53 392.3 89.25 380.5 89.25 380.5 97.74 382.55 97.74 382.55 91.45 385.48 91.45 385.48 96.86 387.5 96.86 387.5 91.45 390.25 91.45 390.25 97.53 392.3 97.53"/>
      <path class="st0" d="M380.5,101.12v2.21h3.4v2.33c0,.18,0,.35.01.52l-3.4,2.32v2.48l3.91-2.69c.33.69.81,1.24,1.42,1.62.63.39,1.39.59,2.25.59s1.62-.2,2.26-.59c.63-.39,1.13-.96,1.46-1.69.33-.7.5-1.57.5-2.56v-4.54h-11.81ZM390.26,105.62c0,.9-.19,1.58-.57,2.03-.38.43-.9.65-1.59.65s-1.23-.22-1.61-.65c-.38-.45-.58-1.13-.58-2.03v-2.29h4.35v2.29Z"/>
      <path class="st0" d="M380.51,112.07v2.32l2.78,1.18v5.31l-2.78,1.19v2.34l11.8-5.2v-1.96l-11.8-5.18ZM385.22,120.06v-3.66l4.3,1.83-4.3,1.83Z"/>
      <rect class="st0" x="260.65" y="11.5" width="6.68" height="31.66"/>
      <polygon class="st0" points="282.16 43.16 288.81 43.16 288.81 17.44 298.72 17.44 298.72 11.5 272.25 11.5 272.25 17.44 282.16 17.44 282.16 43.16"/>
      <rect class="st0" x="303.47" y="11.5" width="6.68" height="31.66"/>
      <polygon class="st0" points="260.71 85.92 268.68 85.92 268.68 65.1 277.86 80.38 282.21 80.38 291.38 65.1 291.38 85.59 291.71 85.59 291.71 85.92 299.35 85.92 299.35 52.51 291.05 52.51 280.01 70.83 269.07 52.51 260.71 52.51 260.71 85.92"/>
      <path class="st0" d="M324.33,52.71l-.09-.2h-6.89l-14.65,33.41h8.25l3.44-8.17h12.7l3.5,8.17h8.24l-14.5-33.21ZM315.89,72.62l4.9-11.67,4.71,11.67h-9.61Z"/>
      <path class="st0" d="M309.36,89.23c-11.29.05-16.44,9.01-16.45,17.32-.02,8.23,5.08,17.14,16.3,17.23h.01c11.16-.04,16.3-8.88,16.35-17.09.05-8.28-5-17.28-16.21-17.46ZM313.91,115.99c-2.84,1.65-6.49,1.65-9.32,0-3.1-1.8-4.78-5.17-4.74-9.48h0c-.04-4.29,1.64-7.64,4.73-9.44,1.42-.83,3.04-1.24,4.67-1.24s3.24.41,4.66,1.23c3.1,1.8,4.79,5.15,4.76,9.45.04,4.31-1.65,7.67-4.76,9.48Z"/>
      <path class="st0" d="M271.37,99.14c.9-.9,1.98-1.61,3.22-2.11,1.23-.5,2.61-.75,4.1-.75,1.57,0,3.05.32,4.39.95,1.34.63,2.56,1.58,3.62,2.82l.22.26,5.41-4.94-.2-.24c-1.59-1.94-3.59-3.44-5.94-4.44-2.35-1-4.99-1.5-7.87-1.5-2.56,0-4.97.43-7.18,1.26-2.21.85-4.15,2.06-5.79,3.61-1.64,1.56-2.93,3.41-3.83,5.51-.91,2.09-1.37,4.42-1.37,6.94s.46,4.83,1.37,6.94c.91,2.1,2.19,3.95,3.81,5.5,1.63,1.57,3.57,2.78,5.76,3.62,2.2.84,4.62,1.26,7.18,1.26h.33c2.79-.05,5.34-.56,7.59-1.53,2.35-1.02,4.35-2.52,5.94-4.46l.2-.24-5.41-4.94-.22.26c-1.06,1.24-2.28,2.2-3.62,2.85-1.34.65-2.82.98-4.39.98s-2.87-.25-4.1-.75c-1.25-.5-2.31-1.19-3.22-2.11-.9-.9-1.61-1.98-2.11-3.22-.5-1.23-.75-2.63-.75-4.14s.25-2.91.75-4.14c.5-1.24,1.21-2.33,2.11-3.22Z"/>
    </g>
  </g>
</svg>