<?xml version="1.0" encoding="UTF-8"?>
<svg id="Livello_1" xmlns="http://www.w3.org/2000/svg" version="1.1" viewBox="0 0 193.78 193.88">
  <!-- Generator: Adobe Illustrator 30.2.0, SVG Export Plug-In . SVG Version: 2.1.1 Build 105)  -->
  <defs>
    <style>
      .st0 {
        fill: #fff;
      }
    </style>
  </defs>
  <path class="st0" d="M134,5.23c-2.4-2.29-5.59-3.57-8.91-3.57s-6.51,1.28-8.91,3.57l-40.12,40.11c-1.18,1.18-1.84,2.78-1.84,4.45s.66,3.27,1.84,4.45l6.7,6.69c1.21,1.14,2.8,1.77,4.46,1.77s3.25-.63,4.46-1.77c1.8-1.71,4.19-2.68,6.68-2.68s4.88.95,6.68,2.68l2.25,2.25-37.78,37.75c-1.8,1.72-4.21,2.68-6.7,2.68s-4.89-.95-6.7-2.68c-2.37-2.37-5.57-3.69-8.91-3.69s-6.55,1.32-8.91,3.69L4.86,134.34c-1.77,1.77-2.76,4.18-2.76,6.69s.99,4.92,2.76,6.69l4.62,4.62h0c1.67,7.54,5.48,14.46,10.97,19.9,5.46,5.48,12.36,9.29,19.91,10.99l4.6,4.6c1.77,1.77,4.18,2.77,6.69,2.77s4.92-.99,6.69-2.77l33.42-33.45c2.36-2.37,3.68-5.57,3.68-8.91s-1.33-6.54-3.7-8.9c-1.76-1.78-2.75-4.19-2.75-6.69s.99-4.91,2.75-6.69l37.78-37.78,2.25,2.25c1.77,1.77,2.76,4.17,2.76,6.68s-.99,4.91-2.76,6.67c-1.18,1.19-1.85,2.79-1.85,4.47s.66,3.28,1.85,4.47l6.69,6.69h0c1.18,1.18,2.78,1.84,4.45,1.84s3.27-.66,4.45-1.84l40.12-40.11c2.37-2.37,3.69-5.57,3.69-8.91s-1.32-6.54-3.69-8.91L133.99,5.23h0ZM53.9,183.38c-.59.59-1.39.92-2.23.92s-1.64-.33-2.23-.92l-5.26-5.27h0c-.44-.44-1-.74-1.61-.86-6.69-1.34-12.83-4.64-17.65-9.47-4.84-4.79-8.14-10.91-9.45-17.59-.12-.62-.42-1.19-.87-1.64l-5.3-5.3c-.59-.59-.92-1.39-.92-2.23s.33-1.65.92-2.23l13.38-13.37,4.62,4.61c-3.87,4.99-5.73,11.25-5.21,17.54.53,6.3,3.39,12.16,8.03,16.44,4.64,4.28,10.73,6.66,17.05,6.68h.02c5.6,0,11.04-1.87,15.45-5.32l4.61,4.61-13.37,13.38h0ZM60.59,158.87c-3.54,3.56-8.36,5.56-13.39,5.55-6.31-.02-12.19-3.17-15.68-8.43-3.49-5.25-4.15-11.9-1.73-17.73s7.58-10.07,13.76-11.3c6.18-1.24,12.58.7,17.05,5.15,3.53,3.55,5.52,8.36,5.51,13.38,0,5.01-1.99,9.82-5.53,13.38h0ZM87.3,118.76c-2.94,2.96-4.58,6.96-4.58,11.14s1.65,8.17,4.58,11.14c1.19,1.18,1.87,2.78,1.87,4.46s-.66,3.28-1.85,4.47l-15.6,15.6-4.6-4.6c5.07-6.52,6.63-15.11,4.17-22.99-2.46-7.89-8.63-14.06-16.52-16.52-7.89-2.46-16.47-.91-22.99,4.17l-4.6-4.6,15.59-15.59c1.18-1.18,2.78-1.84,4.46-1.84s3.27.66,4.46,1.84c2.96,2.95,6.97,4.6,11.15,4.6s8.19-1.65,11.15-4.6l37.78-37.78,13.35,13.35-37.79,37.79h0ZM142.92,112.18l-6.68-6.7h0c2.95-2.95,4.61-6.95,4.61-11.13s-1.65-8.18-4.61-11.13l-26.75-26.75h0c-2.96-2.95-6.96-4.61-11.14-4.61s-8.19,1.66-11.14,4.61l-6.68-6.67,33.44-33.44,62.39,62.39-33.44,33.42h0ZM183.03,72.06l-2.23,2.23L118.41,11.9l2.23-2.23h0c1.2-1.15,2.79-1.78,4.45-1.78s3.25.64,4.45,1.78l53.49,53.48c1.18,1.18,1.84,2.78,1.84,4.45s-.66,3.27-1.84,4.45h0Z"/>
</svg>