<?xml version="1.0" encoding="UTF-8"?>
<svg id="Livello_1" xmlns="http://www.w3.org/2000/svg" version="1.1" viewBox="0 0 193.78 193.88">
  <!-- Generator: Adobe Illustrator 30.2.0, SVG Export Plug-In . SVG Version: 2.1.1 Build 105)  -->
  <defs>
    <style>
      .st0 {
        fill: #fff;
      }
    </style>
  </defs>
  <path class="st0" d="M178.28,157.86l-57.91-96.09V23.8h4.39c1.58,0,2.9-1.28,2.9-2.9V4.07c0-1.61-1.28-2.9-2.9-2.9h-56.24c-1.61,0-2.9,1.28-2.9,2.9v16.84c0,1.61,1.28,2.9,2.9,2.9h4.38v37.97l-12.55,20.83s-.05.06-.07.09c-.04.06-.06.13-.1.19L14.99,157.85c-2.12,3.52-3.26,7.59-3.26,11.7,0,12.48,10.15,22.66,22.66,22.66h124.48c12.48,0,22.66-10.17,22.66-22.65,0-4.12-1.13-8.18-3.26-11.7ZM71.4,6.96h50.45v11.04h-45.99s-.05,0-.07,0-.05,0-.07,0h-4.32V6.96ZM78.27,64.06c.27-.44.42-.95.42-1.49V23.8h35.88v5.69h-11.7c-1.61,0-2.9,1.28-2.9,2.9s1.28,2.9,2.9,2.9h11.7v4.78h-11.7c-1.61,0-2.9,1.28-2.9,2.9s1.28,2.9,2.9,2.9h11.7v4.8h-11.7c-1.61,0-2.9,1.28-2.9,2.9s1.28,2.9,2.9,2.9h11.7v6.12c0,.54.14,1.05.42,1.49l9.48,15.73c-12.62-1.4-23.55,6.06-24.11,6.44-11.1,7.79-27.5.32-33.64-3l11.56-19.18ZM158.84,186.43H34.39c-9.28,0-16.86-7.55-16.86-16.86,0-3.08.83-6.09,2.42-8.72l43.78-72.64c4.58,2.52,14.56,7.26,24.85,7.26,5.2,0,10.45-1.2,15.14-4.48.12-.08,12.72-8.63,24.88-4.35l44.7,74.21c1.58,2.63,2.42,5.64,2.42,8.72,0,9.28-7.55,16.86-16.86,16.86Z"/>
  <path class="st0" d="M69.4,121.19c-8.21,0-14.9,6.69-14.9,14.9s6.69,14.9,14.9,14.9,14.9-6.69,14.9-14.9-6.69-14.9-14.9-14.9ZM69.4,145.2c-5.02,0-9.11-4.09-9.11-9.11s4.09-9.11,9.11-9.11,9.11,4.09,9.11,9.11-4.09,9.11-9.11,9.11Z"/>
  <path class="st0" d="M111.56,112.54c-6.39,0-11.58,5.19-11.58,11.58s5.19,11.58,11.58,11.58,11.58-5.19,11.58-11.58-5.19-11.58-11.58-11.58ZM111.56,129.89c-3.2,0-5.79-2.6-5.79-5.79s2.6-5.79,5.79-5.79,5.79,2.6,5.79,5.79-2.6,5.79-5.79,5.79Z"/>
  <path class="st0" d="M99.17,145.11c-6.39,0-11.58,5.19-11.58,11.58s5.19,11.58,11.58,11.58,11.61-5.19,11.58-11.58c0-6.39-5.19-11.58-11.58-11.58ZM99.17,162.48c-3.2,0-5.79-2.6-5.79-5.79s2.6-5.79,5.79-5.79,5.82,2.6,5.79,5.79c0,3.2-2.6,5.79-5.79,5.79Z"/>
</svg>