<?xml version="1.0" encoding="UTF-8"?>
<svg id="Livello_1" xmlns="http://www.w3.org/2000/svg" version="1.1" viewBox="0 0 193.78 193.88">
  <!-- Generator: Adobe Illustrator 30.2.0, SVG Export Plug-In . SVG Version: 2.1.1 Build 105)  -->
  <defs>
    <style>
      .st0 {
        fill: #fff;
      }
    </style>
  </defs>
  <path class="st0" d="M157.06,173.35c-2-2-4.78-3.11-7.64-3.07h-40.9v-13.12c.16-.17.33-.34.49-.52,3.19-3.52,4.7-8.22,4.21-12.95-.49-4.74-2.98-9.03-6.82-11.81-3.59-2.61-8.05-3.67-12.35-3l-21.32-15.44,10.68-14.64c9.61,5.32,19.63,8.63,29.04,9.51,1.64.16,3.27.24,4.87.24h0c11.11,0,19.98-3.84,25.21-11,3.43-4.74,1.06-12.25-7.15-22.31-6.42-7.88-15.88-16.66-26.81-24.92l5.28-7.24c1.19-1.64.82-3.92-.81-5.11-1.64-1.19-3.92-.82-5.11.81l-5.27,7.22c-11.2-7.87-22.42-14.18-31.91-17.89-6.04-2.35-11.03-3.52-14.95-3.51-3.93,0-6.78,1.18-8.5,3.56-.18.24-.33.5-.47.76-5.46,8.1-5.66,19.1-.51,31.15,3.71,8.67,9.91,17.19,17.9,24.7l-11.12,15.24c-5.33.81-9.95,4.15-12.42,8.96-2.65,5.19-2.41,11.4.66,16.38,3.07,4.99,8.46,8.01,14.3,8.01h0c.86,0,1.76-.04,2.61-.2.34-.05.69-.12,1.02-.19l20.85,15.09c.41,2.56,1.4,5.01,2.97,7.17.51.7,1.07,1.35,1.67,1.95v13.07h-40.9c-2.86-.04-5.59,1.06-7.64,3.07-2.04,2.01-3.19,4.74-3.19,7.6s1.14,5.6,3.19,7.6c2,2,4.78,3.11,7.64,3.07h105.58c2.86.04,5.64-1.06,7.64-3.07,2.04-2.01,3.19-4.74,3.19-7.6s-1.14-5.6-3.19-7.6ZM106.07,145.21c.08,2.65-.98,5.22-2.9,7.04-.44.23-.82.54-1.14.92-2.2,1.52-4.93,2.07-7.56,1.43-1.2-.29-2.3-.81-3.27-1.5-.27-.32-.6-.58-.97-.79-.91-.85-1.66-1.86-2.18-3.02-1.19-2.66-1.06-5.72.33-8.3,1.39-2.57,3.88-4.37,6.78-4.82.49-.08,1.02-.12,1.51-.12h0c1.96,0,3.88.61,5.52,1.8,2.36,1.71,3.8,4.41,3.88,7.35ZM60.1,45.88c-7.23-8.91-7.27-12.87-6.9-13.4.16-.24.94-.57,2.57-.57.14,0,.29,0,.44,0,2.3.08,6.07.76,11.82,3.06,8.97,3.47,19.6,9.47,30.29,16.97l-12.81,17.56c-10.4-7.89-19.36-16.18-25.42-23.62ZM104.23,56.26c6.85,5.2,13.09,10.57,18.27,15.76,2.68,2.68,5.08,5.32,7.14,7.85,7.23,8.91,7.27,12.91,6.9,13.4-.37.53-4.17,1.71-14.83-2.45-8.94-3.47-19.59-9.49-30.29-17l12.81-17.56ZM52.95,57.24c-1.96-4.65-2.98-9.03-3.08-13,1.24,1.96,2.75,4.04,4.55,6.25,6.95,8.53,17.49,18.11,29.53,26.93.06.05.12.09.18.14.01,0,.02.02.03.02,12.14,8.87,24.56,15.98,34.89,20.02,2.71,1.04,5.19,1.85,7.46,2.43-3.84,1.14-8.36,1.51-13.43,1.05-9.13-.85-18.95-4.28-28.32-9.84-.08-.07-.15-.15-.24-.22-.27-.2-.56-.33-.86-.45-2.04-1.25-4.06-2.6-6.04-4.05-2.03-1.48-3.97-3.03-5.82-4.63-.18-.2-.37-.39-.6-.55-.03-.02-.07-.04-.1-.06-8.21-7.26-14.54-15.59-18.16-24.05ZM73.38,92.42c1.23.9,2.48,1.75,3.74,2.58l-8.28,11.35c-1.93-2.5-4.49-4.36-7.36-5.43l8.24-11.3c1.19.96,2.4,1.9,3.65,2.81ZM52.75,125.63c-2.86-.94-5.1-3.19-6.04-6.04-.94-2.86-.41-5.97,1.35-8.42,1.76-2.45,4.58-3.88,7.6-3.88h0c2,0,3.92.6,5.52,1.83,2.11,1.52,3.46,3.83,3.79,6.37,0,.03,0,.07,0,.1,0,.02.01.04.02.06.04.35.06.71.06,1.07,0,3.02-1.43,5.84-3.88,7.6-.72.52-1.5.92-2.32,1.21-.07.02-.14.05-.21.07-1.88.63-3.95.66-5.88.02ZM71.09,123.07c.19-.45.35-.91.49-1.37l14.65,10.61c-2.4,1.9-4.26,4.44-5.33,7.37l-14.31-10.38c1.93-1.67,3.48-3.79,4.5-6.23ZM92.1,161.54c1.45.41,2.96.62,4.49.62h0c1.57.02,3.11-.19,4.58-.61v8.73h-9.07v-8.75ZM151.87,183.33c-.65.61-1.55.99-2.45.94H43.84c-.94.04-1.79-.29-2.45-.94-.66-.65-1.02-1.51-1.02-2.41s.36-1.79,1.02-2.41c.65-.61,1.55-.99,2.45-.94h105.58c.94-.04,1.79.29,2.45.94.66.65,1.02,1.51,1.02,2.41s-.36,1.79-1.02,2.41Z"/>
  <polygon class="st0" points="129.12 48.17 129.11 48.17 129.11 48.17 129.12 48.17"/>
  <path class="st0" d="M99.73,27.61c1.64,1.19,3.92.82,5.11-.81,1.06-1.47,7.12-1.23,13.73,3.59,3.14,2.25,5.68,5.11,6.99,7.77.9,1.84,1.14,3.47.61,4.21-.82,1.11-.94,2.57-.33,3.8.61,1.22,1.88,2,3.27,2,1.18,0,2.28-.53,2.98-1.47,2.25-3.11,2.25-7.27.04-11.77-1.84-3.76-5.1-7.48-9.23-10.46-9.48-6.87-19.78-7.72-23.98-1.96-1.19,1.64-.82,3.92.81,5.11Z"/>
  <path class="st0" d="M105,10.93c1.64,1.19,3.92.82,5.11-.81.98-1.34,3.47-1.88,6.7-1.39,4.13.61,8.95,2.74,13.24,5.89,4.29,3.15,7.81,7.07,9.65,10.79,1.43,2.94,1.71,5.47.74,6.82-.82,1.11-.94,2.57-.33,3.8.61,1.22,1.89,2,3.27,2h0c1.19-.01,2.29-.54,2.94-1.44,2.7-3.72,2.66-8.82-.08-14.38-2.37-4.82-6.58-9.6-11.89-13.48-5.32-3.88-11.16-6.45-16.47-7.23-6.13-.9-11,.65-13.69,4.33-1.19,1.64-.82,3.92.81,5.11Z"/>
</svg>